G04 Layer_Color=65535*
%FSLAX25Y25*%
%MOIN*%
G70*
G01*
G75*
%ADD26C,0.00787*%
%ADD27C,0.00984*%
%ADD28C,0.02362*%
%ADD29C,0.01000*%
%ADD30C,0.00394*%
%ADD31C,0.00591*%
%ADD32C,0.00709*%
D26*
X339743Y483386D02*
G03*
X339742Y498613I5257J7614D01*
G01*
X371757Y445114D02*
G03*
X371758Y429887I-5257J-7614D01*
G01*
X282500Y451279D02*
G03*
X287500Y451279I2500J0D01*
G01*
X339744Y483387D02*
Y498613D01*
X228000Y449000D02*
X232638D01*
X228000D02*
Y461000D01*
X235000D01*
Y449000D02*
Y461000D01*
X232638Y449000D02*
X235000D01*
X218000D02*
X222638D01*
X218000D02*
Y461000D01*
X225000D01*
Y449000D02*
Y461000D01*
X222638Y449000D02*
X225000D01*
X230362Y399000D02*
X235000D01*
Y387000D02*
Y399000D01*
X228000Y387000D02*
X235000D01*
X228000D02*
Y399000D01*
X230362D01*
X219862D02*
X224500D01*
Y387000D02*
Y399000D01*
X217500Y387000D02*
X224500D01*
X217500D02*
Y399000D01*
X219862D01*
X241500Y336500D02*
X246138D01*
X241500D02*
Y348500D01*
X248500D01*
Y336500D02*
Y348500D01*
X246138Y336500D02*
X248500D01*
X256362Y348500D02*
X261000D01*
Y336500D02*
Y348500D01*
X254000Y336500D02*
X261000D01*
X254000D02*
Y348500D01*
X256362D01*
X268862D02*
X273500D01*
Y336500D02*
Y348500D01*
X266500Y336500D02*
X273500D01*
X266500D02*
Y348500D01*
X268862D01*
X279000Y336500D02*
X283638D01*
X279000D02*
Y348500D01*
X286000D01*
Y336500D02*
Y348500D01*
X283638Y336500D02*
X286000D01*
X291500D02*
X296138D01*
X291500D02*
Y348500D01*
X298500D01*
Y336500D02*
Y348500D01*
X296138Y336500D02*
X298500D01*
X306362Y348500D02*
X311000D01*
Y336500D02*
Y348500D01*
X304000Y336500D02*
X311000D01*
X304000D02*
Y348500D01*
X306362D01*
X303862Y476000D02*
X308500D01*
Y464000D02*
Y476000D01*
X301500Y464000D02*
X308500D01*
X301500D02*
Y476000D01*
X303862D01*
X289000Y464000D02*
X293638D01*
X289000D02*
Y476000D01*
X296000D01*
Y464000D02*
Y476000D01*
X293638Y464000D02*
X296000D01*
X273862Y476000D02*
X278500D01*
Y464000D02*
Y476000D01*
X271500Y464000D02*
X278500D01*
X271500D02*
Y476000D01*
X273862D01*
X259000Y464000D02*
X263638D01*
X259000D02*
Y476000D01*
X266000D01*
Y464000D02*
Y476000D01*
X263638Y464000D02*
X266000D01*
X294000Y493862D02*
Y498500D01*
X306000D01*
Y491500D02*
Y498500D01*
X294000Y491500D02*
X306000D01*
X294000D02*
Y493862D01*
X371756Y429887D02*
Y445113D01*
X341362Y433500D02*
X346000D01*
Y421500D02*
Y433500D01*
X339000Y421500D02*
X346000D01*
X339000D02*
Y433500D01*
X341362D01*
X358000Y482500D02*
Y502500D01*
X436500D01*
Y482500D02*
Y502500D01*
X358000Y482500D02*
X436500D01*
X421500Y418862D02*
Y423500D01*
X433500D01*
Y416500D02*
Y423500D01*
X421500Y416500D02*
X433500D01*
X421500D02*
Y418862D01*
Y391362D02*
Y396000D01*
X433500D01*
Y389000D02*
Y396000D01*
X421500Y389000D02*
X433500D01*
X421500D02*
Y391362D01*
Y381362D02*
Y386000D01*
X433500D01*
Y379000D02*
Y386000D01*
X421500Y379000D02*
X433500D01*
X421500D02*
Y381362D01*
X433500Y369000D02*
Y373638D01*
X421500Y369000D02*
X433500D01*
X421500D02*
Y376000D01*
X433500D01*
Y373638D02*
Y376000D01*
X421500Y361362D02*
Y366000D01*
X433500D01*
Y359000D02*
Y366000D01*
X421500Y359000D02*
X433500D01*
X421500D02*
Y361362D01*
X433500Y349000D02*
Y353638D01*
X421500Y349000D02*
X433500D01*
X421500D02*
Y356000D01*
X433500D01*
Y353638D02*
Y356000D01*
X421500Y341362D02*
Y346000D01*
X433500D01*
Y339000D02*
Y346000D01*
X421500Y339000D02*
X433500D01*
X421500D02*
Y341362D01*
X433500Y329000D02*
Y333638D01*
X421500Y329000D02*
X433500D01*
X421500D02*
Y336000D01*
X433500D01*
Y333638D02*
Y336000D01*
X421500Y321362D02*
Y326000D01*
X433500D01*
Y319000D02*
Y326000D01*
X421500Y319000D02*
X433500D01*
X421500D02*
Y321362D01*
X433500Y309000D02*
Y313638D01*
X421500Y309000D02*
X433500D01*
X421500D02*
Y316000D01*
X433500D01*
Y313638D02*
Y316000D01*
X205500Y460000D02*
X215500D01*
Y420000D02*
Y460000D01*
X205500Y420000D02*
Y460000D01*
Y420000D02*
X215500D01*
X319500Y324000D02*
Y484000D01*
X329500D01*
Y476500D02*
Y484000D01*
Y324000D02*
Y476500D01*
X319500Y324000D02*
X329500D01*
X205000Y408000D02*
X215000D01*
Y368000D02*
Y408000D01*
X205000Y368000D02*
Y408000D01*
Y368000D02*
X215000D01*
X274567Y373721D02*
X295433D01*
X287500Y451279D02*
X295433D01*
X274567D02*
X282500D01*
X295433Y373721D02*
Y451279D01*
X274567Y373721D02*
Y451279D01*
X378222Y455002D02*
X384778D01*
X378222Y438998D02*
X384778D01*
Y455002D01*
X378222Y438998D02*
Y455002D01*
Y451067D02*
X384778D01*
X239500Y371500D02*
Y484000D01*
Y364000D02*
Y371500D01*
Y364000D02*
X249500D01*
Y484000D01*
X239500D02*
X249500D01*
X364000Y398862D02*
Y403500D01*
X376000D01*
Y396500D02*
Y403500D01*
X364000Y396500D02*
X376000D01*
X364000D02*
Y398862D01*
Y408862D02*
Y413500D01*
X376000D01*
Y406500D02*
Y413500D01*
X364000Y406500D02*
X376000D01*
X364000D02*
Y408862D01*
Y418862D02*
Y423500D01*
X376000D01*
Y416500D02*
Y423500D01*
X364000Y416500D02*
X376000D01*
X364000D02*
Y418862D01*
Y368333D02*
Y387500D01*
Y357500D02*
Y387500D01*
X344000Y357500D02*
Y387500D01*
Y357500D02*
X364000D01*
X344000Y387500D02*
X364000D01*
X264000Y309223D02*
Y305287D01*
X264787Y304500D01*
X266361D01*
X267149Y305287D01*
Y309223D01*
X271871D02*
X268723D01*
Y306861D01*
X270297D01*
X268723D01*
Y304500D01*
X273446D02*
Y309223D01*
X275807D01*
X276594Y308436D01*
Y306861D01*
X275807Y306074D01*
X273446D01*
X278169Y306861D02*
X281317D01*
X282892Y309223D02*
X284466D01*
X283679D01*
Y304500D01*
X282892D01*
X284466D01*
X286827Y309223D02*
X288402D01*
X287614D01*
Y304500D01*
X286827D01*
X288402D01*
D27*
X345492Y502614D02*
G03*
X345492Y502614I-492J0D01*
G01*
X366992Y425886D02*
G03*
X366992Y425886I-492J0D01*
G01*
X270492Y447618D02*
G03*
X270492Y447618I-492J0D01*
G01*
D28*
X279685Y447342D02*
G03*
X279685Y447342I-1181J0D01*
G01*
D29*
X413480Y427136D02*
G03*
X413470Y427136I-479J24454D01*
G01*
X408000Y475591D02*
G03*
X418000Y475091I5250J4750D01*
G01*
X220000Y420000D02*
X235000D01*
Y430000D01*
X220000D02*
X235000D01*
X220000Y420000D02*
Y430000D01*
X227500Y419000D02*
Y420000D01*
Y430000D02*
Y431000D01*
X205000Y347500D02*
X220000D01*
Y357500D01*
X205000D02*
X220000D01*
X205000Y347500D02*
Y357500D01*
X212500Y346500D02*
Y347500D01*
Y357500D02*
Y358500D01*
X222500Y357500D02*
X237500D01*
X222500Y347500D02*
Y357500D01*
Y347500D02*
X237500D01*
Y357500D01*
X230000D02*
Y358500D01*
Y346500D02*
Y347500D01*
X340000Y461500D02*
Y476500D01*
Y461500D02*
X350000D01*
Y476500D01*
X340000D02*
X350000D01*
X339000Y469000D02*
X340000D01*
X350000D02*
X351000D01*
X360000Y457500D02*
X375000D01*
Y467500D01*
X360000D02*
X375000D01*
X360000Y457500D02*
Y467500D01*
X367500Y456500D02*
Y457500D01*
Y467500D02*
Y468500D01*
X370000Y340000D02*
X385000D01*
X370000Y330000D02*
Y340000D01*
Y330000D02*
X385000D01*
Y340000D01*
X377500D02*
Y341000D01*
Y329000D02*
Y330000D01*
X351500Y340000D02*
X366500D01*
X351500Y330000D02*
Y340000D01*
Y330000D02*
X366500D01*
Y340000D01*
X359000D02*
Y341000D01*
Y329000D02*
Y330000D01*
X332500Y340000D02*
X347500D01*
X332500Y330000D02*
Y340000D01*
Y330000D02*
X347500D01*
Y340000D01*
X340000D02*
Y341000D01*
Y329000D02*
Y330000D01*
X370000Y372500D02*
X385000D01*
X370000Y362500D02*
Y372500D01*
Y362500D02*
X385000D01*
Y372500D01*
X377500D02*
Y373500D01*
Y361500D02*
Y362500D01*
X395000Y390000D02*
Y405000D01*
Y390000D02*
X405000D01*
Y405000D01*
X395000D02*
X405000D01*
X394000Y397500D02*
X395000D01*
X405000D02*
X406000D01*
X395000Y370000D02*
Y385000D01*
Y370000D02*
X405000D01*
Y385000D01*
X395000D02*
X405000D01*
X394000Y377500D02*
X395000D01*
X405000D02*
X406000D01*
X395000Y350000D02*
Y365000D01*
Y350000D02*
X405000D01*
Y365000D01*
X395000D02*
X405000D01*
X394000Y357500D02*
X395000D01*
X405000D02*
X406000D01*
X395000Y330000D02*
Y345000D01*
Y330000D02*
X405000D01*
Y345000D01*
X395000D02*
X405000D01*
X394000Y337500D02*
X395000D01*
X405000D02*
X406000D01*
X395000Y310000D02*
Y325000D01*
Y310000D02*
X405000D01*
Y325000D01*
X395000D02*
X405000D01*
X394000Y317500D02*
X395000D01*
X405000D02*
X406000D01*
D30*
X443500Y346000D02*
X471500D01*
Y384000D01*
X443500D02*
X471500D01*
X443500Y346000D02*
Y384000D01*
Y391000D02*
X471500D01*
Y429000D01*
X443500D02*
X471500D01*
X443500Y391000D02*
Y429000D01*
Y436000D02*
Y464000D01*
X471500D01*
Y436000D02*
Y464000D01*
X443500Y436000D02*
X471500D01*
D31*
X266400Y458542D02*
Y455590D01*
X266990Y455000D01*
X268171D01*
X268761Y455590D01*
Y458542D01*
X269942Y455000D02*
X271123D01*
X270532D01*
Y458542D01*
X269942Y457952D01*
X295500Y493000D02*
Y496542D01*
X297271D01*
X297861Y495952D01*
Y494771D01*
X297271Y494181D01*
X295500D01*
X296681D02*
X297861Y493000D01*
X301404D02*
X299042D01*
X301404Y495361D01*
Y495952D01*
X300813Y496542D01*
X299633D01*
X299042Y495952D01*
X302584D02*
X303175Y496542D01*
X304355D01*
X304946Y495952D01*
Y495361D01*
X304355Y494771D01*
X304946Y494181D01*
Y493590D01*
X304355Y493000D01*
X303175D01*
X302584Y493590D01*
Y494181D01*
X303175Y494771D01*
X302584Y495361D01*
Y495952D01*
X303175Y494771D02*
X304355D01*
X246500Y337500D02*
X242958D01*
Y339271D01*
X243548Y339861D01*
X244729D01*
X245319Y339271D01*
Y337500D01*
Y338681D02*
X246500Y339861D01*
Y343404D02*
Y341042D01*
X244139Y343404D01*
X243548D01*
X242958Y342813D01*
Y341633D01*
X243548Y341042D01*
X242958Y344584D02*
Y346946D01*
X243548D01*
X245910Y344584D01*
X246500D01*
X259000Y337500D02*
X255458D01*
Y339271D01*
X256048Y339861D01*
X257229D01*
X257819Y339271D01*
Y337500D01*
Y338681D02*
X259000Y339861D01*
Y343404D02*
Y341042D01*
X256639Y343404D01*
X256048D01*
X255458Y342813D01*
Y341633D01*
X256048Y341042D01*
X255458Y346946D02*
X256048Y345765D01*
X257229Y344584D01*
X258410D01*
X259000Y345175D01*
Y346355D01*
X258410Y346946D01*
X257819D01*
X257229Y346355D01*
Y344584D01*
X422500Y370500D02*
Y374042D01*
X424271D01*
X424861Y373452D01*
Y372271D01*
X424271Y371681D01*
X422500D01*
X423681D02*
X424861Y370500D01*
X428404D02*
X426042D01*
X428404Y372861D01*
Y373452D01*
X427813Y374042D01*
X426632D01*
X426042Y373452D01*
X431946Y374042D02*
X429584D01*
Y372271D01*
X430765Y372861D01*
X431355D01*
X431946Y372271D01*
Y371090D01*
X431355Y370500D01*
X430175D01*
X429584Y371090D01*
X306500Y465500D02*
X302958D01*
Y467271D01*
X303548Y467861D01*
X304729D01*
X305319Y467271D01*
Y465500D01*
Y466681D02*
X306500Y467861D01*
Y471404D02*
Y469042D01*
X304139Y471404D01*
X303548D01*
X302958Y470813D01*
Y469632D01*
X303548Y469042D01*
X306500Y474355D02*
X302958D01*
X304729Y472584D01*
Y474946D01*
X422500Y380500D02*
Y384042D01*
X424271D01*
X424861Y383452D01*
Y382271D01*
X424271Y381681D01*
X422500D01*
X423681D02*
X424861Y380500D01*
X428404D02*
X426042D01*
X428404Y382861D01*
Y383452D01*
X427813Y384042D01*
X426632D01*
X426042Y383452D01*
X429584D02*
X430175Y384042D01*
X431355D01*
X431946Y383452D01*
Y382861D01*
X431355Y382271D01*
X430765D01*
X431355D01*
X431946Y381681D01*
Y381090D01*
X431355Y380500D01*
X430175D01*
X429584Y381090D01*
X422500Y418000D02*
Y421542D01*
X424271D01*
X424861Y420952D01*
Y419771D01*
X424271Y419181D01*
X422500D01*
X423681D02*
X424861Y418000D01*
X428404D02*
X426042D01*
X428404Y420361D01*
Y420952D01*
X427813Y421542D01*
X426632D01*
X426042Y420952D01*
X431946Y418000D02*
X429584D01*
X431946Y420361D01*
Y420952D01*
X431355Y421542D01*
X430175D01*
X429584Y420952D01*
X294000Y466000D02*
X290458D01*
Y467771D01*
X291048Y468361D01*
X292229D01*
X292819Y467771D01*
Y466000D01*
Y467181D02*
X294000Y468361D01*
Y471904D02*
Y469542D01*
X291639Y471904D01*
X291048D01*
X290458Y471313D01*
Y470132D01*
X291048Y469542D01*
X294000Y473084D02*
Y474265D01*
Y473675D01*
X290458D01*
X291048Y473084D01*
X422500Y350500D02*
Y354042D01*
X424271D01*
X424861Y353452D01*
Y352271D01*
X424271Y351681D01*
X422500D01*
X423681D02*
X424861Y350500D01*
X428404D02*
X426042D01*
X428404Y352861D01*
Y353452D01*
X427813Y354042D01*
X426632D01*
X426042Y353452D01*
X429584D02*
X430175Y354042D01*
X431355D01*
X431946Y353452D01*
Y351090D01*
X431355Y350500D01*
X430175D01*
X429584Y351090D01*
Y353452D01*
X233000Y450500D02*
X229458D01*
Y452271D01*
X230048Y452861D01*
X231229D01*
X231819Y452271D01*
Y450500D01*
Y451681D02*
X233000Y452861D01*
Y454042D02*
Y455223D01*
Y454633D01*
X229458D01*
X230048Y454042D01*
X232410Y456994D02*
X233000Y457584D01*
Y458765D01*
X232410Y459355D01*
X230048D01*
X229458Y458765D01*
Y457584D01*
X230048Y456994D01*
X230639D01*
X231229Y457584D01*
Y459355D01*
X223000Y450500D02*
X219458D01*
Y452271D01*
X220048Y452861D01*
X221229D01*
X221819Y452271D01*
Y450500D01*
Y451681D02*
X223000Y452861D01*
Y454042D02*
Y455223D01*
Y454633D01*
X219458D01*
X220048Y454042D01*
Y456994D02*
X219458Y457584D01*
Y458765D01*
X220048Y459355D01*
X220639D01*
X221229Y458765D01*
X221819Y459355D01*
X222410D01*
X223000Y458765D01*
Y457584D01*
X222410Y456994D01*
X221819D01*
X221229Y457584D01*
X220639Y456994D01*
X220048D01*
X221229Y457584D02*
Y458765D01*
X297000Y338000D02*
X293458D01*
Y339771D01*
X294048Y340361D01*
X295229D01*
X295819Y339771D01*
Y338000D01*
Y339181D02*
X297000Y340361D01*
Y341542D02*
Y342723D01*
Y342132D01*
X293458D01*
X294048Y341542D01*
X293458Y344494D02*
Y346855D01*
X294048D01*
X296410Y344494D01*
X297000D01*
X423000Y360500D02*
Y364042D01*
X424771D01*
X425361Y363452D01*
Y362271D01*
X424771Y361681D01*
X423000D01*
X424181D02*
X425361Y360500D01*
X426542D02*
X427723D01*
X427133D01*
Y364042D01*
X426542Y363452D01*
X431855Y364042D02*
X430675Y363452D01*
X429494Y362271D01*
Y361090D01*
X430084Y360500D01*
X431265D01*
X431855Y361090D01*
Y361681D01*
X431265Y362271D01*
X429494D01*
X309000Y338000D02*
X305458D01*
Y339771D01*
X306048Y340361D01*
X307229D01*
X307819Y339771D01*
Y338000D01*
Y339181D02*
X309000Y340361D01*
Y341542D02*
Y342723D01*
Y342132D01*
X305458D01*
X306048Y341542D01*
X305458Y346855D02*
Y344494D01*
X307229D01*
X306639Y345675D01*
Y346265D01*
X307229Y346855D01*
X308410D01*
X309000Y346265D01*
Y345084D01*
X308410Y344494D01*
X423000Y330500D02*
Y334042D01*
X424771D01*
X425361Y333452D01*
Y332271D01*
X424771Y331681D01*
X423000D01*
X424181D02*
X425361Y330500D01*
X426542D02*
X427723D01*
X427133D01*
Y334042D01*
X426542Y333452D01*
X429494D02*
X430084Y334042D01*
X431265D01*
X431855Y333452D01*
Y332861D01*
X431265Y332271D01*
X430675D01*
X431265D01*
X431855Y331681D01*
Y331090D01*
X431265Y330500D01*
X430084D01*
X429494Y331090D01*
X276500Y465500D02*
X272958D01*
Y467271D01*
X273548Y467861D01*
X274729D01*
X275319Y467271D01*
Y465500D01*
Y466681D02*
X276500Y467861D01*
Y469042D02*
Y470223D01*
Y469632D01*
X272958D01*
X273548Y469042D01*
X276500Y474355D02*
Y471994D01*
X274139Y474355D01*
X273548D01*
X272958Y473765D01*
Y472584D01*
X273548Y471994D01*
X423000Y340500D02*
Y344042D01*
X424771D01*
X425361Y343452D01*
Y342271D01*
X424771Y341681D01*
X423000D01*
X424181D02*
X425361Y340500D01*
X426542D02*
X427723D01*
X427133D01*
Y344042D01*
X426542Y343452D01*
X429494Y340500D02*
X430675D01*
X430084D01*
Y344042D01*
X429494Y343452D01*
X344500Y424500D02*
X340958D01*
Y426271D01*
X341548Y426861D01*
X342729D01*
X343319Y426271D01*
Y424500D01*
Y425681D02*
X344500Y426861D01*
X343910Y428042D02*
X344500Y428632D01*
Y429813D01*
X343910Y430404D01*
X341548D01*
X340958Y429813D01*
Y428632D01*
X341548Y428042D01*
X342139D01*
X342729Y428632D01*
Y430404D01*
X264000Y466000D02*
X260458D01*
Y467771D01*
X261048Y468361D01*
X262229D01*
X262819Y467771D01*
Y466000D01*
Y467181D02*
X264000Y468361D01*
X261048Y469542D02*
X260458Y470132D01*
Y471313D01*
X261048Y471904D01*
X261639D01*
X262229Y471313D01*
X262819Y471904D01*
X263410D01*
X264000Y471313D01*
Y470132D01*
X263410Y469542D01*
X262819D01*
X262229Y470132D01*
X261639Y469542D01*
X261048D01*
X262229Y470132D02*
Y471313D01*
X233500Y390500D02*
X229958D01*
Y392271D01*
X230548Y392861D01*
X231729D01*
X232319Y392271D01*
Y390500D01*
Y391681D02*
X233500Y392861D01*
X229958Y394042D02*
Y396404D01*
X230548D01*
X232910Y394042D01*
X233500D01*
X223000Y390000D02*
X219458D01*
Y391771D01*
X220048Y392361D01*
X221229D01*
X221819Y391771D01*
Y390000D01*
Y391181D02*
X223000Y392361D01*
X219458Y395904D02*
X220048Y394723D01*
X221229Y393542D01*
X222410D01*
X223000Y394132D01*
Y395313D01*
X222410Y395904D01*
X221819D01*
X221229Y395313D01*
Y393542D01*
X424000Y310500D02*
Y314042D01*
X425771D01*
X426361Y313452D01*
Y312271D01*
X425771Y311681D01*
X424000D01*
X425181D02*
X426361Y310500D01*
X429904Y314042D02*
X427542D01*
Y312271D01*
X428723Y312861D01*
X429313D01*
X429904Y312271D01*
Y311090D01*
X429313Y310500D01*
X428132D01*
X427542Y311090D01*
X424000Y391000D02*
Y394542D01*
X425771D01*
X426361Y393952D01*
Y392771D01*
X425771Y392181D01*
X424000D01*
X425181D02*
X426361Y391000D01*
X429313D02*
Y394542D01*
X427542Y392771D01*
X429904D01*
X284500Y338000D02*
X280958D01*
Y339771D01*
X281548Y340361D01*
X282729D01*
X283319Y339771D01*
Y338000D01*
Y339181D02*
X284500Y340361D01*
X281548Y341542D02*
X280958Y342132D01*
Y343313D01*
X281548Y343904D01*
X282139D01*
X282729Y343313D01*
Y342723D01*
Y343313D01*
X283319Y343904D01*
X283910D01*
X284500Y343313D01*
Y342132D01*
X283910Y341542D01*
X424000Y320500D02*
Y324042D01*
X425771D01*
X426361Y323452D01*
Y322271D01*
X425771Y321681D01*
X424000D01*
X425181D02*
X426361Y320500D01*
X429904D02*
X427542D01*
X429904Y322861D01*
Y323452D01*
X429313Y324042D01*
X428132D01*
X427542Y323452D01*
X272000Y340000D02*
X268458D01*
Y341771D01*
X269048Y342361D01*
X270229D01*
X270819Y341771D01*
Y340000D01*
Y341181D02*
X272000Y342361D01*
Y343542D02*
Y344723D01*
Y344132D01*
X268458D01*
X269048Y343542D01*
X334361Y495590D02*
Y497952D01*
X333771Y498542D01*
X332590D01*
X332000Y497952D01*
Y495590D01*
X332590Y495000D01*
X333771D01*
X333181Y496181D02*
X334361Y495000D01*
X333771D02*
X334361Y495590D01*
X337904Y495000D02*
X335542D01*
X337904Y497361D01*
Y497952D01*
X337313Y498542D01*
X336133D01*
X335542Y497952D01*
X376410Y429861D02*
X374048D01*
X373458Y429271D01*
Y428090D01*
X374048Y427500D01*
X376410D01*
X377000Y428090D01*
Y429271D01*
X375819Y428681D02*
X377000Y429861D01*
Y429271D02*
X376410Y429861D01*
X377000Y431042D02*
Y432223D01*
Y431633D01*
X373458D01*
X374048Y431042D01*
X464500Y386500D02*
Y390042D01*
X466271D01*
X466861Y389452D01*
Y388271D01*
X466271Y387681D01*
X464500D01*
X470404Y390042D02*
X469223Y389452D01*
X468042Y388271D01*
Y387090D01*
X468633Y386500D01*
X469813D01*
X470404Y387090D01*
Y387681D01*
X469813Y388271D01*
X468042D01*
X379000Y307000D02*
Y310542D01*
X380771D01*
X381361Y309952D01*
Y308771D01*
X380771Y308181D01*
X379000D01*
X384904Y310542D02*
X382542D01*
Y308771D01*
X383723Y309361D01*
X384313D01*
X384904Y308771D01*
Y307590D01*
X384313Y307000D01*
X383133D01*
X382542Y307590D01*
X465000Y431500D02*
Y435042D01*
X466771D01*
X467361Y434452D01*
Y433271D01*
X466771Y432681D01*
X465000D01*
X470313Y431500D02*
Y435042D01*
X468542Y433271D01*
X470904D01*
X205700Y463000D02*
Y466542D01*
X207471D01*
X208061Y465952D01*
Y464771D01*
X207471Y464181D01*
X205700D01*
X209242Y465952D02*
X209833Y466542D01*
X211013D01*
X211604Y465952D01*
Y465361D01*
X211013Y464771D01*
X210423D01*
X211013D01*
X211604Y464181D01*
Y463590D01*
X211013Y463000D01*
X209833D01*
X209242Y463590D01*
X205200Y411000D02*
Y414542D01*
X206971D01*
X207561Y413952D01*
Y412771D01*
X206971Y412181D01*
X205200D01*
X211104Y411000D02*
X208742D01*
X211104Y413361D01*
Y413952D01*
X210513Y414542D01*
X209332D01*
X208742Y413952D01*
X465500Y341000D02*
Y344542D01*
X467271D01*
X467861Y343952D01*
Y342771D01*
X467271Y342181D01*
X465500D01*
X469042Y341000D02*
X470223D01*
X469632D01*
Y344542D01*
X469042Y343952D01*
X359000Y481042D02*
Y477500D01*
Y478681D01*
X361361Y481042D01*
X359590Y479271D01*
X361361Y477500D01*
X362542D02*
X363723D01*
X363133D01*
Y481042D01*
X362542Y480452D01*
X322061Y490542D02*
X320881D01*
X321471D01*
Y487590D01*
X320881Y487000D01*
X320290D01*
X319700Y487590D01*
X323242Y487000D02*
Y490542D01*
X325013D01*
X325604Y489952D01*
Y488771D01*
X325013Y488181D01*
X323242D01*
X326784Y487000D02*
X327965D01*
X327375D01*
Y490542D01*
X326784Y489952D01*
X378300Y468242D02*
Y464700D01*
X380071D01*
X380661Y465290D01*
Y467652D01*
X380071Y468242D01*
X378300D01*
X381842Y464700D02*
X383023D01*
X382433D01*
Y468242D01*
X381842Y467652D01*
X343548Y466861D02*
X342958Y466271D01*
Y465090D01*
X343548Y464500D01*
X345910D01*
X346500Y465090D01*
Y466271D01*
X345910Y466861D01*
X346500Y468042D02*
Y469223D01*
Y468633D01*
X342958D01*
X343548Y468042D01*
X342958Y473355D02*
Y470994D01*
X344729D01*
X344139Y472175D01*
Y472765D01*
X344729Y473355D01*
X345910D01*
X346500Y472765D01*
Y471584D01*
X345910Y470994D01*
X337861Y335952D02*
X337271Y336542D01*
X336090D01*
X335500Y335952D01*
Y333590D01*
X336090Y333000D01*
X337271D01*
X337861Y333590D01*
X339042Y333000D02*
X340223D01*
X339633D01*
Y336542D01*
X339042Y335952D01*
X343765Y333000D02*
Y336542D01*
X341994Y334771D01*
X344355D01*
X356861Y335952D02*
X356271Y336542D01*
X355090D01*
X354500Y335952D01*
Y333590D01*
X355090Y333000D01*
X356271D01*
X356861Y333590D01*
X358042Y333000D02*
X359223D01*
X358632D01*
Y336542D01*
X358042Y335952D01*
X360994D02*
X361584Y336542D01*
X362765D01*
X363355Y335952D01*
Y335361D01*
X362765Y334771D01*
X362175D01*
X362765D01*
X363355Y334181D01*
Y333590D01*
X362765Y333000D01*
X361584D01*
X360994Y333590D01*
X375361Y335952D02*
X374771Y336542D01*
X373590D01*
X373000Y335952D01*
Y333590D01*
X373590Y333000D01*
X374771D01*
X375361Y333590D01*
X376542Y333000D02*
X377723D01*
X377133D01*
Y336542D01*
X376542Y335952D01*
X381855Y333000D02*
X379494D01*
X381855Y335361D01*
Y335952D01*
X381265Y336542D01*
X380084D01*
X379494Y335952D01*
X228361Y353452D02*
X227771Y354042D01*
X226590D01*
X226000Y353452D01*
Y351090D01*
X226590Y350500D01*
X227771D01*
X228361Y351090D01*
X229542Y350500D02*
X230723D01*
X230133D01*
Y354042D01*
X229542Y353452D01*
X232494D02*
X233084Y354042D01*
X234265D01*
X234855Y353452D01*
Y351090D01*
X234265Y350500D01*
X233084D01*
X232494Y351090D01*
Y353452D01*
X399361Y378452D02*
X398771Y379042D01*
X397590D01*
X397000Y378452D01*
Y376090D01*
X397590Y375500D01*
X398771D01*
X399361Y376090D01*
X400542D02*
X401132Y375500D01*
X402313D01*
X402904Y376090D01*
Y378452D01*
X402313Y379042D01*
X401132D01*
X400542Y378452D01*
Y377861D01*
X401132Y377271D01*
X402904D01*
X226861Y426452D02*
X226271Y427042D01*
X225090D01*
X224500Y426452D01*
Y424090D01*
X225090Y423500D01*
X226271D01*
X226861Y424090D01*
X228042Y426452D02*
X228632Y427042D01*
X229813D01*
X230404Y426452D01*
Y425861D01*
X229813Y425271D01*
X230404Y424681D01*
Y424090D01*
X229813Y423500D01*
X228632D01*
X228042Y424090D01*
Y424681D01*
X228632Y425271D01*
X228042Y425861D01*
Y426452D01*
X228632Y425271D02*
X229813D01*
X399361Y358452D02*
X398771Y359042D01*
X397590D01*
X397000Y358452D01*
Y356090D01*
X397590Y355500D01*
X398771D01*
X399361Y356090D01*
X400542Y359042D02*
X402904D01*
Y358452D01*
X400542Y356090D01*
Y355500D01*
X399361Y398452D02*
X398771Y399042D01*
X397590D01*
X397000Y398452D01*
Y396090D01*
X397590Y395500D01*
X398771D01*
X399361Y396090D01*
X402904Y399042D02*
X401723Y398452D01*
X400542Y397271D01*
Y396090D01*
X401132Y395500D01*
X402313D01*
X402904Y396090D01*
Y396681D01*
X402313Y397271D01*
X400542D01*
X399361Y338452D02*
X398771Y339042D01*
X397590D01*
X397000Y338452D01*
Y336090D01*
X397590Y335500D01*
X398771D01*
X399361Y336090D01*
X402904Y339042D02*
X400542D01*
Y337271D01*
X401723Y337861D01*
X402313D01*
X402904Y337271D01*
Y336090D01*
X402313Y335500D01*
X401132D01*
X400542Y336090D01*
X211361Y353452D02*
X210771Y354042D01*
X209590D01*
X209000Y353452D01*
Y351090D01*
X209590Y350500D01*
X210771D01*
X211361Y351090D01*
X214313Y350500D02*
Y354042D01*
X212542Y352271D01*
X214904D01*
X399361Y318452D02*
X398771Y319042D01*
X397590D01*
X397000Y318452D01*
Y316090D01*
X397590Y315500D01*
X398771D01*
X399361Y316090D01*
X400542Y318452D02*
X401132Y319042D01*
X402313D01*
X402904Y318452D01*
Y317861D01*
X402313Y317271D01*
X401723D01*
X402313D01*
X402904Y316681D01*
Y316090D01*
X402313Y315500D01*
X401132D01*
X400542Y316090D01*
X367361Y463452D02*
X366771Y464042D01*
X365590D01*
X365000Y463452D01*
Y461090D01*
X365590Y460500D01*
X366771D01*
X367361Y461090D01*
X370904Y460500D02*
X368542D01*
X370904Y462861D01*
Y463452D01*
X370313Y464042D01*
X369132D01*
X368542Y463452D01*
X377361Y368452D02*
X376771Y369042D01*
X375590D01*
X375000Y368452D01*
Y366090D01*
X375590Y365500D01*
X376771D01*
X377361Y366090D01*
X378542Y365500D02*
X379723D01*
X379133D01*
Y369042D01*
X378542Y368452D01*
X390861Y475452D02*
X390271Y476042D01*
X389090D01*
X388500Y475452D01*
Y474861D01*
X389090Y474271D01*
X390271D01*
X390861Y473681D01*
Y473090D01*
X390271Y472500D01*
X389090D01*
X388500Y473090D01*
X394404Y475452D02*
X393813Y476042D01*
X392633D01*
X392042Y475452D01*
Y473090D01*
X392633Y472500D01*
X393813D01*
X394404Y473090D01*
Y474271D01*
X393223D01*
X395584Y472500D02*
X396765D01*
X396175D01*
Y476042D01*
X395584Y475452D01*
X242061Y490542D02*
X240881D01*
X241471D01*
Y487590D01*
X240881Y487000D01*
X240290D01*
X239700Y487590D01*
X243242Y487000D02*
Y490542D01*
X245013D01*
X245604Y489952D01*
Y488771D01*
X245013Y488181D01*
X243242D01*
X249146Y487000D02*
X246784D01*
X249146Y489361D01*
Y489952D01*
X248555Y490542D01*
X247375D01*
X246784Y489952D01*
X365500Y398500D02*
Y402042D01*
X367271D01*
X367861Y401452D01*
Y400271D01*
X367271Y399681D01*
X365500D01*
X366681D02*
X367861Y398500D01*
X369042D02*
X370223D01*
X369633D01*
Y402042D01*
X369042Y401452D01*
X371994D02*
X372584Y402042D01*
X373765D01*
X374355Y401452D01*
Y399090D01*
X373765Y398500D01*
X372584D01*
X371994Y399090D01*
Y401452D01*
X365500Y408000D02*
Y411542D01*
X367271D01*
X367861Y410952D01*
Y409771D01*
X367271Y409181D01*
X365500D01*
X366681D02*
X367861Y408000D01*
X369042D02*
X370223D01*
X369633D01*
Y411542D01*
X369042Y410952D01*
X373765Y408000D02*
Y411542D01*
X371994Y409771D01*
X374355D01*
X365500Y418000D02*
Y421542D01*
X367271D01*
X367861Y420952D01*
Y419771D01*
X367271Y419181D01*
X365500D01*
X366681D02*
X367861Y418000D01*
X371404D02*
X369042D01*
X371404Y420361D01*
Y420952D01*
X370813Y421542D01*
X369633D01*
X369042Y420952D01*
X372584Y418590D02*
X373175Y418000D01*
X374355D01*
X374946Y418590D01*
Y420952D01*
X374355Y421542D01*
X373175D01*
X372584Y420952D01*
Y420361D01*
X373175Y419771D01*
X374946D01*
X369000Y357500D02*
X365458D01*
Y359271D01*
X366048Y359861D01*
X367229D01*
X367819Y359271D01*
Y357500D01*
X365458Y361042D02*
Y363404D01*
X366048D01*
X368410Y361042D01*
X369000D01*
X361000Y354500D02*
Y355681D01*
Y355090D01*
X357458D01*
X358048Y354500D01*
X351000Y355861D02*
Y353500D01*
X348639Y355861D01*
X348048D01*
X347458Y355271D01*
Y354090D01*
X348048Y353500D01*
D32*
X443500Y465500D02*
X444812D01*
X444156D01*
Y469436D01*
X443500Y468780D01*
X449404D02*
X448748Y469436D01*
X447436D01*
X446780Y468780D01*
Y468124D01*
X447436Y467468D01*
X448748D01*
X449404Y466812D01*
Y466156D01*
X448748Y465500D01*
X447436D01*
X446780Y466156D01*
X454651Y469436D02*
Y465500D01*
X457275D01*
X458587D02*
X459899D01*
X459243D01*
Y468124D01*
X458587D01*
X461867Y464188D02*
Y468124D01*
X463835D01*
X464491Y467468D01*
Y466156D01*
X463835Y465500D01*
X461867D01*
X466459D02*
X467770D01*
X468426Y466156D01*
Y467468D01*
X467770Y468124D01*
X466459D01*
X465802Y467468D01*
Y466156D01*
X466459Y465500D01*
X237000Y315500D02*
Y318124D01*
X238312Y319436D01*
X239624Y318124D01*
Y315500D01*
Y317468D01*
X237000D01*
X243560Y319436D02*
Y315500D01*
X241592D01*
X240936Y316156D01*
Y317468D01*
X241592Y318124D01*
X243560D01*
X245527D02*
X246839D01*
X247495Y317468D01*
Y315500D01*
X245527D01*
X244871Y316156D01*
X245527Y316812D01*
X247495D01*
X249463Y315500D02*
Y318780D01*
Y317468D01*
X248807D01*
X250119D01*
X249463D01*
Y318780D01*
X250119Y319436D01*
X252087Y318124D02*
Y315500D01*
Y316812D01*
X252743Y317468D01*
X253399Y318124D01*
X254055D01*
X256023D02*
Y316156D01*
X256679Y315500D01*
X258647D01*
Y318124D01*
X259959Y315500D02*
X261270D01*
X260614D01*
Y318124D01*
X259959D01*
X263894Y318780D02*
Y318124D01*
X263238D01*
X264550D01*
X263894D01*
Y316156D01*
X264550Y315500D01*
X273078Y319436D02*
X270454D01*
Y317468D01*
X271766D01*
X270454D01*
Y315500D01*
X276357D02*
X275045D01*
X274390Y316156D01*
Y317468D01*
X275045Y318124D01*
X276357D01*
X277013Y317468D01*
Y316812D01*
X274390D01*
X278981Y318124D02*
X280293D01*
X280949Y317468D01*
Y315500D01*
X278981D01*
X278325Y316156D01*
X278981Y316812D01*
X280949D01*
X282917Y318780D02*
Y318124D01*
X282261D01*
X283573D01*
X282917D01*
Y316156D01*
X283573Y315500D01*
X285541Y319436D02*
Y315500D01*
Y317468D01*
X286197Y318124D01*
X287509D01*
X288165Y317468D01*
Y315500D01*
X291444D02*
X290132D01*
X289476Y316156D01*
Y317468D01*
X290132Y318124D01*
X291444D01*
X292100Y317468D01*
Y316812D01*
X289476D01*
X293412Y318124D02*
Y315500D01*
Y316812D01*
X294068Y317468D01*
X294724Y318124D01*
X295380D01*
X301284Y315500D02*
Y319436D01*
X302596Y318124D01*
X303908Y319436D01*
Y315500D01*
X305220Y318780D02*
X305875Y319436D01*
X307187D01*
X307843Y318780D01*
Y316156D01*
X307187Y315500D01*
X305875D01*
X305220Y316156D01*
Y318780D01*
X313091Y315500D02*
Y319436D01*
X315059D01*
X315715Y318780D01*
Y317468D01*
X315059Y316812D01*
X313091D01*
X314403D02*
X315715Y315500D01*
X319651Y319436D02*
X317027D01*
Y317468D01*
X318339D01*
X317027D01*
Y315500D01*
X320962D02*
Y319436D01*
X322274Y318124D01*
X323586Y319436D01*
Y315500D01*
X327522Y319436D02*
X326210Y318780D01*
X324898Y317468D01*
Y316156D01*
X325554Y315500D01*
X326866D01*
X327522Y316156D01*
Y316812D01*
X326866Y317468D01*
X324898D01*
X328834Y316156D02*
X329490Y315500D01*
X330802D01*
X331458Y316156D01*
Y318780D01*
X330802Y319436D01*
X329490D01*
X328834Y318780D01*
Y318124D01*
X329490Y317468D01*
X331458D01*
X273500Y370436D02*
Y366500D01*
X276124D01*
X277436D02*
Y370436D01*
X278748Y369124D01*
X280060Y370436D01*
Y366500D01*
X281371Y369780D02*
X282027Y370436D01*
X283339D01*
X283995Y369780D01*
Y369124D01*
X283339Y368468D01*
X282683D01*
X283339D01*
X283995Y367812D01*
Y367156D01*
X283339Y366500D01*
X282027D01*
X281371Y367156D01*
X285307Y369780D02*
X285963Y370436D01*
X287275D01*
X287931Y369780D01*
Y369124D01*
X287275Y368468D01*
X286619D01*
X287275D01*
X287931Y367812D01*
Y367156D01*
X287275Y366500D01*
X285963D01*
X285307Y367156D01*
X289243D02*
X289899Y366500D01*
X291211D01*
X291867Y367156D01*
Y369780D01*
X291211Y370436D01*
X289899D01*
X289243Y369780D01*
Y369124D01*
X289899Y368468D01*
X291867D01*
X293179Y366500D02*
Y370436D01*
X295802Y366500D01*
Y370436D01*
X339064Y359500D02*
Y362124D01*
Y360812D01*
X343000D01*
Y371307D02*
X339064D01*
Y373275D01*
X339720Y373931D01*
X341032D01*
X341688Y373275D01*
Y371307D01*
Y372619D02*
X343000Y373931D01*
Y383114D02*
X339064D01*
X340376Y384426D01*
X339064Y385738D01*
X343000D01*
M02*
