G04 Layer_Physical_Order=2*
G04 Layer_Color=16711680*
%FSLAX25Y25*%
%MOIN*%
G70*
G01*
G75*
%ADD10C,0.02953*%
%ADD11C,0.01378*%
%ADD12C,0.01968*%
%ADD14R,0.03937X0.03937*%
%ADD15C,0.03937*%
%ADD16C,0.04724*%
%ADD17O,0.04331X0.05905*%
G04:AMPARAMS|DCode=18|XSize=59.05mil|YSize=43.31mil|CornerRadius=10.83mil|HoleSize=0mil|Usage=FLASHONLY|Rotation=270.000|XOffset=0mil|YOffset=0mil|HoleType=Round|Shape=RoundedRectangle|*
%AMROUNDEDRECTD18*
21,1,0.05905,0.02165,0,0,270.0*
21,1,0.03740,0.04331,0,0,270.0*
1,1,0.02165,-0.01083,-0.01870*
1,1,0.02165,-0.01083,0.01870*
1,1,0.02165,0.01083,0.01870*
1,1,0.02165,0.01083,-0.01870*
%
%ADD18ROUNDEDRECTD18*%
G04:AMPARAMS|DCode=19|XSize=78.74mil|YSize=78.74mil|CornerRadius=19.68mil|HoleSize=0mil|Usage=FLASHONLY|Rotation=90.000|XOffset=0mil|YOffset=0mil|HoleType=Round|Shape=RoundedRectangle|*
%AMROUNDEDRECTD19*
21,1,0.07874,0.03937,0,0,90.0*
21,1,0.03937,0.07874,0,0,90.0*
1,1,0.03937,0.01968,0.01968*
1,1,0.03937,0.01968,-0.01968*
1,1,0.03937,-0.01968,-0.01968*
1,1,0.03937,-0.01968,0.01968*
%
%ADD19ROUNDEDRECTD19*%
%ADD20C,0.07874*%
%ADD21C,0.05905*%
%ADD22R,0.05905X0.05905*%
%ADD23R,0.05905X0.05905*%
%ADD24C,0.05315*%
%ADD25C,0.03150*%
G36*
X255609Y504232D02*
X254606Y503228D01*
X254281Y503185D01*
X253610Y502907D01*
X253034Y502465D01*
X252593Y501890D01*
X252315Y501219D01*
X252220Y500500D01*
X252315Y499781D01*
X252593Y499110D01*
X253034Y498534D01*
X253610Y498093D01*
X254281Y497815D01*
X255000Y497720D01*
X255719Y497815D01*
X256390Y498093D01*
X256965Y498534D01*
X257407Y499110D01*
X257685Y499781D01*
X257728Y500105D01*
X259355Y501733D01*
X370289D01*
X370481Y501271D01*
X366855Y497645D01*
X365531D01*
X364709Y497537D01*
X363943Y497220D01*
X363285Y496715D01*
X362780Y496057D01*
X362463Y495291D01*
X362355Y494468D01*
Y490531D01*
X362463Y489709D01*
X362780Y488943D01*
X363285Y488285D01*
X363943Y487780D01*
X364709Y487463D01*
X365531Y487355D01*
X369468D01*
X370291Y487463D01*
X371057Y487780D01*
X371715Y488285D01*
X372220Y488943D01*
X372537Y489709D01*
X372645Y490531D01*
Y494468D01*
X372537Y495291D01*
X372404Y495613D01*
X374110Y497320D01*
X384552D01*
X384722Y496820D01*
X383850Y496150D01*
X383029Y495081D01*
X382514Y493836D01*
X382338Y492500D01*
X382514Y491164D01*
X383029Y489919D01*
X383850Y488850D01*
X384919Y488029D01*
X386164Y487514D01*
X387500Y487338D01*
X388712Y487497D01*
X396605Y479605D01*
X397160Y479179D01*
X397806Y478911D01*
X398500Y478820D01*
X398500Y478820D01*
X408890D01*
X410320Y477390D01*
Y467744D01*
X410052Y467539D01*
X409389Y466675D01*
X408973Y465670D01*
X408830Y464591D01*
X408885Y464176D01*
X406393Y461683D01*
X384282D01*
X384238Y461741D01*
X384180Y461785D01*
Y470000D01*
X384089Y470694D01*
X383821Y471340D01*
X383395Y471895D01*
X383395Y471895D01*
X380895Y474395D01*
X380340Y474821D01*
X379694Y475089D01*
X379347Y475135D01*
X379000Y475180D01*
X379000Y475180D01*
X369827D01*
X369287Y475595D01*
X368425Y475952D01*
X367500Y476074D01*
X366575Y475952D01*
X365713Y475595D01*
X365173Y475180D01*
X357625D01*
X357625Y475180D01*
X356931Y475089D01*
X356285Y474821D01*
X355730Y474395D01*
X353582Y472248D01*
X353213Y472095D01*
X352473Y471527D01*
X351905Y470787D01*
X351548Y469925D01*
X351426Y469000D01*
X351548Y468075D01*
X351905Y467213D01*
X352473Y466473D01*
X353213Y465905D01*
X354075Y465548D01*
X355000Y465426D01*
X355925Y465548D01*
X356787Y465905D01*
X357527Y466473D01*
X358095Y467213D01*
X358452Y468075D01*
X358574Y469000D01*
X358520Y469409D01*
X358893Y469820D01*
X365173D01*
X365713Y469405D01*
X366575Y469048D01*
X367500Y468926D01*
X368425Y469048D01*
X369287Y469405D01*
X369827Y469820D01*
X377890D01*
X378820Y468890D01*
Y461785D01*
X378762Y461741D01*
X378147Y460939D01*
X377760Y460005D01*
X377628Y459003D01*
X377760Y458001D01*
X378147Y457067D01*
X378762Y456265D01*
X379564Y455650D01*
X380498Y455263D01*
X381500Y455131D01*
X382502Y455263D01*
X383436Y455650D01*
X384238Y456265D01*
X384282Y456322D01*
X407503D01*
X407503Y456322D01*
X407850Y456368D01*
X408197Y456414D01*
X408843Y456682D01*
X409398Y457108D01*
X412745Y460455D01*
X413000Y460421D01*
X414079Y460563D01*
X415085Y460980D01*
X415948Y461642D01*
X416611Y462506D01*
X417028Y463511D01*
X417170Y464591D01*
X417028Y465670D01*
X416611Y466675D01*
X415948Y467539D01*
X415680Y467744D01*
Y478500D01*
X415680Y478500D01*
X415635Y478847D01*
X415589Y479194D01*
X415321Y479840D01*
X414895Y480395D01*
X411895Y483395D01*
X411340Y483821D01*
X410694Y484089D01*
X410347Y484135D01*
X410000Y484180D01*
X410000Y484180D01*
X399610D01*
X392503Y491288D01*
X392662Y492500D01*
X392486Y493836D01*
X391971Y495081D01*
X391150Y496150D01*
X390278Y496820D01*
X390448Y497320D01*
X404552D01*
X404722Y496820D01*
X403850Y496150D01*
X403029Y495081D01*
X402514Y493836D01*
X402338Y492500D01*
X402514Y491164D01*
X403029Y489919D01*
X403850Y488850D01*
X404919Y488029D01*
X406164Y487514D01*
X407500Y487338D01*
X408836Y487514D01*
X410081Y488029D01*
X411150Y488850D01*
X411971Y489919D01*
X412486Y491164D01*
X412662Y492500D01*
X412486Y493836D01*
X411971Y495081D01*
X411150Y496150D01*
X410278Y496820D01*
X410448Y497320D01*
X412390D01*
X415320Y494390D01*
Y488500D01*
X415320Y488500D01*
X415365Y488153D01*
X415411Y487806D01*
X415679Y487160D01*
X416105Y486605D01*
X423820Y478890D01*
Y440500D01*
X423820Y440500D01*
X423865Y440153D01*
X423911Y439806D01*
X424179Y439160D01*
X424605Y438605D01*
X437585Y425624D01*
X438010Y425298D01*
X440204Y423105D01*
X440759Y422679D01*
X441405Y422411D01*
X441752Y422365D01*
X442099Y422320D01*
X442099Y422320D01*
X444346D01*
X444552Y422052D01*
X445415Y421389D01*
X446421Y420972D01*
X447500Y420830D01*
X448579Y420972D01*
X449585Y421389D01*
X450448Y422052D01*
X451111Y422915D01*
X451528Y423921D01*
X451670Y425000D01*
X451528Y426079D01*
X451111Y427085D01*
X450448Y427948D01*
X449585Y428611D01*
X448579Y429028D01*
X447500Y429170D01*
X446421Y429028D01*
X445415Y428611D01*
X444552Y427948D01*
X444346Y427680D01*
X443209D01*
X441475Y429415D01*
X441049Y429741D01*
X429180Y441610D01*
Y480000D01*
X429180Y480000D01*
X429135Y480347D01*
X429089Y480694D01*
X428821Y481340D01*
X428395Y481895D01*
X428395Y481895D01*
X420680Y489610D01*
Y495500D01*
X420589Y496194D01*
X420321Y496840D01*
X419895Y497395D01*
X416019Y501271D01*
X416211Y501733D01*
X429145D01*
X436792Y494086D01*
Y448500D01*
X436960Y447655D01*
X437439Y446939D01*
X443452Y440925D01*
X443330Y440000D01*
X443472Y438921D01*
X443889Y437915D01*
X444552Y437052D01*
X445415Y436389D01*
X446421Y435972D01*
X447500Y435830D01*
X448579Y435972D01*
X449585Y436389D01*
X450448Y437052D01*
X451111Y437915D01*
X451528Y438921D01*
X451670Y440000D01*
X451528Y441079D01*
X451111Y442085D01*
X450448Y442948D01*
X449585Y443611D01*
X448579Y444028D01*
X447500Y444170D01*
X446575Y444048D01*
X441208Y449414D01*
Y482965D01*
X441708Y483047D01*
X442366Y481110D01*
X443407Y478998D01*
X444716Y477039D01*
X446269Y475269D01*
X448039Y473716D01*
X449998Y472407D01*
X452110Y471365D01*
X454340Y470608D01*
X456650Y470149D01*
X459000Y469995D01*
X459712Y470042D01*
X459933Y469555D01*
X455939Y465561D01*
X455460Y464845D01*
X455292Y464000D01*
Y463517D01*
X454552Y462948D01*
X453889Y462085D01*
X453473Y461079D01*
X453331Y460000D01*
X453473Y458921D01*
X453889Y457915D01*
X454552Y457052D01*
X455415Y456389D01*
X456421Y455972D01*
X457500Y455830D01*
X458579Y455972D01*
X459585Y456389D01*
X460448Y457052D01*
X461111Y457915D01*
X461527Y458921D01*
X461669Y460000D01*
X461527Y461079D01*
X461111Y462085D01*
X460448Y462948D01*
X460253Y463099D01*
X460220Y463597D01*
X462915Y466292D01*
X470085D01*
X471792Y464585D01*
Y461273D01*
X471292Y461174D01*
X470953Y461993D01*
X470319Y462819D01*
X469493Y463453D01*
X468532Y463851D01*
X468000Y463921D01*
Y460000D01*
Y456079D01*
X468532Y456149D01*
X469493Y456547D01*
X470319Y457181D01*
X470953Y458007D01*
X471292Y458826D01*
X471792Y458727D01*
Y451273D01*
X471292Y451174D01*
X470953Y451993D01*
X470319Y452819D01*
X469493Y453453D01*
X468532Y453851D01*
X468000Y453921D01*
Y450000D01*
Y446079D01*
X468532Y446149D01*
X469493Y446547D01*
X470319Y447181D01*
X470953Y448007D01*
X471292Y448826D01*
X471792Y448727D01*
Y444312D01*
X471453Y443953D01*
X471292Y443953D01*
X468000D01*
Y440000D01*
Y436047D01*
X471292D01*
X471453Y436047D01*
X471792Y435688D01*
Y426273D01*
X471292Y426174D01*
X470953Y426993D01*
X470319Y427819D01*
X469493Y428453D01*
X468532Y428851D01*
X468000Y428921D01*
Y425000D01*
Y421079D01*
X468532Y421149D01*
X469493Y421547D01*
X470319Y422181D01*
X470953Y423007D01*
X471292Y423826D01*
X471792Y423727D01*
Y416273D01*
X471292Y416174D01*
X470953Y416993D01*
X470319Y417819D01*
X469493Y418453D01*
X468532Y418851D01*
X468000Y418921D01*
Y415000D01*
Y411079D01*
X468532Y411149D01*
X469493Y411547D01*
X470319Y412181D01*
X470953Y413007D01*
X471292Y413826D01*
X471792Y413727D01*
Y406273D01*
X471292Y406174D01*
X470953Y406993D01*
X470319Y407819D01*
X469493Y408453D01*
X468532Y408851D01*
X468000Y408921D01*
Y405000D01*
Y401079D01*
X468532Y401149D01*
X469493Y401547D01*
X470319Y402181D01*
X470953Y403007D01*
X471292Y403826D01*
X471792Y403727D01*
Y399312D01*
X471453Y398953D01*
X471292Y398953D01*
X468000D01*
Y395000D01*
Y391047D01*
X471292D01*
X471453Y391047D01*
X471792Y390688D01*
Y381273D01*
X471292Y381174D01*
X470953Y381993D01*
X470319Y382819D01*
X469493Y383453D01*
X468532Y383851D01*
X468000Y383921D01*
Y380000D01*
Y376079D01*
X468532Y376149D01*
X469493Y376547D01*
X470319Y377181D01*
X470953Y378007D01*
X471292Y378826D01*
X471792Y378727D01*
Y371273D01*
X471292Y371174D01*
X470953Y371993D01*
X470319Y372819D01*
X469493Y373453D01*
X468532Y373851D01*
X468000Y373921D01*
Y370000D01*
Y366079D01*
X468532Y366149D01*
X469493Y366547D01*
X470319Y367181D01*
X470953Y368007D01*
X471292Y368826D01*
X471792Y368727D01*
Y361273D01*
X471292Y361174D01*
X470953Y361993D01*
X470319Y362819D01*
X469493Y363453D01*
X468532Y363851D01*
X468000Y363921D01*
Y360000D01*
Y356079D01*
X468532Y356149D01*
X469493Y356547D01*
X470319Y357181D01*
X470953Y358007D01*
X471292Y358826D01*
X471792Y358727D01*
Y354312D01*
X471453Y353953D01*
X471292Y353953D01*
X468000D01*
Y350000D01*
Y346047D01*
X471292D01*
X471453Y346047D01*
X471792Y345688D01*
Y343915D01*
X471086Y343208D01*
X462915D01*
X460025Y346097D01*
X460069Y346761D01*
X460448Y347052D01*
X461111Y347915D01*
X461527Y348921D01*
X461669Y350000D01*
X461527Y351079D01*
X461111Y352085D01*
X460448Y352948D01*
X459585Y353611D01*
X458579Y354027D01*
X457500Y354170D01*
X456421Y354027D01*
X455415Y353611D01*
X454552Y352948D01*
X453889Y352085D01*
X453473Y351079D01*
X453331Y350000D01*
X453452Y349075D01*
X447697Y343320D01*
X446862D01*
X446017Y343151D01*
X445301Y342673D01*
X442335Y339708D01*
X440454D01*
X440207Y340208D01*
X440595Y340713D01*
X440952Y341575D01*
X441074Y342500D01*
X440952Y343425D01*
X440595Y344287D01*
X440027Y345027D01*
X439287Y345595D01*
X438425Y345952D01*
X437500Y346074D01*
X436575Y345952D01*
X435713Y345595D01*
X434973Y345027D01*
X434405Y344287D01*
X434048Y343425D01*
X433926Y342500D01*
X434048Y341575D01*
X434405Y340713D01*
X434793Y340208D01*
X434546Y339708D01*
X431415D01*
X422061Y349061D01*
X421345Y349540D01*
X420500Y349708D01*
X420139D01*
X419979Y350208D01*
X420437Y350804D01*
X420776Y351622D01*
X420825Y352000D01*
X414175D01*
X414224Y351622D01*
X414563Y350804D01*
X415021Y350208D01*
X414861Y349708D01*
X392414D01*
X387810Y354312D01*
X388140Y354689D01*
X388304Y354563D01*
X389122Y354224D01*
X389500Y354175D01*
Y357000D01*
X386675D01*
X386724Y356622D01*
X387063Y355804D01*
X387189Y355640D01*
X386812Y355310D01*
X383061Y359061D01*
X382345Y359540D01*
X381500Y359708D01*
X380272D01*
X380027Y360027D01*
X379287Y360595D01*
X378425Y360952D01*
X377500Y361074D01*
X376575Y360952D01*
X375713Y360595D01*
X374973Y360027D01*
X374405Y359287D01*
X374048Y358425D01*
X373926Y357500D01*
X374048Y356575D01*
X374405Y355713D01*
X374973Y354973D01*
X375713Y354405D01*
X376575Y354048D01*
X377500Y353926D01*
X378425Y354048D01*
X379287Y354405D01*
X380027Y354973D01*
X380151Y355134D01*
X380715Y355162D01*
X389939Y345939D01*
X390655Y345460D01*
X391500Y345292D01*
X414152D01*
X414454Y344792D01*
X414341Y344577D01*
X414155Y344540D01*
X413439Y344061D01*
X410399Y341021D01*
X410000Y341074D01*
X409075Y340952D01*
X408213Y340595D01*
X407473Y340027D01*
X406905Y339287D01*
X406548Y338425D01*
X406426Y337500D01*
X406548Y336575D01*
X406905Y335713D01*
X407473Y334973D01*
X408213Y334405D01*
X409075Y334048D01*
X410000Y333926D01*
X410925Y334048D01*
X411787Y334405D01*
X412527Y334973D01*
X413095Y335713D01*
X413452Y336575D01*
X413574Y337500D01*
X413521Y337899D01*
X415325Y339703D01*
X415713Y339405D01*
X416575Y339048D01*
X417500Y338926D01*
X417899Y338979D01*
X425939Y330939D01*
X426655Y330460D01*
X427500Y330292D01*
X434728D01*
X434973Y329973D01*
X435713Y329405D01*
X436575Y329048D01*
X437500Y328926D01*
X438425Y329048D01*
X439287Y329405D01*
X440027Y329973D01*
X440595Y330713D01*
X440952Y331575D01*
X441074Y332500D01*
X440952Y333425D01*
X440595Y334287D01*
X440207Y334792D01*
X440454Y335292D01*
X443250D01*
X444095Y335460D01*
X444811Y335939D01*
X447776Y338904D01*
X448612D01*
X449457Y339072D01*
X450173Y339551D01*
X455037Y344415D01*
X455670Y344341D01*
X455939Y343939D01*
X460439Y339439D01*
X460484Y339409D01*
X460317Y338919D01*
X459000Y339005D01*
X456650Y338851D01*
X454340Y338392D01*
X452110Y337634D01*
X449998Y336593D01*
X448039Y335284D01*
X446269Y333732D01*
X444716Y331961D01*
X443407Y330002D01*
X442366Y327890D01*
X441608Y325660D01*
X441271Y323962D01*
X440751Y323911D01*
X440595Y324287D01*
X440027Y325027D01*
X439287Y325595D01*
X438425Y325952D01*
X437500Y326074D01*
X436575Y325952D01*
X435713Y325595D01*
X434973Y325027D01*
X434405Y324287D01*
X434048Y323425D01*
X433926Y322500D01*
X434048Y321575D01*
X434405Y320713D01*
X434973Y319973D01*
X435713Y319405D01*
X436575Y319048D01*
X437500Y318926D01*
X438425Y319048D01*
X439287Y319405D01*
X440027Y319973D01*
X440519Y320614D01*
X440911Y320552D01*
X441028Y320493D01*
X441149Y318650D01*
X441608Y316340D01*
X442366Y314110D01*
X443407Y311998D01*
X444716Y310039D01*
X446269Y308268D01*
X448039Y306716D01*
X449998Y305407D01*
X452110Y304365D01*
X452304Y304300D01*
X452222Y303806D01*
X227278D01*
X227196Y304300D01*
X227390Y304365D01*
X229503Y305407D01*
X231461Y306716D01*
X233231Y308268D01*
X234784Y310039D01*
X236093Y311998D01*
X237135Y314110D01*
X237892Y316340D01*
X238351Y318650D01*
X238505Y321000D01*
X238365Y323137D01*
X238852Y323358D01*
X247105Y315105D01*
X247660Y314679D01*
X248306Y314411D01*
X249000Y314320D01*
X249000Y314320D01*
X324500D01*
X324500Y314320D01*
X324847Y314365D01*
X325194Y314411D01*
X325840Y314679D01*
X326395Y315105D01*
X333395Y322105D01*
X333395Y322105D01*
X333821Y322660D01*
X334089Y323306D01*
X334180Y324000D01*
Y332000D01*
X334089Y332694D01*
X333821Y333340D01*
X333395Y333895D01*
X333395Y333895D01*
X328625Y338665D01*
X328670Y339000D01*
X328527Y340079D01*
X328111Y341085D01*
X327448Y341948D01*
X326585Y342611D01*
X325579Y343027D01*
X324500Y343169D01*
X323421Y343027D01*
X322415Y342611D01*
X321552Y341948D01*
X320889Y341085D01*
X320473Y340079D01*
X320331Y339000D01*
X320473Y337921D01*
X320889Y336915D01*
X321552Y336052D01*
X322415Y335389D01*
X323421Y334973D01*
X324500Y334830D01*
X324835Y334875D01*
X326538Y333172D01*
X326255Y332748D01*
X325579Y333027D01*
X324500Y333170D01*
X323421Y333027D01*
X322415Y332611D01*
X321552Y331948D01*
X320889Y331085D01*
X320473Y330079D01*
X320331Y329000D01*
X320473Y327921D01*
X320889Y326915D01*
X321552Y326052D01*
X322415Y325389D01*
X323421Y324973D01*
X324500Y324831D01*
X325579Y324973D01*
X326585Y325389D01*
X327448Y326052D01*
X328111Y326915D01*
X328320Y327419D01*
X328820Y327320D01*
Y325110D01*
X323390Y319680D01*
X250110D01*
X242180Y327610D01*
Y329567D01*
X242680Y329814D01*
X243213Y329405D01*
X244075Y329048D01*
X245000Y328926D01*
X245925Y329048D01*
X246787Y329405D01*
X247527Y329973D01*
X248095Y330713D01*
X248452Y331575D01*
X248574Y332500D01*
X248452Y333425D01*
X248095Y334287D01*
X247527Y335027D01*
X246787Y335595D01*
X245925Y335952D01*
X245000Y336074D01*
X244075Y335952D01*
X243213Y335595D01*
X242680Y335186D01*
X242180Y335433D01*
Y343500D01*
X242089Y344194D01*
X241821Y344840D01*
X241395Y345395D01*
X235395Y351395D01*
X234840Y351821D01*
X234194Y352089D01*
X233847Y352135D01*
X233500Y352180D01*
X233500Y352180D01*
X226610D01*
X216041Y362750D01*
X215952Y363425D01*
X215595Y364287D01*
X215027Y365027D01*
X214287Y365595D01*
X213425Y365952D01*
X212500Y366074D01*
X211575Y365952D01*
X210713Y365595D01*
X209973Y365027D01*
X209405Y364287D01*
X209048Y363425D01*
X208926Y362500D01*
X209048Y361575D01*
X209405Y360713D01*
X209973Y359973D01*
X210713Y359405D01*
X211575Y359048D01*
X212250Y358959D01*
X223605Y347605D01*
X223605Y347605D01*
X224160Y347179D01*
X224538Y347022D01*
X224806Y346911D01*
X225153Y346865D01*
X225500Y346820D01*
X225500Y346820D01*
X232390D01*
X236820Y342390D01*
Y329630D01*
X236333Y329516D01*
X236093Y330002D01*
X234784Y331961D01*
X233231Y333732D01*
X231461Y335284D01*
X229503Y336593D01*
X227390Y337634D01*
X225160Y338392D01*
X222850Y338851D01*
X220500Y339005D01*
X218150Y338851D01*
X215840Y338392D01*
X213610Y337634D01*
X211497Y336593D01*
X209539Y335284D01*
X207769Y333732D01*
X206216Y331961D01*
X204907Y330002D01*
X204306Y328784D01*
X203806Y328901D01*
Y480099D01*
X204306Y480216D01*
X204907Y478998D01*
X206216Y477039D01*
X207769Y475269D01*
X209539Y473716D01*
X211497Y472407D01*
X213610Y471365D01*
X215840Y470608D01*
X218150Y470149D01*
X220500Y469995D01*
X222850Y470149D01*
X225160Y470608D01*
X227390Y471365D01*
X229503Y472407D01*
X231461Y473716D01*
X233231Y475269D01*
X234784Y477039D01*
X236093Y478998D01*
X237135Y481110D01*
X237892Y483340D01*
X238351Y485650D01*
X238505Y488000D01*
X238351Y490350D01*
X237892Y492660D01*
X237135Y494890D01*
X236093Y497003D01*
X234784Y498961D01*
X233231Y500732D01*
X231461Y502284D01*
X229503Y503593D01*
X228284Y504194D01*
X228401Y504694D01*
X255418D01*
X255609Y504232D01*
D02*
G37*
%LPC*%
G36*
X447500Y364170D02*
X446421Y364027D01*
X445415Y363611D01*
X444552Y362948D01*
X443889Y362085D01*
X443472Y361079D01*
X443330Y360000D01*
X443472Y358921D01*
X443889Y357915D01*
X444552Y357052D01*
X445415Y356389D01*
X446421Y355973D01*
X447500Y355831D01*
X448579Y355973D01*
X449585Y356389D01*
X450448Y357052D01*
X451111Y357915D01*
X451528Y358921D01*
X451670Y360000D01*
X451528Y361079D01*
X451111Y362085D01*
X450448Y362948D01*
X449585Y363611D01*
X448579Y364027D01*
X447500Y364170D01*
D02*
G37*
G36*
X410000Y401074D02*
X409075Y400952D01*
X408213Y400595D01*
X407473Y400027D01*
X406905Y399287D01*
X406548Y398425D01*
X406426Y397500D01*
X406548Y396575D01*
X406905Y395713D01*
X407473Y394973D01*
X408213Y394405D01*
X409075Y394048D01*
X410000Y393926D01*
X410925Y394048D01*
X411787Y394405D01*
X412527Y394973D01*
X412772Y395292D01*
X414546D01*
X414793Y394792D01*
X414405Y394287D01*
X414048Y393425D01*
X413926Y392500D01*
X414048Y391575D01*
X414405Y390713D01*
X414973Y389973D01*
X415713Y389405D01*
X416575Y389048D01*
X417500Y388926D01*
X418425Y389048D01*
X419287Y389405D01*
X420027Y389973D01*
X420595Y390713D01*
X420952Y391575D01*
X421074Y392500D01*
X420952Y393425D01*
X420595Y394287D01*
X420207Y394792D01*
X420454Y395292D01*
X431586D01*
X433979Y392899D01*
X433926Y392500D01*
X434048Y391575D01*
X434405Y390713D01*
X434973Y389973D01*
X435713Y389405D01*
X436575Y389048D01*
X437500Y388926D01*
X437899Y388979D01*
X440439Y386439D01*
X441155Y385960D01*
X442000Y385792D01*
X452586D01*
X454780Y383597D01*
X454747Y383099D01*
X454552Y382948D01*
X453889Y382085D01*
X453473Y381079D01*
X453331Y380000D01*
X453473Y378921D01*
X453889Y377915D01*
X454552Y377052D01*
X455292Y376483D01*
Y373517D01*
X454552Y372948D01*
X453889Y372085D01*
X453473Y371079D01*
X453331Y370000D01*
X453473Y368921D01*
X453889Y367915D01*
X454552Y367052D01*
X455292Y366483D01*
Y363516D01*
X454552Y362948D01*
X453889Y362085D01*
X453473Y361079D01*
X453331Y360000D01*
X453473Y358921D01*
X453889Y357915D01*
X454552Y357052D01*
X455415Y356389D01*
X456421Y355973D01*
X457500Y355831D01*
X458579Y355973D01*
X459585Y356389D01*
X460448Y357052D01*
X461111Y357915D01*
X461527Y358921D01*
X461669Y360000D01*
X461527Y361079D01*
X461111Y362085D01*
X460448Y362948D01*
X459708Y363516D01*
Y366483D01*
X460448Y367052D01*
X461111Y367915D01*
X461527Y368921D01*
X461669Y370000D01*
X461527Y371079D01*
X461111Y372085D01*
X460448Y372948D01*
X459708Y373517D01*
Y376483D01*
X460448Y377052D01*
X461111Y377915D01*
X461527Y378921D01*
X461669Y380000D01*
X461527Y381079D01*
X461111Y382085D01*
X460448Y382948D01*
X459708Y383517D01*
Y384000D01*
X459540Y384845D01*
X459061Y385561D01*
X455061Y389561D01*
X454345Y390040D01*
X453500Y390208D01*
X442914D01*
X441021Y392101D01*
X441074Y392500D01*
X440952Y393425D01*
X440595Y394287D01*
X440027Y395027D01*
X439287Y395595D01*
X438425Y395952D01*
X437500Y396074D01*
X437101Y396021D01*
X434061Y399061D01*
X433345Y399540D01*
X432500Y399708D01*
X412772D01*
X412527Y400027D01*
X411787Y400595D01*
X410925Y400952D01*
X410000Y401074D01*
D02*
G37*
G36*
X393325Y357000D02*
X390500D01*
Y354175D01*
X390878Y354224D01*
X391696Y354563D01*
X392398Y355102D01*
X392937Y355804D01*
X393276Y356622D01*
X393325Y357000D01*
D02*
G37*
G36*
X324000Y358500D02*
X320579D01*
X320649Y357968D01*
X321047Y357007D01*
X321681Y356181D01*
X322507Y355547D01*
X323468Y355149D01*
X324000Y355079D01*
Y358500D01*
D02*
G37*
G36*
X328421D02*
X325000D01*
Y355079D01*
X325532Y355149D01*
X326493Y355547D01*
X327319Y356181D01*
X327953Y357007D01*
X328351Y357968D01*
X328421Y358500D01*
D02*
G37*
G36*
X467000Y359500D02*
X463579D01*
X463649Y358968D01*
X464047Y358007D01*
X464681Y357181D01*
X465507Y356547D01*
X466468Y356149D01*
X467000Y356079D01*
Y359500D01*
D02*
G37*
G36*
X362953Y362000D02*
X359500D01*
Y358547D01*
X362953D01*
Y362000D01*
D02*
G37*
G36*
X437500Y366074D02*
X436575Y365952D01*
X435713Y365595D01*
X434973Y365027D01*
X434405Y364287D01*
X434048Y363425D01*
X433926Y362500D01*
X434048Y361575D01*
X434405Y360713D01*
X434973Y359973D01*
X435713Y359405D01*
X436575Y359048D01*
X437500Y358926D01*
X438425Y359048D01*
X439287Y359405D01*
X440027Y359973D01*
X440595Y360713D01*
X440952Y361575D01*
X441074Y362500D01*
X440952Y363425D01*
X440595Y364287D01*
X440027Y365027D01*
X439287Y365595D01*
X438425Y365952D01*
X437500Y366074D01*
D02*
G37*
G36*
X229500Y362000D02*
X226675D01*
X226724Y361622D01*
X227063Y360804D01*
X227602Y360102D01*
X228304Y359563D01*
X229122Y359224D01*
X229500Y359175D01*
Y362000D01*
D02*
G37*
G36*
X389500Y360825D02*
X389122Y360776D01*
X388304Y360437D01*
X387602Y359898D01*
X387063Y359196D01*
X386724Y358378D01*
X386675Y358000D01*
X389500D01*
Y360825D01*
D02*
G37*
G36*
X390500D02*
Y358000D01*
X393325D01*
X393276Y358378D01*
X392937Y359196D01*
X392398Y359898D01*
X391696Y360437D01*
X390878Y360776D01*
X390500Y360825D01*
D02*
G37*
G36*
X358500Y362000D02*
X355047D01*
Y358547D01*
X358500D01*
Y362000D01*
D02*
G37*
G36*
X295000Y356074D02*
X294075Y355952D01*
X293213Y355595D01*
X292473Y355027D01*
X291905Y354287D01*
X291548Y353425D01*
X291426Y352500D01*
X291548Y351575D01*
X291905Y350713D01*
X292473Y349973D01*
X293213Y349405D01*
X294075Y349048D01*
X295000Y348926D01*
X295925Y349048D01*
X296787Y349405D01*
X297527Y349973D01*
X298095Y350713D01*
X298452Y351575D01*
X298574Y352500D01*
X298452Y353425D01*
X298095Y354287D01*
X297527Y355027D01*
X296787Y355595D01*
X295925Y355952D01*
X295000Y356074D01*
D02*
G37*
G36*
X307500D02*
X306575Y355952D01*
X305713Y355595D01*
X304973Y355027D01*
X304405Y354287D01*
X304048Y353425D01*
X303926Y352500D01*
X304048Y351575D01*
X304405Y350713D01*
X304973Y349973D01*
X305713Y349405D01*
X306575Y349048D01*
X307500Y348926D01*
X308425Y349048D01*
X309287Y349405D01*
X310027Y349973D01*
X310595Y350713D01*
X310952Y351575D01*
X311074Y352500D01*
X310952Y353425D01*
X310595Y354287D01*
X310027Y355027D01*
X309287Y355595D01*
X308425Y355952D01*
X307500Y356074D01*
D02*
G37*
G36*
X244500Y352000D02*
X241675D01*
X241724Y351622D01*
X242063Y350804D01*
X242602Y350102D01*
X243304Y349563D01*
X244122Y349224D01*
X244500Y349175D01*
Y352000D01*
D02*
G37*
G36*
X257500Y356074D02*
X256575Y355952D01*
X255713Y355595D01*
X254973Y355027D01*
X254405Y354287D01*
X254048Y353425D01*
X253926Y352500D01*
X254048Y351575D01*
X254405Y350713D01*
X254973Y349973D01*
X255713Y349405D01*
X256575Y349048D01*
X257500Y348926D01*
X258425Y349048D01*
X259287Y349405D01*
X260027Y349973D01*
X260595Y350713D01*
X260952Y351575D01*
X261074Y352500D01*
X260952Y353425D01*
X260595Y354287D01*
X260027Y355027D01*
X259287Y355595D01*
X258425Y355952D01*
X257500Y356074D01*
D02*
G37*
G36*
X270000D02*
X269075Y355952D01*
X268213Y355595D01*
X267473Y355027D01*
X266905Y354287D01*
X266548Y353425D01*
X266426Y352500D01*
X266548Y351575D01*
X266905Y350713D01*
X267473Y349973D01*
X268213Y349405D01*
X269075Y349048D01*
X270000Y348926D01*
X270925Y349048D01*
X271787Y349405D01*
X272527Y349973D01*
X273095Y350713D01*
X273452Y351575D01*
X273574Y352500D01*
X273452Y353425D01*
X273095Y354287D01*
X272527Y355027D01*
X271787Y355595D01*
X270925Y355952D01*
X270000Y356074D01*
D02*
G37*
G36*
X282500D02*
X281575Y355952D01*
X280713Y355595D01*
X279973Y355027D01*
X279405Y354287D01*
X279048Y353425D01*
X278926Y352500D01*
X279048Y351575D01*
X279405Y350713D01*
X279973Y349973D01*
X280713Y349405D01*
X281575Y349048D01*
X282500Y348926D01*
X283425Y349048D01*
X284287Y349405D01*
X285027Y349973D01*
X285595Y350713D01*
X285952Y351575D01*
X286074Y352500D01*
X285952Y353425D01*
X285595Y354287D01*
X285027Y355027D01*
X284287Y355595D01*
X283425Y355952D01*
X282500Y356074D01*
D02*
G37*
G36*
X417000Y355825D02*
X416622Y355776D01*
X415804Y355437D01*
X415102Y354898D01*
X414563Y354196D01*
X414224Y353378D01*
X414175Y353000D01*
X417000D01*
Y355825D01*
D02*
G37*
G36*
X418000D02*
Y353000D01*
X420825D01*
X420776Y353378D01*
X420437Y354196D01*
X419898Y354898D01*
X419196Y355437D01*
X418378Y355776D01*
X418000Y355825D01*
D02*
G37*
G36*
X245500D02*
Y353000D01*
X248325D01*
X248276Y353378D01*
X247937Y354196D01*
X247398Y354898D01*
X246696Y355437D01*
X245878Y355776D01*
X245500Y355825D01*
D02*
G37*
G36*
X248325Y352000D02*
X245500D01*
Y349175D01*
X245878Y349224D01*
X246696Y349563D01*
X247398Y350102D01*
X247937Y350804D01*
X248276Y351622D01*
X248325Y352000D01*
D02*
G37*
G36*
X467000Y353953D02*
X463547D01*
Y350500D01*
X467000D01*
Y353953D01*
D02*
G37*
G36*
X244500Y355825D02*
X244122Y355776D01*
X243304Y355437D01*
X242602Y354898D01*
X242063Y354196D01*
X241724Y353378D01*
X241675Y353000D01*
X244500D01*
Y355825D01*
D02*
G37*
G36*
X467000Y373921D02*
X466468Y373851D01*
X465507Y373453D01*
X464681Y372819D01*
X464047Y371993D01*
X463649Y371032D01*
X463579Y370500D01*
X467000D01*
Y373921D01*
D02*
G37*
G36*
X358500Y376421D02*
X357968Y376351D01*
X357007Y375953D01*
X356181Y375319D01*
X355547Y374493D01*
X355149Y373532D01*
X355079Y373000D01*
X358500D01*
Y376421D01*
D02*
G37*
G36*
X417000Y375825D02*
X416622Y375776D01*
X415804Y375437D01*
X415102Y374898D01*
X414563Y374196D01*
X414224Y373378D01*
X414175Y373000D01*
X417000D01*
Y375825D01*
D02*
G37*
G36*
X213921Y372500D02*
X210500D01*
Y369079D01*
X211032Y369149D01*
X211993Y369547D01*
X212819Y370181D01*
X213453Y371007D01*
X213851Y371968D01*
X213921Y372500D01*
D02*
G37*
G36*
X417000Y372000D02*
X414175D01*
X414224Y371622D01*
X414563Y370804D01*
X415102Y370102D01*
X415804Y369563D01*
X416622Y369224D01*
X417000Y369175D01*
Y372000D01*
D02*
G37*
G36*
X420825D02*
X418000D01*
Y369175D01*
X418378Y369224D01*
X419196Y369563D01*
X419898Y370102D01*
X420437Y370804D01*
X420776Y371622D01*
X420825Y372000D01*
D02*
G37*
G36*
X210500Y376921D02*
Y373500D01*
X213921D01*
X213851Y374032D01*
X213453Y374993D01*
X212819Y375819D01*
X211993Y376453D01*
X211032Y376851D01*
X210500Y376921D01*
D02*
G37*
G36*
X377000Y377000D02*
X374175D01*
X374224Y376622D01*
X374563Y375804D01*
X375102Y375102D01*
X375804Y374563D01*
X376622Y374224D01*
X377000Y374175D01*
Y377000D01*
D02*
G37*
G36*
X389500D02*
X386675D01*
X386724Y376622D01*
X387063Y375804D01*
X387602Y375102D01*
X388304Y374563D01*
X389122Y374224D01*
X389500Y374175D01*
Y377000D01*
D02*
G37*
G36*
X418000Y375825D02*
Y373000D01*
X420825D01*
X420776Y373378D01*
X420437Y374196D01*
X419898Y374898D01*
X419196Y375437D01*
X418378Y375776D01*
X418000Y375825D01*
D02*
G37*
G36*
X359500Y376421D02*
Y373000D01*
X362921D01*
X362851Y373532D01*
X362453Y374493D01*
X361819Y375319D01*
X360993Y375953D01*
X360032Y376351D01*
X359500Y376421D01*
D02*
G37*
G36*
X209500Y376921D02*
X208968Y376851D01*
X208007Y376453D01*
X207181Y375819D01*
X206547Y374993D01*
X206149Y374032D01*
X206079Y373500D01*
X209500D01*
Y376921D01*
D02*
G37*
G36*
X229500Y365825D02*
X229122Y365776D01*
X228304Y365437D01*
X227602Y364898D01*
X227063Y364196D01*
X226724Y363378D01*
X226675Y363000D01*
X229500D01*
Y365825D01*
D02*
G37*
G36*
X230500D02*
Y363000D01*
X233325D01*
X233276Y363378D01*
X232937Y364196D01*
X232398Y364898D01*
X231696Y365437D01*
X230878Y365776D01*
X230500Y365825D01*
D02*
G37*
G36*
X362953Y366453D02*
X359500D01*
Y363000D01*
X362953D01*
Y366453D01*
D02*
G37*
G36*
X233325Y362000D02*
X230500D01*
Y359175D01*
X230878Y359224D01*
X231696Y359563D01*
X232398Y360102D01*
X232937Y360804D01*
X233276Y361622D01*
X233325Y362000D01*
D02*
G37*
G36*
X467000Y363921D02*
X466468Y363851D01*
X465507Y363453D01*
X464681Y362819D01*
X464047Y361993D01*
X463649Y361032D01*
X463579Y360500D01*
X467000D01*
Y363921D01*
D02*
G37*
G36*
X358500Y366453D02*
X355047D01*
Y363000D01*
X358500D01*
Y366453D01*
D02*
G37*
G36*
Y372000D02*
X355079D01*
X355149Y371468D01*
X355547Y370507D01*
X356181Y369681D01*
X357007Y369047D01*
X357968Y368649D01*
X358500Y368579D01*
Y372000D01*
D02*
G37*
G36*
X362921D02*
X359500D01*
Y368579D01*
X360032Y368649D01*
X360993Y369047D01*
X361819Y369681D01*
X362453Y370507D01*
X362851Y371468D01*
X362921Y372000D01*
D02*
G37*
G36*
X209500Y372500D02*
X206079D01*
X206149Y371968D01*
X206547Y371007D01*
X207181Y370181D01*
X208007Y369547D01*
X208968Y369149D01*
X209500Y369079D01*
Y372500D01*
D02*
G37*
G36*
X231500Y386574D02*
X230575Y386452D01*
X229713Y386095D01*
X228973Y385527D01*
X228405Y384787D01*
X228048Y383925D01*
X227926Y383000D01*
X228048Y382075D01*
X228405Y381213D01*
X228973Y380473D01*
X229713Y379905D01*
X230575Y379548D01*
X231500Y379426D01*
X232275Y379528D01*
X238975Y372829D01*
X239593Y372416D01*
X240323Y372270D01*
X240366D01*
Y365356D01*
X240366Y364963D01*
X239944Y364678D01*
X223797Y380825D01*
X224095Y381213D01*
X224452Y382075D01*
X224574Y383000D01*
X224452Y383925D01*
X224095Y384787D01*
X223527Y385527D01*
X222787Y386095D01*
X221925Y386452D01*
X221000Y386574D01*
X220075Y386452D01*
X219213Y386095D01*
X218473Y385527D01*
X217905Y384787D01*
X217548Y383925D01*
X217426Y383000D01*
X217548Y382075D01*
X217905Y381213D01*
X218473Y380473D01*
X218856Y380179D01*
X218960Y379655D01*
X219439Y378939D01*
X239439Y358939D01*
X240155Y358460D01*
X241000Y358292D01*
X271500D01*
X272345Y358460D01*
X273061Y358939D01*
X285894Y371772D01*
X286219Y371815D01*
X286890Y372093D01*
X287466Y372534D01*
X287907Y373110D01*
X288185Y373781D01*
X288280Y374500D01*
X288185Y375219D01*
X287907Y375890D01*
X287466Y376466D01*
X286890Y376907D01*
X286219Y377185D01*
X285500Y377280D01*
X284781Y377185D01*
X284110Y376907D01*
X283535Y376466D01*
X283093Y375890D01*
X282815Y375219D01*
X282772Y374894D01*
X270585Y362708D01*
X241915D01*
X240178Y364444D01*
X240463Y364866D01*
X240826Y364866D01*
X248634D01*
Y372270D01*
X257989D01*
X258034Y372212D01*
X258610Y371770D01*
X259281Y371492D01*
X260000Y371397D01*
X260719Y371492D01*
X261390Y371770D01*
X261965Y372212D01*
X262407Y372787D01*
X262685Y373458D01*
X262780Y374177D01*
X262685Y374897D01*
X262407Y375567D01*
X261965Y376143D01*
X261390Y376584D01*
X260719Y376862D01*
X260000Y376957D01*
X259281Y376862D01*
X258610Y376584D01*
X258034Y376143D01*
X257989Y376084D01*
X248038D01*
X247817Y376532D01*
X248111Y376915D01*
X248527Y377921D01*
X248670Y379000D01*
X248527Y380079D01*
X248111Y381085D01*
X247448Y381948D01*
X246585Y382611D01*
X245579Y383027D01*
X244500Y383170D01*
X243421Y383027D01*
X242415Y382611D01*
X241552Y381948D01*
X240889Y381085D01*
X240473Y380079D01*
X240331Y379000D01*
X240473Y377921D01*
X240819Y377085D01*
X240395Y376801D01*
X234972Y382225D01*
X235074Y383000D01*
X234952Y383925D01*
X234595Y384787D01*
X234027Y385527D01*
X233287Y386095D01*
X232425Y386452D01*
X231500Y386574D01*
D02*
G37*
G36*
X447500Y374169D02*
X446421Y374027D01*
X445415Y373611D01*
X444552Y372948D01*
X443889Y372085D01*
X443472Y371079D01*
X443330Y370000D01*
X443472Y368921D01*
X443889Y367915D01*
X444552Y367052D01*
X445415Y366389D01*
X446421Y365973D01*
X447500Y365830D01*
X448579Y365973D01*
X449585Y366389D01*
X450448Y367052D01*
X451111Y367915D01*
X451528Y368921D01*
X451670Y370000D01*
X451528Y371079D01*
X451111Y372085D01*
X450448Y372948D01*
X449585Y373611D01*
X448579Y374027D01*
X447500Y374169D01*
D02*
G37*
G36*
X467000Y369500D02*
X463579D01*
X463649Y368968D01*
X464047Y368007D01*
X464681Y367181D01*
X465507Y366547D01*
X466468Y366149D01*
X467000Y366079D01*
Y369500D01*
D02*
G37*
G36*
Y349500D02*
X463547D01*
Y346047D01*
X467000D01*
Y349500D01*
D02*
G37*
G36*
X377500Y328574D02*
X376575Y328452D01*
X375713Y328095D01*
X374973Y327527D01*
X374405Y326787D01*
X374048Y325925D01*
X373926Y325000D01*
X374048Y324075D01*
X374405Y323213D01*
X374973Y322473D01*
X375713Y321905D01*
X376575Y321548D01*
X377500Y321426D01*
X378425Y321548D01*
X379287Y321905D01*
X380027Y322473D01*
X380595Y323213D01*
X380952Y324075D01*
X381074Y325000D01*
X380952Y325925D01*
X380595Y326787D01*
X380027Y327527D01*
X379287Y328095D01*
X378425Y328452D01*
X377500Y328574D01*
D02*
G37*
G36*
X257500Y336074D02*
X256575Y335952D01*
X255713Y335595D01*
X254973Y335027D01*
X254405Y334287D01*
X254048Y333425D01*
X253926Y332500D01*
X254048Y331575D01*
X254405Y330713D01*
X254973Y329973D01*
X255713Y329405D01*
X256575Y329048D01*
X257500Y328926D01*
X258425Y329048D01*
X259287Y329405D01*
X260027Y329973D01*
X260595Y330713D01*
X260952Y331575D01*
X261074Y332500D01*
X260952Y333425D01*
X260595Y334287D01*
X260027Y335027D01*
X259287Y335595D01*
X258425Y335952D01*
X257500Y336074D01*
D02*
G37*
G36*
X270000D02*
X269075Y335952D01*
X268213Y335595D01*
X267473Y335027D01*
X266905Y334287D01*
X266548Y333425D01*
X266426Y332500D01*
X266548Y331575D01*
X266905Y330713D01*
X267473Y329973D01*
X268213Y329405D01*
X269075Y329048D01*
X270000Y328926D01*
X270925Y329048D01*
X271787Y329405D01*
X272527Y329973D01*
X273095Y330713D01*
X273452Y331575D01*
X273574Y332500D01*
X273452Y333425D01*
X273095Y334287D01*
X272527Y335027D01*
X271787Y335595D01*
X270925Y335952D01*
X270000Y336074D01*
D02*
G37*
G36*
X417500Y326074D02*
X416575Y325952D01*
X415713Y325595D01*
X414973Y325027D01*
X414679Y324644D01*
X414155Y324540D01*
X413439Y324061D01*
X410399Y321021D01*
X410000Y321074D01*
X409075Y320952D01*
X408213Y320595D01*
X407473Y320027D01*
X406905Y319287D01*
X406548Y318425D01*
X406426Y317500D01*
X406548Y316575D01*
X406905Y315713D01*
X407473Y314973D01*
X408213Y314405D01*
X409075Y314048D01*
X410000Y313926D01*
X410925Y314048D01*
X411787Y314405D01*
X412527Y314973D01*
X413095Y315713D01*
X413452Y316575D01*
X413574Y317500D01*
X413521Y317899D01*
X415325Y319703D01*
X415713Y319405D01*
X416575Y319048D01*
X417500Y318926D01*
X418425Y319048D01*
X419287Y319405D01*
X420027Y319973D01*
X420272Y320292D01*
X426585D01*
X433979Y312899D01*
X433926Y312500D01*
X434048Y311575D01*
X434405Y310713D01*
X434973Y309973D01*
X435713Y309405D01*
X436575Y309048D01*
X437500Y308926D01*
X438425Y309048D01*
X439287Y309405D01*
X440027Y309973D01*
X440595Y310713D01*
X440952Y311575D01*
X441074Y312500D01*
X440952Y313425D01*
X440595Y314287D01*
X440027Y315027D01*
X439287Y315595D01*
X438425Y315952D01*
X437500Y316074D01*
X437101Y316021D01*
X429061Y324061D01*
X428345Y324540D01*
X427500Y324708D01*
X420272D01*
X420027Y325027D01*
X419287Y325595D01*
X418425Y325952D01*
X417500Y326074D01*
D02*
G37*
G36*
X340000Y328574D02*
X339075Y328452D01*
X338213Y328095D01*
X337473Y327527D01*
X336905Y326787D01*
X336548Y325925D01*
X336426Y325000D01*
X336548Y324075D01*
X336905Y323213D01*
X337473Y322473D01*
X338213Y321905D01*
X339075Y321548D01*
X340000Y321426D01*
X340925Y321548D01*
X341787Y321905D01*
X342527Y322473D01*
X343095Y323213D01*
X343452Y324075D01*
X343574Y325000D01*
X343452Y325925D01*
X343095Y326787D01*
X342527Y327527D01*
X341787Y328095D01*
X340925Y328452D01*
X340000Y328574D01*
D02*
G37*
G36*
X359000D02*
X358075Y328452D01*
X357213Y328095D01*
X356473Y327527D01*
X355905Y326787D01*
X355548Y325925D01*
X355426Y325000D01*
X355548Y324075D01*
X355905Y323213D01*
X356473Y322473D01*
X357213Y321905D01*
X358075Y321548D01*
X359000Y321426D01*
X359925Y321548D01*
X360787Y321905D01*
X361527Y322473D01*
X362095Y323213D01*
X362452Y324075D01*
X362574Y325000D01*
X362452Y325925D01*
X362095Y326787D01*
X361527Y327527D01*
X360787Y328095D01*
X359925Y328452D01*
X359000Y328574D01*
D02*
G37*
G36*
X417000Y332000D02*
X414175D01*
X414224Y331622D01*
X414563Y330804D01*
X415102Y330102D01*
X415804Y329563D01*
X416622Y329224D01*
X417000Y329175D01*
Y332000D01*
D02*
G37*
G36*
X420825D02*
X418000D01*
Y329175D01*
X418378Y329224D01*
X419196Y329563D01*
X419898Y330102D01*
X420437Y330804D01*
X420776Y331622D01*
X420825Y332000D01*
D02*
G37*
G36*
X417000Y335825D02*
X416622Y335776D01*
X415804Y335437D01*
X415102Y334898D01*
X414563Y334196D01*
X414224Y333378D01*
X414175Y333000D01*
X417000D01*
Y335825D01*
D02*
G37*
G36*
X282500Y336074D02*
X281575Y335952D01*
X280713Y335595D01*
X279973Y335027D01*
X279405Y334287D01*
X279048Y333425D01*
X278926Y332500D01*
X279048Y331575D01*
X279405Y330713D01*
X279973Y329973D01*
X280713Y329405D01*
X281575Y329048D01*
X282500Y328926D01*
X283425Y329048D01*
X284287Y329405D01*
X285027Y329973D01*
X285595Y330713D01*
X285952Y331575D01*
X286074Y332500D01*
X285952Y333425D01*
X285595Y334287D01*
X285027Y335027D01*
X284287Y335595D01*
X283425Y335952D01*
X282500Y336074D01*
D02*
G37*
G36*
X295000D02*
X294075Y335952D01*
X293213Y335595D01*
X292473Y335027D01*
X291905Y334287D01*
X291548Y333425D01*
X291426Y332500D01*
X291548Y331575D01*
X291905Y330713D01*
X292473Y329973D01*
X293213Y329405D01*
X294075Y329048D01*
X295000Y328926D01*
X295925Y329048D01*
X296787Y329405D01*
X297527Y329973D01*
X298095Y330713D01*
X298452Y331575D01*
X298574Y332500D01*
X298452Y333425D01*
X298095Y334287D01*
X297527Y335027D01*
X296787Y335595D01*
X295925Y335952D01*
X295000Y336074D01*
D02*
G37*
G36*
X307500D02*
X306575Y335952D01*
X305713Y335595D01*
X304973Y335027D01*
X304405Y334287D01*
X304048Y333425D01*
X303926Y332500D01*
X304048Y331575D01*
X304405Y330713D01*
X304973Y329973D01*
X305713Y329405D01*
X306575Y329048D01*
X307500Y328926D01*
X308425Y329048D01*
X309287Y329405D01*
X310027Y329973D01*
X310595Y330713D01*
X310952Y331575D01*
X311074Y332500D01*
X310952Y333425D01*
X310595Y334287D01*
X310027Y335027D01*
X309287Y335595D01*
X308425Y335952D01*
X307500Y336074D01*
D02*
G37*
G36*
X417000Y315825D02*
X416622Y315776D01*
X415804Y315437D01*
X415102Y314898D01*
X414563Y314196D01*
X414224Y313378D01*
X414175Y313000D01*
X417000D01*
Y315825D01*
D02*
G37*
G36*
X418000D02*
Y313000D01*
X420825D01*
X420776Y313378D01*
X420437Y314196D01*
X419898Y314898D01*
X419196Y315437D01*
X418378Y315776D01*
X418000Y315825D01*
D02*
G37*
G36*
X389500Y317000D02*
X386675D01*
X386724Y316622D01*
X387063Y315804D01*
X387602Y315102D01*
X388304Y314563D01*
X389122Y314224D01*
X389500Y314175D01*
Y317000D01*
D02*
G37*
G36*
X417000Y312000D02*
X414175D01*
X414224Y311622D01*
X414563Y310804D01*
X415102Y310102D01*
X415804Y309563D01*
X416622Y309224D01*
X417000Y309175D01*
Y312000D01*
D02*
G37*
G36*
X420825D02*
X418000D01*
Y309175D01*
X418378Y309224D01*
X419196Y309563D01*
X419898Y310102D01*
X420437Y310804D01*
X420776Y311622D01*
X420825Y312000D01*
D02*
G37*
G36*
X346689Y314500D02*
X343996D01*
Y314213D01*
X344105Y313386D01*
X344424Y312616D01*
X344931Y311955D01*
X345593Y311448D01*
X346363Y311129D01*
X346689Y311086D01*
Y314500D01*
D02*
G37*
G36*
X389500Y320825D02*
X389122Y320776D01*
X388304Y320437D01*
X387602Y319898D01*
X387063Y319196D01*
X386724Y318378D01*
X386675Y318000D01*
X389500D01*
Y320825D01*
D02*
G37*
G36*
X390500D02*
Y318000D01*
X393325D01*
X393276Y318378D01*
X392937Y319196D01*
X392398Y319898D01*
X391696Y320437D01*
X390878Y320776D01*
X390500Y320825D01*
D02*
G37*
G36*
X371894Y319178D02*
X369728D01*
X368845Y319003D01*
X368096Y318502D01*
X367792Y318047D01*
X367179Y318024D01*
X367163Y318045D01*
X366502Y318552D01*
X365732Y318871D01*
X365406Y318914D01*
Y315000D01*
Y311086D01*
X365732Y311129D01*
X366502Y311448D01*
X367163Y311955D01*
X367179Y311976D01*
X367792Y311953D01*
X368096Y311498D01*
X368845Y310998D01*
X369728Y310822D01*
X371894D01*
X372777Y310998D01*
X373526Y311498D01*
X374026Y312247D01*
X374202Y313130D01*
Y316870D01*
X374026Y317753D01*
X373526Y318502D01*
X372777Y319003D01*
X371894Y319178D01*
D02*
G37*
G36*
X393325Y317000D02*
X390500D01*
Y314175D01*
X390878Y314224D01*
X391696Y314563D01*
X392398Y315102D01*
X392937Y315804D01*
X393276Y316622D01*
X393325Y317000D01*
D02*
G37*
G36*
X346689Y318914D02*
X346363Y318871D01*
X345593Y318552D01*
X344931Y318045D01*
X344424Y317384D01*
X344105Y316614D01*
X343996Y315787D01*
Y315500D01*
X346689D01*
Y318914D01*
D02*
G37*
G36*
X359000Y319163D02*
X358126Y319048D01*
X357312Y318710D01*
X356613Y318174D01*
X356362Y317847D01*
X355732D01*
X355481Y318174D01*
X354782Y318710D01*
X353968Y319048D01*
X353095Y319163D01*
X352221Y319048D01*
X351407Y318710D01*
X350708Y318174D01*
X350343Y317698D01*
X349770Y317661D01*
X349725Y317682D01*
X349447Y318045D01*
X348785Y318552D01*
X348015Y318871D01*
X347689Y318914D01*
Y315000D01*
Y311086D01*
X348015Y311129D01*
X348785Y311448D01*
X349447Y311955D01*
X349725Y312318D01*
X349770Y312339D01*
X350343Y312302D01*
X350708Y311826D01*
X351407Y311290D01*
X352221Y310952D01*
X353095Y310837D01*
X353968Y310952D01*
X354782Y311290D01*
X355481Y311826D01*
X355732Y312153D01*
X356362D01*
X356613Y311826D01*
X357312Y311290D01*
X358126Y310952D01*
X359000Y310837D01*
X359874Y310952D01*
X360688Y311290D01*
X361387Y311826D01*
X361752Y312302D01*
X362324Y312339D01*
X362369Y312318D01*
X362648Y311955D01*
X363309Y311448D01*
X364079Y311129D01*
X364405Y311086D01*
Y315000D01*
Y318914D01*
X364079Y318871D01*
X363309Y318552D01*
X362648Y318045D01*
X362369Y317682D01*
X362324Y317661D01*
X361752Y317698D01*
X361387Y318174D01*
X360688Y318710D01*
X359874Y319048D01*
X359000Y319163D01*
D02*
G37*
G36*
X213000Y345825D02*
Y343000D01*
X215825D01*
X215776Y343378D01*
X215437Y344196D01*
X214898Y344898D01*
X214196Y345437D01*
X213378Y345776D01*
X213000Y345825D01*
D02*
G37*
G36*
X324500Y353169D02*
X323421Y353027D01*
X322415Y352611D01*
X321552Y351948D01*
X320889Y351085D01*
X320473Y350079D01*
X320331Y349000D01*
X320473Y347921D01*
X320889Y346915D01*
X321552Y346052D01*
X322415Y345389D01*
X323421Y344973D01*
X324500Y344830D01*
X325579Y344973D01*
X326585Y345389D01*
X327448Y346052D01*
X328111Y346915D01*
X328527Y347921D01*
X328670Y349000D01*
X328527Y350079D01*
X328111Y351085D01*
X327448Y351948D01*
X326585Y352611D01*
X325579Y353027D01*
X324500Y353169D01*
D02*
G37*
G36*
X339500Y348325D02*
X339122Y348276D01*
X338304Y347937D01*
X337602Y347398D01*
X337063Y346696D01*
X336724Y345878D01*
X336675Y345500D01*
X339500D01*
Y348325D01*
D02*
G37*
G36*
X362325Y344500D02*
X359500D01*
Y341675D01*
X359878Y341724D01*
X360696Y342063D01*
X361398Y342602D01*
X361937Y343304D01*
X362276Y344122D01*
X362325Y344500D01*
D02*
G37*
G36*
X380825D02*
X378000D01*
Y341675D01*
X378378Y341724D01*
X379196Y342063D01*
X379898Y342602D01*
X380437Y343304D01*
X380776Y344122D01*
X380825Y344500D01*
D02*
G37*
G36*
X212000Y345825D02*
X211622Y345776D01*
X210804Y345437D01*
X210102Y344898D01*
X209563Y344196D01*
X209224Y343378D01*
X209175Y343000D01*
X212000D01*
Y345825D01*
D02*
G37*
G36*
X359500Y348325D02*
Y345500D01*
X362325D01*
X362276Y345878D01*
X361937Y346696D01*
X361398Y347398D01*
X360696Y347937D01*
X359878Y348276D01*
X359500Y348325D01*
D02*
G37*
G36*
X378000D02*
Y345500D01*
X380825D01*
X380776Y345878D01*
X380437Y346696D01*
X379898Y347398D01*
X379196Y347937D01*
X378378Y348276D01*
X378000Y348325D01*
D02*
G37*
G36*
X447500Y354170D02*
X446421Y354027D01*
X445415Y353611D01*
X444552Y352948D01*
X443889Y352085D01*
X443472Y351079D01*
X443330Y350000D01*
X443472Y348921D01*
X443889Y347915D01*
X444552Y347052D01*
X445415Y346389D01*
X446421Y345973D01*
X447500Y345830D01*
X448579Y345973D01*
X449585Y346389D01*
X450448Y347052D01*
X451111Y347915D01*
X451528Y348921D01*
X451670Y350000D01*
X451528Y351079D01*
X451111Y352085D01*
X450448Y352948D01*
X449585Y353611D01*
X448579Y354027D01*
X447500Y354170D01*
D02*
G37*
G36*
X358500Y348325D02*
X358122Y348276D01*
X357304Y347937D01*
X356602Y347398D01*
X356063Y346696D01*
X355724Y345878D01*
X355675Y345500D01*
X358500D01*
Y348325D01*
D02*
G37*
G36*
X377000D02*
X376622Y348276D01*
X375804Y347937D01*
X375102Y347398D01*
X374563Y346696D01*
X374224Y345878D01*
X374175Y345500D01*
X377000D01*
Y348325D01*
D02*
G37*
G36*
X340500D02*
Y345500D01*
X343325D01*
X343276Y345878D01*
X342937Y346696D01*
X342398Y347398D01*
X341696Y347937D01*
X340878Y348276D01*
X340500Y348325D01*
D02*
G37*
G36*
X389500Y340825D02*
X389122Y340776D01*
X388304Y340437D01*
X387602Y339898D01*
X387063Y339196D01*
X386724Y338378D01*
X386675Y338000D01*
X389500D01*
Y340825D01*
D02*
G37*
G36*
X390500D02*
Y338000D01*
X393325D01*
X393276Y338378D01*
X392937Y339196D01*
X392398Y339898D01*
X391696Y340437D01*
X390878Y340776D01*
X390500Y340825D01*
D02*
G37*
G36*
X230000Y346074D02*
X229075Y345952D01*
X228213Y345595D01*
X227473Y345027D01*
X226905Y344287D01*
X226548Y343425D01*
X226426Y342500D01*
X226548Y341575D01*
X226905Y340713D01*
X227473Y339973D01*
X228213Y339405D01*
X229075Y339048D01*
X230000Y338926D01*
X230925Y339048D01*
X231787Y339405D01*
X232527Y339973D01*
X233095Y340713D01*
X233452Y341575D01*
X233574Y342500D01*
X233452Y343425D01*
X233095Y344287D01*
X232527Y345027D01*
X231787Y345595D01*
X230925Y345952D01*
X230000Y346074D01*
D02*
G37*
G36*
X418000Y335825D02*
Y333000D01*
X420825D01*
X420776Y333378D01*
X420437Y334196D01*
X419898Y334898D01*
X419196Y335437D01*
X418378Y335776D01*
X418000Y335825D01*
D02*
G37*
G36*
X389500Y337000D02*
X386675D01*
X386724Y336622D01*
X387063Y335804D01*
X387602Y335102D01*
X388304Y334563D01*
X389122Y334224D01*
X389500Y334175D01*
Y337000D01*
D02*
G37*
G36*
X393325D02*
X390500D01*
Y334175D01*
X390878Y334224D01*
X391696Y334563D01*
X392398Y335102D01*
X392937Y335804D01*
X393276Y336622D01*
X393325Y337000D01*
D02*
G37*
G36*
X358500Y344500D02*
X355675D01*
X355724Y344122D01*
X356063Y343304D01*
X356602Y342602D01*
X357304Y342063D01*
X358122Y341724D01*
X358500Y341675D01*
Y344500D01*
D02*
G37*
G36*
X377000D02*
X374175D01*
X374224Y344122D01*
X374563Y343304D01*
X375102Y342602D01*
X375804Y342063D01*
X376622Y341724D01*
X377000Y341675D01*
Y344500D01*
D02*
G37*
G36*
X343325D02*
X340500D01*
Y341675D01*
X340878Y341724D01*
X341696Y342063D01*
X342398Y342602D01*
X342937Y343304D01*
X343276Y344122D01*
X343325Y344500D01*
D02*
G37*
G36*
X212000Y342000D02*
X209175D01*
X209224Y341622D01*
X209563Y340804D01*
X210102Y340102D01*
X210804Y339563D01*
X211622Y339224D01*
X212000Y339175D01*
Y342000D01*
D02*
G37*
G36*
X215825D02*
X213000D01*
Y339175D01*
X213378Y339224D01*
X214196Y339563D01*
X214898Y340102D01*
X215437Y340804D01*
X215776Y341622D01*
X215825Y342000D01*
D02*
G37*
G36*
X339500Y344500D02*
X336675D01*
X336724Y344122D01*
X337063Y343304D01*
X337602Y342602D01*
X338304Y342063D01*
X339122Y341724D01*
X339500Y341675D01*
Y344500D01*
D02*
G37*
G36*
X231500Y448574D02*
X230575Y448452D01*
X229713Y448095D01*
X228973Y447527D01*
X228405Y446787D01*
X228048Y445925D01*
X227926Y445000D01*
X228048Y444075D01*
X228405Y443213D01*
X228973Y442473D01*
X229713Y441905D01*
X230575Y441548D01*
X231500Y441426D01*
X232425Y441548D01*
X233287Y441905D01*
X234027Y442473D01*
X234595Y443213D01*
X234952Y444075D01*
X235074Y445000D01*
X234952Y445925D01*
X234595Y446787D01*
X234027Y447527D01*
X233287Y448095D01*
X232425Y448452D01*
X231500Y448574D01*
D02*
G37*
G36*
X366000Y445428D02*
X365725Y445392D01*
X365003Y445093D01*
X364383Y444617D01*
X363907Y443997D01*
X363608Y443275D01*
X363572Y443000D01*
X366000D01*
Y445428D01*
D02*
G37*
G36*
X367000D02*
Y443000D01*
X369428D01*
X369392Y443275D01*
X369093Y443997D01*
X368617Y444617D01*
X367997Y445093D01*
X367275Y445392D01*
X367000Y445428D01*
D02*
G37*
G36*
X413000Y443169D02*
X411921Y443027D01*
X410915Y442611D01*
X410052Y441948D01*
X409389Y441085D01*
X408973Y440079D01*
X408830Y439000D01*
X408875Y438665D01*
X407890Y437680D01*
X384279D01*
X384238Y437735D01*
X383436Y438350D01*
X382502Y438737D01*
X381500Y438869D01*
X380498Y438737D01*
X379564Y438350D01*
X378762Y437735D01*
X378147Y436933D01*
X377760Y435999D01*
X377652Y435180D01*
X369650D01*
Y435650D01*
X369642D01*
X369350Y436150D01*
X369568Y436678D01*
X369677Y437500D01*
X369568Y438322D01*
X369251Y439088D01*
X368746Y439746D01*
X368593Y439864D01*
Y440364D01*
X368617Y440383D01*
X369093Y441003D01*
X369392Y441725D01*
X369428Y442000D01*
X366500D01*
X363572D01*
X363608Y441725D01*
X363907Y441003D01*
X364155Y440680D01*
X363908Y440180D01*
X344827D01*
X344287Y440595D01*
X343425Y440952D01*
X342500Y441074D01*
X341575Y440952D01*
X340713Y440595D01*
X339973Y440027D01*
X339405Y439287D01*
X339048Y438425D01*
X338926Y437500D01*
X339048Y436575D01*
X339405Y435713D01*
X339973Y434973D01*
X340713Y434405D01*
X341575Y434048D01*
X342500Y433926D01*
X343425Y434048D01*
X344287Y434405D01*
X344827Y434820D01*
X363350D01*
Y429350D01*
X369650D01*
Y429820D01*
X380000D01*
X380000Y429820D01*
X380347Y429865D01*
X380694Y429911D01*
X381340Y430179D01*
X381895Y430605D01*
X382580Y431290D01*
X383436Y431644D01*
X384238Y432259D01*
X384284Y432320D01*
X409000D01*
X409000Y432320D01*
X409347Y432365D01*
X409694Y432411D01*
X410340Y432679D01*
X410895Y433105D01*
X412665Y434874D01*
X413000Y434831D01*
X414079Y434972D01*
X415085Y435389D01*
X415948Y436052D01*
X416611Y436915D01*
X417028Y437921D01*
X417170Y439000D01*
X417028Y440079D01*
X416611Y441085D01*
X415948Y441948D01*
X415085Y442611D01*
X414079Y443027D01*
X413000Y443169D01*
D02*
G37*
G36*
X467000Y443953D02*
X463547D01*
Y440500D01*
X467000D01*
Y443953D01*
D02*
G37*
G36*
X221500Y448574D02*
X220575Y448452D01*
X219713Y448095D01*
X218973Y447527D01*
X218405Y446787D01*
X218048Y445925D01*
X217926Y445000D01*
X218048Y444075D01*
X218405Y443213D01*
X218973Y442473D01*
X219713Y441905D01*
X220575Y441548D01*
X221500Y441426D01*
X222425Y441548D01*
X223287Y441905D01*
X224027Y442473D01*
X224595Y443213D01*
X224952Y444075D01*
X225074Y445000D01*
X224952Y445925D01*
X224595Y446787D01*
X224027Y447527D01*
X223287Y448095D01*
X222425Y448452D01*
X221500Y448574D01*
D02*
G37*
G36*
X467000Y449500D02*
X463579D01*
X463649Y448968D01*
X464047Y448007D01*
X464681Y447181D01*
X465507Y446547D01*
X466468Y446149D01*
X467000Y446079D01*
Y449500D01*
D02*
G37*
G36*
X367000Y452000D02*
X364175D01*
X364224Y451622D01*
X364563Y450804D01*
X365102Y450102D01*
X365804Y449563D01*
X366622Y449224D01*
X367000Y449175D01*
Y452000D01*
D02*
G37*
G36*
X370825D02*
X368000D01*
Y449175D01*
X368378Y449224D01*
X369196Y449563D01*
X369898Y450102D01*
X370437Y450804D01*
X370776Y451622D01*
X370825Y452000D01*
D02*
G37*
G36*
X324500Y453169D02*
X323421Y453027D01*
X322415Y452611D01*
X321552Y451948D01*
X320889Y451085D01*
X320473Y450079D01*
X320331Y449000D01*
X320473Y447921D01*
X320889Y446915D01*
X321552Y446052D01*
X322415Y445389D01*
X323421Y444973D01*
X324500Y444831D01*
X325579Y444973D01*
X326585Y445389D01*
X327448Y446052D01*
X328111Y446915D01*
X328527Y447921D01*
X328670Y449000D01*
X328527Y450079D01*
X328111Y451085D01*
X327448Y451948D01*
X326585Y452611D01*
X325579Y453027D01*
X324500Y453169D01*
D02*
G37*
G36*
X447500Y454170D02*
X446421Y454028D01*
X445415Y453611D01*
X444552Y452948D01*
X443889Y452085D01*
X443472Y451079D01*
X443330Y450000D01*
X443472Y448921D01*
X443889Y447915D01*
X444552Y447052D01*
X445415Y446389D01*
X446421Y445972D01*
X447500Y445830D01*
X448579Y445972D01*
X449585Y446389D01*
X450448Y447052D01*
X451111Y447915D01*
X451528Y448921D01*
X451670Y450000D01*
X451528Y451079D01*
X451111Y452085D01*
X450448Y452948D01*
X449585Y453611D01*
X448579Y454028D01*
X447500Y454170D01*
D02*
G37*
G36*
X457500D02*
X456421Y454028D01*
X455415Y453611D01*
X454552Y452948D01*
X453889Y452085D01*
X453473Y451079D01*
X453331Y450000D01*
X453473Y448921D01*
X453889Y447915D01*
X454552Y447052D01*
X455415Y446389D01*
X456421Y445972D01*
X457500Y445830D01*
X458579Y445972D01*
X459585Y446389D01*
X460448Y447052D01*
X461111Y447915D01*
X461527Y448921D01*
X461669Y450000D01*
X461527Y451079D01*
X461111Y452085D01*
X460448Y452948D01*
X459585Y453611D01*
X458579Y454028D01*
X457500Y454170D01*
D02*
G37*
G36*
X214421Y424500D02*
X211000D01*
Y421079D01*
X211532Y421149D01*
X212493Y421547D01*
X213319Y422181D01*
X213953Y423007D01*
X214351Y423968D01*
X214421Y424500D01*
D02*
G37*
G36*
X324500Y433170D02*
X323421Y433028D01*
X322415Y432611D01*
X321552Y431948D01*
X320889Y431085D01*
X320473Y430079D01*
X320331Y429000D01*
X320473Y427921D01*
X320889Y426915D01*
X321552Y426052D01*
X322415Y425389D01*
X323421Y424972D01*
X324500Y424830D01*
X325579Y424972D01*
X326585Y425389D01*
X327448Y426052D01*
X328111Y426915D01*
X328527Y427921D01*
X328670Y429000D01*
X328527Y430079D01*
X328111Y431085D01*
X327448Y431948D01*
X326585Y432611D01*
X325579Y433028D01*
X324500Y433170D01*
D02*
G37*
G36*
X467000Y428921D02*
X466468Y428851D01*
X465507Y428453D01*
X464681Y427819D01*
X464047Y426993D01*
X463649Y426032D01*
X463579Y425500D01*
X467000D01*
Y428921D01*
D02*
G37*
G36*
X427500Y497662D02*
X426164Y497486D01*
X424919Y496971D01*
X423850Y496150D01*
X423029Y495081D01*
X422514Y493836D01*
X422338Y492500D01*
X422514Y491164D01*
X423029Y489919D01*
X423850Y488850D01*
X424919Y488029D01*
X426164Y487514D01*
X427500Y487338D01*
X428712Y487497D01*
X430820Y485390D01*
Y442500D01*
X430820Y442500D01*
X430865Y442153D01*
X430911Y441806D01*
X431179Y441160D01*
X431605Y440605D01*
X441605Y430605D01*
X441605Y430605D01*
X442160Y430179D01*
X442806Y429911D01*
X443153Y429865D01*
X443500Y429820D01*
X443500Y429820D01*
X452890D01*
X454565Y428145D01*
X454552Y427948D01*
X453889Y427085D01*
X453473Y426079D01*
X453331Y425000D01*
X453473Y423921D01*
X453889Y422915D01*
X454552Y422052D01*
X455415Y421389D01*
X456421Y420972D01*
X457500Y420830D01*
X458579Y420972D01*
X459585Y421389D01*
X460448Y422052D01*
X461111Y422915D01*
X461527Y423921D01*
X461669Y425000D01*
X461527Y426079D01*
X461111Y427085D01*
X460448Y427948D01*
X460180Y428154D01*
Y429000D01*
X460180Y429000D01*
X460089Y429694D01*
X459821Y430340D01*
X459395Y430895D01*
X459395Y430895D01*
X455895Y434395D01*
X455340Y434821D01*
X454694Y435089D01*
X454347Y435135D01*
X454000Y435180D01*
X454000Y435180D01*
X444610D01*
X436180Y443610D01*
Y486500D01*
X436089Y487194D01*
X435821Y487840D01*
X435395Y488395D01*
X432503Y491288D01*
X432662Y492500D01*
X432486Y493836D01*
X431971Y495081D01*
X431150Y496150D01*
X430081Y496971D01*
X428836Y497486D01*
X427500Y497662D01*
D02*
G37*
G36*
X467000Y424500D02*
X463579D01*
X463649Y423968D01*
X464047Y423007D01*
X464681Y422181D01*
X465507Y421547D01*
X466468Y421149D01*
X467000Y421079D01*
Y424500D01*
D02*
G37*
G36*
X210000D02*
X206579D01*
X206649Y423968D01*
X207047Y423007D01*
X207681Y422181D01*
X208507Y421547D01*
X209468Y421149D01*
X210000Y421079D01*
Y424500D01*
D02*
G37*
G36*
X324500Y443169D02*
X323421Y443027D01*
X322415Y442611D01*
X321552Y441948D01*
X320889Y441085D01*
X320473Y440079D01*
X320331Y439000D01*
X320473Y437921D01*
X320889Y436915D01*
X321552Y436052D01*
X322415Y435389D01*
X323421Y434972D01*
X324500Y434831D01*
X325579Y434972D01*
X326585Y435389D01*
X327448Y436052D01*
X328111Y436915D01*
X328527Y437921D01*
X328670Y439000D01*
X328527Y440079D01*
X328111Y441085D01*
X327448Y441948D01*
X326585Y442611D01*
X325579Y443027D01*
X324500Y443169D01*
D02*
G37*
G36*
X457500Y444170D02*
X456421Y444028D01*
X455415Y443611D01*
X454552Y442948D01*
X453889Y442085D01*
X453473Y441079D01*
X453331Y440000D01*
X453473Y438921D01*
X453889Y437915D01*
X454552Y437052D01*
X455415Y436389D01*
X456421Y435972D01*
X457500Y435830D01*
X458579Y435972D01*
X459585Y436389D01*
X460448Y437052D01*
X461111Y437915D01*
X461527Y438921D01*
X461669Y440000D01*
X461527Y441079D01*
X461111Y442085D01*
X460448Y442948D01*
X459585Y443611D01*
X458579Y444028D01*
X457500Y444170D01*
D02*
G37*
G36*
X467000Y439500D02*
X463547D01*
Y436047D01*
X467000D01*
Y439500D01*
D02*
G37*
G36*
X210000Y428921D02*
X209468Y428851D01*
X208507Y428453D01*
X207681Y427819D01*
X207047Y426993D01*
X206649Y426032D01*
X206579Y425500D01*
X210000D01*
Y428921D01*
D02*
G37*
G36*
X211000D02*
Y425500D01*
X214421D01*
X214351Y426032D01*
X213953Y426993D01*
X213319Y427819D01*
X212493Y428453D01*
X211532Y428851D01*
X211000Y428921D01*
D02*
G37*
G36*
X210500Y439170D02*
X209421Y439028D01*
X208415Y438611D01*
X207552Y437948D01*
X206889Y437085D01*
X206473Y436079D01*
X206330Y435000D01*
X206473Y433921D01*
X206889Y432915D01*
X207552Y432052D01*
X208415Y431389D01*
X209421Y430972D01*
X210500Y430830D01*
X211579Y430972D01*
X212585Y431389D01*
X213448Y432052D01*
X214111Y432915D01*
X214527Y433921D01*
X214669Y435000D01*
X214527Y436079D01*
X214111Y437085D01*
X213448Y437948D01*
X212585Y438611D01*
X211579Y439028D01*
X210500Y439170D01*
D02*
G37*
G36*
X244500Y483170D02*
X243421Y483028D01*
X242415Y482611D01*
X241552Y481948D01*
X240889Y481085D01*
X240473Y480079D01*
X240331Y479000D01*
X240452Y478075D01*
X230869Y468491D01*
X230575Y468452D01*
X229713Y468095D01*
X228973Y467527D01*
X228405Y466787D01*
X228048Y465925D01*
X227926Y465000D01*
X227979Y464601D01*
X215096Y451718D01*
X214634Y451909D01*
Y459134D01*
X213909D01*
X213718Y459596D01*
X216915Y462792D01*
X218728D01*
X218973Y462473D01*
X219713Y461905D01*
X220575Y461548D01*
X221500Y461426D01*
X222425Y461548D01*
X223287Y461905D01*
X224027Y462473D01*
X224595Y463213D01*
X224952Y464075D01*
X225074Y465000D01*
X224952Y465925D01*
X224595Y466787D01*
X224027Y467527D01*
X223287Y468095D01*
X222425Y468452D01*
X221500Y468574D01*
X220575Y468452D01*
X219713Y468095D01*
X218973Y467527D01*
X218728Y467208D01*
X216000D01*
X215155Y467040D01*
X214439Y466561D01*
X208939Y461061D01*
X208460Y460345D01*
X208292Y459500D01*
Y459134D01*
X206366D01*
Y450866D01*
X213591D01*
X213782Y450404D01*
X212163Y448785D01*
X211579Y449027D01*
X210500Y449169D01*
X209421Y449027D01*
X208415Y448611D01*
X207552Y447948D01*
X206889Y447085D01*
X206473Y446079D01*
X206330Y445000D01*
X206473Y443921D01*
X206889Y442915D01*
X207552Y442052D01*
X208415Y441389D01*
X209421Y440973D01*
X210500Y440831D01*
X211579Y440973D01*
X212585Y441389D01*
X213448Y442052D01*
X214111Y442915D01*
X214527Y443921D01*
X214669Y445000D01*
X214664Y445042D01*
X228306Y458684D01*
X228780Y458450D01*
X228720Y458000D01*
X228815Y457281D01*
X229093Y456610D01*
X229535Y456035D01*
X230110Y455593D01*
X230781Y455315D01*
X231500Y455220D01*
X232219Y455315D01*
X232890Y455593D01*
X233150Y455792D01*
X233500D01*
X234345Y455960D01*
X235061Y456439D01*
X243575Y464952D01*
X244500Y464830D01*
X245579Y464972D01*
X246585Y465389D01*
X247448Y466052D01*
X248111Y466915D01*
X248527Y467921D01*
X248670Y469000D01*
X248527Y470079D01*
X248111Y471085D01*
X247448Y471948D01*
X246585Y472611D01*
X245579Y473028D01*
X244500Y473170D01*
X243421Y473028D01*
X242415Y472611D01*
X241552Y471948D01*
X240889Y471085D01*
X240473Y470079D01*
X240331Y469000D01*
X240452Y468075D01*
X232816Y460438D01*
X232219Y460685D01*
X231500Y460780D01*
X231246Y460746D01*
X230996Y461218D01*
X231208Y461465D01*
X231500Y461426D01*
X232425Y461548D01*
X233287Y461905D01*
X234027Y462473D01*
X234595Y463213D01*
X234952Y464075D01*
X235074Y465000D01*
X234952Y465925D01*
X234834Y466211D01*
X243575Y474952D01*
X244500Y474830D01*
X245579Y474972D01*
X246585Y475389D01*
X247448Y476052D01*
X248111Y476915D01*
X248527Y477921D01*
X248670Y479000D01*
X248527Y480079D01*
X248111Y481085D01*
X247448Y481948D01*
X246585Y482611D01*
X245579Y483028D01*
X244500Y483170D01*
D02*
G37*
G36*
X328634Y483134D02*
X320366D01*
Y474866D01*
X328634D01*
Y483134D01*
D02*
G37*
G36*
X262500Y483574D02*
X261575Y483452D01*
X260713Y483095D01*
X259973Y482527D01*
X259405Y481787D01*
X259048Y480925D01*
X258926Y480000D01*
X259048Y479075D01*
X259405Y478213D01*
X259973Y477473D01*
X260713Y476905D01*
X261575Y476548D01*
X262500Y476426D01*
X263425Y476548D01*
X264287Y476905D01*
X265027Y477473D01*
X265595Y478213D01*
X265952Y479075D01*
X266074Y480000D01*
X265952Y480925D01*
X265595Y481787D01*
X265027Y482527D01*
X264287Y483095D01*
X263425Y483452D01*
X262500Y483574D01*
D02*
G37*
G36*
X338325Y468500D02*
X335500D01*
Y465675D01*
X335878Y465724D01*
X336696Y466063D01*
X337398Y466602D01*
X337937Y467304D01*
X338276Y468122D01*
X338325Y468500D01*
D02*
G37*
G36*
X334500Y472325D02*
X334122Y472276D01*
X333304Y471937D01*
X332602Y471398D01*
X332063Y470696D01*
X331724Y469878D01*
X331675Y469500D01*
X334500D01*
Y472325D01*
D02*
G37*
G36*
X335500D02*
Y469500D01*
X338325D01*
X338276Y469878D01*
X337937Y470696D01*
X337398Y471398D01*
X336696Y471937D01*
X335878Y472276D01*
X335500Y472325D01*
D02*
G37*
G36*
X347928Y485500D02*
X345500D01*
Y483072D01*
X345775Y483108D01*
X346497Y483407D01*
X347117Y483883D01*
X347593Y484503D01*
X347892Y485225D01*
X347928Y485500D01*
D02*
G37*
G36*
X290000Y498574D02*
X289075Y498452D01*
X288213Y498095D01*
X287473Y497527D01*
X286905Y496787D01*
X286548Y495925D01*
X286426Y495000D01*
X286548Y494075D01*
X286905Y493213D01*
X287473Y492473D01*
X288213Y491905D01*
X289075Y491548D01*
X290000Y491426D01*
X290925Y491548D01*
X291787Y491905D01*
X292527Y492473D01*
X293095Y493213D01*
X293452Y494075D01*
X293574Y495000D01*
X293452Y495925D01*
X293095Y496787D01*
X292527Y497527D01*
X291787Y498095D01*
X290925Y498452D01*
X290000Y498574D01*
D02*
G37*
G36*
X348150Y499150D02*
X341850D01*
Y493208D01*
X334415D01*
X331061Y496561D01*
X330345Y497040D01*
X329500Y497208D01*
X312772D01*
X312527Y497527D01*
X311787Y498095D01*
X310925Y498452D01*
X310000Y498574D01*
X309075Y498452D01*
X308213Y498095D01*
X307473Y497527D01*
X306905Y496787D01*
X306548Y495925D01*
X306426Y495000D01*
X306548Y494075D01*
X306905Y493213D01*
X307473Y492473D01*
X308213Y491905D01*
X309075Y491548D01*
X310000Y491426D01*
X310925Y491548D01*
X311787Y491905D01*
X312527Y492473D01*
X312772Y492792D01*
X328586D01*
X331939Y489439D01*
X332655Y488960D01*
X333500Y488792D01*
X342472D01*
X342709Y488561D01*
X342883Y488117D01*
X342407Y487497D01*
X342108Y486775D01*
X342072Y486500D01*
X345000D01*
X347928D01*
X347892Y486775D01*
X347593Y487497D01*
X347117Y488117D01*
X347093Y488136D01*
Y488636D01*
X347246Y488754D01*
X347751Y489412D01*
X348068Y490178D01*
X348177Y491000D01*
X348068Y491822D01*
X347850Y492350D01*
X348143Y492850D01*
X348150D01*
Y499150D01*
D02*
G37*
G36*
X275000Y483574D02*
X274075Y483452D01*
X273213Y483095D01*
X272473Y482527D01*
X271905Y481787D01*
X271548Y480925D01*
X271426Y480000D01*
X271548Y479075D01*
X271905Y478213D01*
X272473Y477473D01*
X273213Y476905D01*
X274075Y476548D01*
X275000Y476426D01*
X275925Y476548D01*
X276787Y476905D01*
X277527Y477473D01*
X278095Y478213D01*
X278452Y479075D01*
X278574Y480000D01*
X278452Y480925D01*
X278095Y481787D01*
X277527Y482527D01*
X276787Y483095D01*
X275925Y483452D01*
X275000Y483574D01*
D02*
G37*
G36*
X305000D02*
X304075Y483452D01*
X303213Y483095D01*
X302473Y482527D01*
X302228Y482208D01*
X295272D01*
X295027Y482527D01*
X294287Y483095D01*
X293425Y483452D01*
X292500Y483574D01*
X291575Y483452D01*
X290713Y483095D01*
X289973Y482527D01*
X289405Y481787D01*
X289048Y480925D01*
X288926Y480000D01*
X289048Y479075D01*
X289405Y478213D01*
X289973Y477473D01*
X290713Y476905D01*
X291575Y476548D01*
X292500Y476426D01*
X293425Y476548D01*
X294287Y476905D01*
X295027Y477473D01*
X295272Y477792D01*
X302228D01*
X302473Y477473D01*
X303213Y476905D01*
X304075Y476548D01*
X305000Y476426D01*
X305925Y476548D01*
X306787Y476905D01*
X307527Y477473D01*
X308095Y478213D01*
X308452Y479075D01*
X308574Y480000D01*
X308452Y480925D01*
X308095Y481787D01*
X307527Y482527D01*
X306787Y483095D01*
X305925Y483452D01*
X305000Y483574D01*
D02*
G37*
G36*
X344500Y485500D02*
X342072D01*
X342108Y485225D01*
X342407Y484503D01*
X342883Y483883D01*
X343503Y483407D01*
X344225Y483108D01*
X344500Y483072D01*
Y485500D01*
D02*
G37*
G36*
X324500Y463169D02*
X323421Y463027D01*
X322415Y462611D01*
X321552Y461948D01*
X320889Y461085D01*
X320473Y460079D01*
X320331Y459000D01*
X320473Y457921D01*
X320889Y456915D01*
X321552Y456052D01*
X322415Y455389D01*
X323421Y454973D01*
X324500Y454831D01*
X325579Y454973D01*
X326585Y455389D01*
X327448Y456052D01*
X328111Y456915D01*
X328527Y457921D01*
X328670Y459000D01*
X328527Y460079D01*
X328111Y461085D01*
X327448Y461948D01*
X326585Y462611D01*
X325579Y463027D01*
X324500Y463169D01*
D02*
G37*
G36*
X447500Y464170D02*
X446421Y464028D01*
X445415Y463611D01*
X444552Y462948D01*
X443889Y462085D01*
X443472Y461079D01*
X443330Y460000D01*
X443472Y458921D01*
X443889Y457915D01*
X444552Y457052D01*
X445415Y456389D01*
X446421Y455972D01*
X447500Y455830D01*
X448579Y455972D01*
X449585Y456389D01*
X450448Y457052D01*
X451111Y457915D01*
X451528Y458921D01*
X451670Y460000D01*
X451528Y461079D01*
X451111Y462085D01*
X450448Y462948D01*
X449585Y463611D01*
X448579Y464028D01*
X447500Y464170D01*
D02*
G37*
G36*
X467000Y459500D02*
X463579D01*
X463649Y458968D01*
X464047Y458007D01*
X464681Y457181D01*
X465507Y456547D01*
X466468Y456149D01*
X467000Y456079D01*
Y459500D01*
D02*
G37*
G36*
Y453921D02*
X466468Y453851D01*
X465507Y453453D01*
X464681Y452819D01*
X464047Y451993D01*
X463649Y451032D01*
X463579Y450500D01*
X467000D01*
Y453921D01*
D02*
G37*
G36*
X367000Y455825D02*
X366622Y455776D01*
X365804Y455437D01*
X365102Y454898D01*
X364563Y454196D01*
X364224Y453378D01*
X364175Y453000D01*
X367000D01*
Y455825D01*
D02*
G37*
G36*
X368000D02*
Y453000D01*
X370825D01*
X370776Y453378D01*
X370437Y454196D01*
X369898Y454898D01*
X369196Y455437D01*
X368378Y455776D01*
X368000Y455825D01*
D02*
G37*
G36*
X467000Y463921D02*
X466468Y463851D01*
X465507Y463453D01*
X464681Y462819D01*
X464047Y461993D01*
X463649Y461032D01*
X463579Y460500D01*
X467000D01*
Y463921D01*
D02*
G37*
G36*
X324500Y473170D02*
X323421Y473028D01*
X322415Y472611D01*
X321552Y471948D01*
X320889Y471085D01*
X320473Y470079D01*
X320331Y469000D01*
X320473Y467921D01*
X320546Y467743D01*
X308710Y455907D01*
X264511D01*
X264465Y455966D01*
X264066Y456272D01*
X264103Y456828D01*
X264287Y456905D01*
X265027Y457473D01*
X265595Y458213D01*
X265952Y459075D01*
X266074Y460000D01*
X265952Y460925D01*
X265595Y461787D01*
X265027Y462527D01*
X264287Y463095D01*
X263425Y463452D01*
X262500Y463574D01*
X261575Y463452D01*
X260713Y463095D01*
X259973Y462527D01*
X259405Y461787D01*
X259048Y460925D01*
X258926Y460000D01*
X259048Y459075D01*
X259405Y458213D01*
X259973Y457473D01*
X260713Y456905D01*
X260897Y456828D01*
X260934Y456272D01*
X260535Y455966D01*
X260093Y455390D01*
X259815Y454719D01*
X259720Y454000D01*
X259815Y453281D01*
X260093Y452610D01*
X260402Y452208D01*
X260176Y451708D01*
X254914D01*
X248548Y458075D01*
X248670Y459000D01*
X248527Y460079D01*
X248111Y461085D01*
X247448Y461948D01*
X246585Y462611D01*
X245579Y463027D01*
X244500Y463169D01*
X243421Y463027D01*
X242415Y462611D01*
X241552Y461948D01*
X240889Y461085D01*
X240473Y460079D01*
X240331Y459000D01*
X240473Y457921D01*
X240889Y456915D01*
X241552Y456052D01*
X242415Y455389D01*
X243421Y454973D01*
X244500Y454831D01*
X245425Y454952D01*
X252439Y447939D01*
X253155Y447460D01*
X254000Y447292D01*
X271825D01*
X271943Y447134D01*
X271692Y446634D01*
X265866D01*
Y444708D01*
X251915D01*
X248548Y448075D01*
X248670Y449000D01*
X248527Y450079D01*
X248111Y451085D01*
X247448Y451948D01*
X246585Y452611D01*
X245579Y453027D01*
X244500Y453169D01*
X243421Y453027D01*
X242415Y452611D01*
X241552Y451948D01*
X240889Y451085D01*
X240473Y450079D01*
X240331Y449000D01*
X240473Y447921D01*
X240889Y446915D01*
X241552Y446052D01*
X242415Y445389D01*
X243421Y444973D01*
X244500Y444831D01*
X245425Y444952D01*
X249439Y440939D01*
X250155Y440460D01*
X251000Y440292D01*
X255265D01*
X255521Y439792D01*
X255461Y439708D01*
X248576D01*
X248527Y440079D01*
X248111Y441085D01*
X247448Y441948D01*
X246585Y442611D01*
X245579Y443027D01*
X244500Y443169D01*
X243421Y443027D01*
X242415Y442611D01*
X241552Y441948D01*
X240889Y441085D01*
X240473Y440079D01*
X240331Y439000D01*
X240473Y437921D01*
X240889Y436915D01*
X241552Y436052D01*
X242415Y435389D01*
X243421Y434972D01*
X244500Y434831D01*
X245579Y434972D01*
X246351Y435292D01*
X255850D01*
X256110Y435093D01*
X256781Y434815D01*
X257500Y434720D01*
X258219Y434815D01*
X258890Y435093D01*
X259466Y435534D01*
X259907Y436110D01*
X260185Y436781D01*
X260280Y437500D01*
X260185Y438219D01*
X259907Y438890D01*
X259466Y439466D01*
X259040Y439792D01*
X259209Y440292D01*
X265866D01*
Y438366D01*
X272091D01*
X272282Y437904D01*
X270925Y436548D01*
X270000Y436669D01*
X268921Y436527D01*
X267915Y436111D01*
X267052Y435448D01*
X266389Y434585D01*
X265973Y433579D01*
X265830Y432500D01*
X265973Y431421D01*
X266389Y430415D01*
X266683Y430032D01*
X266462Y429584D01*
X265113D01*
X264348Y430348D01*
X263730Y430762D01*
X263000Y430907D01*
X248185D01*
X248111Y431085D01*
X247448Y431948D01*
X246585Y432611D01*
X245579Y433028D01*
X244500Y433170D01*
X243421Y433028D01*
X242415Y432611D01*
X241552Y431948D01*
X240889Y431085D01*
X240473Y430079D01*
X240331Y429000D01*
X240473Y427921D01*
X240889Y426915D01*
X241279Y426407D01*
X241033Y425907D01*
X239290D01*
X230972Y434225D01*
X231074Y435000D01*
X230952Y435925D01*
X230595Y436787D01*
X230027Y437527D01*
X229287Y438095D01*
X228425Y438452D01*
X227500Y438574D01*
X226575Y438452D01*
X225713Y438095D01*
X224973Y437527D01*
X224405Y436787D01*
X224048Y435925D01*
X223926Y435000D01*
X224048Y434075D01*
X224405Y433213D01*
X224973Y432473D01*
X225713Y431905D01*
X226575Y431548D01*
X227500Y431426D01*
X228275Y431528D01*
X237152Y422652D01*
X237770Y422238D01*
X238500Y422093D01*
X241033D01*
X241279Y421593D01*
X240889Y421085D01*
X240473Y420079D01*
X240331Y419000D01*
X240473Y417921D01*
X240889Y416915D01*
X241552Y416052D01*
X242415Y415389D01*
X243421Y414972D01*
X244500Y414830D01*
X245579Y414972D01*
X246585Y415389D01*
X247448Y416052D01*
X248111Y416915D01*
X248185Y417093D01*
X261210D01*
X262152Y416152D01*
X262770Y415738D01*
X263500Y415593D01*
X266533D01*
X266779Y415093D01*
X266389Y414585D01*
X265973Y413579D01*
X265830Y412500D01*
X265973Y411421D01*
X266389Y410415D01*
X266779Y409907D01*
X266533Y409407D01*
X248616D01*
X248527Y410079D01*
X248111Y411085D01*
X247448Y411948D01*
X246585Y412611D01*
X245579Y413027D01*
X244500Y413169D01*
X243421Y413027D01*
X242415Y412611D01*
X241552Y411948D01*
X240889Y411085D01*
X240473Y410079D01*
X240331Y409000D01*
X240473Y407921D01*
X240889Y406915D01*
X241552Y406052D01*
X242415Y405389D01*
X243421Y404973D01*
X244500Y404831D01*
X245579Y404973D01*
X246585Y405389D01*
X246851Y405593D01*
X266533D01*
X266779Y405093D01*
X266389Y404585D01*
X265973Y403579D01*
X265830Y402500D01*
X265973Y401421D01*
X266389Y400415D01*
X267052Y399552D01*
X267915Y398889D01*
X268921Y398473D01*
X270000Y398330D01*
X271079Y398473D01*
X272085Y398889D01*
X272948Y399552D01*
X273611Y400415D01*
X274027Y401421D01*
X274169Y402500D01*
X274027Y403579D01*
X273611Y404585D01*
X273198Y405123D01*
X273405Y405674D01*
X273730Y405738D01*
X274348Y406152D01*
X293790Y425593D01*
X296761D01*
X297008Y425093D01*
X296547Y424493D01*
X296149Y423532D01*
X296079Y423000D01*
X303921D01*
X303851Y423532D01*
X303453Y424493D01*
X302992Y425093D01*
X303239Y425593D01*
X304210D01*
X317152Y412652D01*
X317770Y412238D01*
X318500Y412093D01*
X321033D01*
X321279Y411593D01*
X320889Y411085D01*
X320473Y410079D01*
X320331Y409000D01*
X320473Y407921D01*
X320889Y406915D01*
X321552Y406052D01*
X322415Y405389D01*
X323421Y404973D01*
X324500Y404831D01*
X325579Y404973D01*
X326585Y405389D01*
X327448Y406052D01*
X328111Y406915D01*
X328185Y407093D01*
X357968D01*
X358213Y406905D01*
X359075Y406548D01*
X360000Y406426D01*
X360925Y406548D01*
X361787Y406905D01*
X362527Y407473D01*
X363095Y408213D01*
X363452Y409075D01*
X363574Y410000D01*
X363452Y410925D01*
X363095Y411787D01*
X362527Y412527D01*
X361787Y413095D01*
X360925Y413452D01*
X360000Y413574D01*
X359075Y413452D01*
X358213Y413095D01*
X357473Y412527D01*
X356905Y411787D01*
X356548Y410925D01*
X356545Y410907D01*
X328185D01*
X328111Y411085D01*
X327721Y411593D01*
X327967Y412093D01*
X339000D01*
X339730Y412238D01*
X340348Y412652D01*
X341725Y414028D01*
X342500Y413926D01*
X343425Y414048D01*
X344287Y414405D01*
X345027Y414973D01*
X345595Y415713D01*
X345952Y416575D01*
X346074Y417500D01*
X345952Y418425D01*
X345595Y419287D01*
X345027Y420027D01*
X344287Y420595D01*
X343425Y420952D01*
X342500Y421074D01*
X341575Y420952D01*
X340713Y420595D01*
X339973Y420027D01*
X339405Y419287D01*
X339048Y418425D01*
X338926Y417500D01*
X339028Y416725D01*
X338210Y415907D01*
X327967D01*
X327721Y416407D01*
X328111Y416915D01*
X328185Y417093D01*
X332500D01*
X333230Y417238D01*
X333848Y417652D01*
X337790Y421593D01*
X355710D01*
X356528Y420775D01*
X356426Y420000D01*
X356548Y419075D01*
X356905Y418213D01*
X357473Y417473D01*
X358213Y416905D01*
X359075Y416548D01*
X360000Y416426D01*
X360925Y416548D01*
X361787Y416905D01*
X362527Y417473D01*
X363095Y418213D01*
X363452Y419075D01*
X363574Y420000D01*
X363452Y420925D01*
X363095Y421787D01*
X362527Y422527D01*
X361787Y423095D01*
X360925Y423452D01*
X360000Y423574D01*
X359225Y423472D01*
X357848Y424848D01*
X357230Y425262D01*
X356500Y425407D01*
X337000D01*
X336270Y425262D01*
X335652Y424848D01*
X331710Y420907D01*
X328185D01*
X328111Y421085D01*
X327448Y421948D01*
X326585Y422611D01*
X325579Y423028D01*
X324500Y423170D01*
X323421Y423028D01*
X322415Y422611D01*
X321552Y421948D01*
X320889Y421085D01*
X320473Y420079D01*
X320331Y419000D01*
X320473Y417921D01*
X320889Y416915D01*
X321279Y416407D01*
X321033Y415907D01*
X319290D01*
X306348Y428848D01*
X305730Y429262D01*
X305000Y429407D01*
X303467D01*
X303221Y429907D01*
X303611Y430415D01*
X304027Y431421D01*
X304170Y432500D01*
X304027Y433579D01*
X303611Y434585D01*
X302948Y435448D01*
X302085Y436111D01*
X301079Y436527D01*
X300000Y436669D01*
X298921Y436527D01*
X297915Y436111D01*
X297052Y435448D01*
X296389Y434585D01*
X296315Y434407D01*
X291000D01*
X290270Y434262D01*
X289652Y433848D01*
X275210Y419407D01*
X273467D01*
X273221Y419907D01*
X273611Y420415D01*
X274027Y421421D01*
X274169Y422500D01*
X274027Y423579D01*
X273611Y424585D01*
X273085Y425270D01*
X273314Y425770D01*
X278677D01*
X279407Y425916D01*
X280025Y426329D01*
X294290Y440593D01*
X296315D01*
X296389Y440415D01*
X297052Y439552D01*
X297915Y438889D01*
X298921Y438473D01*
X300000Y438331D01*
X301079Y438473D01*
X302085Y438889D01*
X302948Y439552D01*
X303611Y440415D01*
X304027Y441421D01*
X304170Y442500D01*
X304027Y443579D01*
X303611Y444585D01*
X302948Y445448D01*
X302085Y446111D01*
X301079Y446527D01*
X300000Y446669D01*
X298921Y446527D01*
X297915Y446111D01*
X297052Y445448D01*
X296389Y444585D01*
X296315Y444407D01*
X293500D01*
X292770Y444262D01*
X292152Y443848D01*
X277887Y429584D01*
X273538D01*
X273317Y430032D01*
X273611Y430415D01*
X274027Y431421D01*
X274169Y432500D01*
X274048Y433425D01*
X278061Y437439D01*
X278540Y438155D01*
X278708Y439000D01*
Y446000D01*
X278540Y446845D01*
X278061Y447561D01*
X274561Y451061D01*
X273845Y451540D01*
X273575Y451593D01*
X273625Y452093D01*
X309500D01*
X310230Y452238D01*
X310848Y452652D01*
X323243Y465046D01*
X323421Y464972D01*
X324500Y464830D01*
X325579Y464972D01*
X326585Y465389D01*
X327448Y466052D01*
X328111Y466915D01*
X328527Y467921D01*
X328670Y469000D01*
X328527Y470079D01*
X328111Y471085D01*
X327448Y471948D01*
X326585Y472611D01*
X325579Y473028D01*
X324500Y473170D01*
D02*
G37*
G36*
X334500Y468500D02*
X331675D01*
X331724Y468122D01*
X332063Y467304D01*
X332602Y466602D01*
X333304Y466063D01*
X334122Y465724D01*
X334500Y465675D01*
Y468500D01*
D02*
G37*
G36*
X275000Y463574D02*
X274075Y463452D01*
X273213Y463095D01*
X272473Y462527D01*
X271905Y461787D01*
X271548Y460925D01*
X271426Y460000D01*
X271548Y459075D01*
X271905Y458213D01*
X272473Y457473D01*
X273213Y456905D01*
X274075Y456548D01*
X275000Y456426D01*
X275925Y456548D01*
X276787Y456905D01*
X277527Y457473D01*
X278095Y458213D01*
X278452Y459075D01*
X278574Y460000D01*
X278452Y460925D01*
X278095Y461787D01*
X277527Y462527D01*
X276787Y463095D01*
X275925Y463452D01*
X275000Y463574D01*
D02*
G37*
G36*
X292500D02*
X291575Y463452D01*
X290713Y463095D01*
X289973Y462527D01*
X289405Y461787D01*
X289048Y460925D01*
X288926Y460000D01*
X289048Y459075D01*
X289405Y458213D01*
X289973Y457473D01*
X290713Y456905D01*
X291575Y456548D01*
X292500Y456426D01*
X293425Y456548D01*
X294287Y456905D01*
X295027Y457473D01*
X295595Y458213D01*
X295952Y459075D01*
X296074Y460000D01*
X295952Y460925D01*
X295595Y461787D01*
X295027Y462527D01*
X294287Y463095D01*
X293425Y463452D01*
X292500Y463574D01*
D02*
G37*
G36*
X305000D02*
X304075Y463452D01*
X303213Y463095D01*
X302473Y462527D01*
X301905Y461787D01*
X301548Y460925D01*
X301426Y460000D01*
X301548Y459075D01*
X301905Y458213D01*
X302473Y457473D01*
X303213Y456905D01*
X304075Y456548D01*
X305000Y456426D01*
X305925Y456548D01*
X306787Y456905D01*
X307527Y457473D01*
X308095Y458213D01*
X308452Y459075D01*
X308574Y460000D01*
X308452Y460925D01*
X308095Y461787D01*
X307527Y462527D01*
X306787Y463095D01*
X305925Y463452D01*
X305000Y463574D01*
D02*
G37*
G36*
X303921Y422000D02*
X300500D01*
Y418579D01*
X301032Y418649D01*
X301993Y419047D01*
X302819Y419681D01*
X303453Y420507D01*
X303851Y421468D01*
X303921Y422000D01*
D02*
G37*
G36*
X358500Y386421D02*
X357968Y386351D01*
X357007Y385953D01*
X356181Y385319D01*
X355547Y384493D01*
X355149Y383532D01*
X355079Y383000D01*
X358500D01*
Y386421D01*
D02*
G37*
G36*
X359500D02*
Y383000D01*
X362921D01*
X362851Y383532D01*
X362453Y384493D01*
X361819Y385319D01*
X360993Y385953D01*
X360032Y386351D01*
X359500Y386421D01*
D02*
G37*
G36*
X244500Y393169D02*
X243421Y393027D01*
X242415Y392611D01*
X241552Y391948D01*
X240889Y391085D01*
X240473Y390079D01*
X240331Y389000D01*
X240473Y387921D01*
X240889Y386915D01*
X241552Y386052D01*
X242415Y385389D01*
X243421Y384973D01*
X244500Y384830D01*
X245579Y384973D01*
X246585Y385389D01*
X247448Y386052D01*
X248111Y386915D01*
X248527Y387921D01*
X248670Y389000D01*
X248527Y390079D01*
X248111Y391085D01*
X247448Y391948D01*
X246585Y392611D01*
X245579Y393027D01*
X244500Y393169D01*
D02*
G37*
G36*
X210000Y387170D02*
X208921Y387027D01*
X207915Y386611D01*
X207052Y385948D01*
X206389Y385085D01*
X205973Y384079D01*
X205831Y383000D01*
X205973Y381921D01*
X206389Y380915D01*
X207052Y380052D01*
X207915Y379389D01*
X208921Y378973D01*
X210000Y378831D01*
X211079Y378973D01*
X212085Y379389D01*
X212948Y380052D01*
X213611Y380915D01*
X214027Y381921D01*
X214170Y383000D01*
X214027Y384079D01*
X213611Y385085D01*
X212948Y385948D01*
X212085Y386611D01*
X211079Y387027D01*
X210000Y387170D01*
D02*
G37*
G36*
X437500Y386074D02*
X436575Y385952D01*
X435713Y385595D01*
X434973Y385027D01*
X434405Y384287D01*
X434048Y383425D01*
X433926Y382500D01*
X434048Y381575D01*
X434405Y380713D01*
X434973Y379973D01*
X435713Y379405D01*
X436575Y379048D01*
X437500Y378926D01*
X438425Y379048D01*
X439287Y379405D01*
X440027Y379973D01*
X440595Y380713D01*
X440952Y381575D01*
X441074Y382500D01*
X440952Y383425D01*
X440595Y384287D01*
X440027Y385027D01*
X439287Y385595D01*
X438425Y385952D01*
X437500Y386074D01*
D02*
G37*
G36*
X467000Y383921D02*
X466468Y383851D01*
X465507Y383453D01*
X464681Y382819D01*
X464047Y381993D01*
X463649Y381032D01*
X463579Y380500D01*
X467000D01*
Y383921D01*
D02*
G37*
G36*
Y394500D02*
X463547D01*
Y391047D01*
X467000D01*
Y394500D01*
D02*
G37*
G36*
X389500Y397000D02*
X386675D01*
X386724Y396622D01*
X387063Y395804D01*
X387602Y395102D01*
X388304Y394563D01*
X389122Y394224D01*
X389500Y394175D01*
Y397000D01*
D02*
G37*
G36*
X393325D02*
X390500D01*
Y394175D01*
X390878Y394224D01*
X391696Y394563D01*
X392398Y395102D01*
X392937Y395804D01*
X393276Y396622D01*
X393325Y397000D01*
D02*
G37*
G36*
X270000Y396670D02*
X268921Y396527D01*
X267915Y396111D01*
X267052Y395448D01*
X266389Y394585D01*
X265973Y393579D01*
X265830Y392500D01*
X265973Y391421D01*
X266389Y390415D01*
X267052Y389552D01*
X267915Y388889D01*
X268921Y388473D01*
X270000Y388331D01*
X271079Y388473D01*
X272085Y388889D01*
X272948Y389552D01*
X273611Y390415D01*
X274027Y391421D01*
X274169Y392500D01*
X274027Y393579D01*
X273611Y394585D01*
X272948Y395448D01*
X272085Y396111D01*
X271079Y396527D01*
X270000Y396670D01*
D02*
G37*
G36*
X300000D02*
X298921Y396527D01*
X297915Y396111D01*
X297052Y395448D01*
X296389Y394585D01*
X295973Y393579D01*
X295830Y392500D01*
X295973Y391421D01*
X296389Y390415D01*
X297052Y389552D01*
X297915Y388889D01*
X298921Y388473D01*
X300000Y388331D01*
X301079Y388473D01*
X302085Y388889D01*
X302948Y389552D01*
X303611Y390415D01*
X304027Y391421D01*
X304170Y392500D01*
X304027Y393579D01*
X303611Y394585D01*
X302948Y395448D01*
X302085Y396111D01*
X301079Y396527D01*
X300000Y396670D01*
D02*
G37*
G36*
X457500Y399169D02*
X456421Y399027D01*
X455415Y398611D01*
X454552Y397948D01*
X453889Y397085D01*
X453473Y396079D01*
X453331Y395000D01*
X453473Y393921D01*
X453889Y392915D01*
X454552Y392052D01*
X455415Y391389D01*
X456421Y390973D01*
X457500Y390830D01*
X458579Y390973D01*
X459585Y391389D01*
X460448Y392052D01*
X461111Y392915D01*
X461527Y393921D01*
X461669Y395000D01*
X461527Y396079D01*
X461111Y397085D01*
X460448Y397948D01*
X459585Y398611D01*
X458579Y399027D01*
X457500Y399169D01*
D02*
G37*
G36*
X467000Y379500D02*
X463579D01*
X463649Y378968D01*
X464047Y378007D01*
X464681Y377181D01*
X465507Y376547D01*
X466468Y376149D01*
X467000Y376079D01*
Y379500D01*
D02*
G37*
G36*
X377000Y380825D02*
X376622Y380776D01*
X375804Y380437D01*
X375102Y379898D01*
X374563Y379196D01*
X374224Y378378D01*
X374175Y378000D01*
X377000D01*
Y380825D01*
D02*
G37*
G36*
X389500D02*
X389122Y380776D01*
X388304Y380437D01*
X387602Y379898D01*
X387063Y379196D01*
X386724Y378378D01*
X386675Y378000D01*
X389500D01*
Y380825D01*
D02*
G37*
G36*
X393325Y377000D02*
X390500D01*
Y374175D01*
X390878Y374224D01*
X391696Y374563D01*
X392398Y375102D01*
X392937Y375804D01*
X393276Y376622D01*
X393325Y377000D01*
D02*
G37*
G36*
X380825D02*
X378000D01*
Y374175D01*
X378378Y374224D01*
X379196Y374563D01*
X379898Y375102D01*
X380437Y375804D01*
X380776Y376622D01*
X380825Y377000D01*
D02*
G37*
G36*
X447500Y384170D02*
X446421Y384027D01*
X445415Y383611D01*
X444552Y382948D01*
X443889Y382085D01*
X443472Y381079D01*
X443330Y380000D01*
X443472Y378921D01*
X443889Y377915D01*
X444552Y377052D01*
X445415Y376389D01*
X446421Y375973D01*
X447500Y375831D01*
X448579Y375973D01*
X449585Y376389D01*
X450448Y377052D01*
X451111Y377915D01*
X451528Y378921D01*
X451670Y380000D01*
X451528Y381079D01*
X451111Y382085D01*
X450448Y382948D01*
X449585Y383611D01*
X448579Y384027D01*
X447500Y384170D01*
D02*
G37*
G36*
X300000Y386669D02*
X298921Y386527D01*
X297915Y386111D01*
X297052Y385448D01*
X296389Y384585D01*
X295973Y383579D01*
X295830Y382500D01*
X295973Y381421D01*
X296389Y380415D01*
X297052Y379552D01*
X297915Y378889D01*
X298921Y378473D01*
X300000Y378330D01*
X301079Y378473D01*
X302085Y378889D01*
X302948Y379552D01*
X303611Y380415D01*
X304027Y381421D01*
X304170Y382500D01*
X304027Y383579D01*
X303611Y384585D01*
X302948Y385448D01*
X302085Y386111D01*
X301079Y386527D01*
X300000Y386669D01*
D02*
G37*
G36*
X358500Y382000D02*
X355079D01*
X355149Y381468D01*
X355547Y380507D01*
X356181Y379681D01*
X357007Y379047D01*
X357968Y378649D01*
X358500Y378579D01*
Y382000D01*
D02*
G37*
G36*
X362921D02*
X359500D01*
Y378579D01*
X360032Y378649D01*
X360993Y379047D01*
X361819Y379681D01*
X362453Y380507D01*
X362851Y381468D01*
X362921Y382000D01*
D02*
G37*
G36*
X390500Y380825D02*
Y378000D01*
X393325D01*
X393276Y378378D01*
X392937Y379196D01*
X392398Y379898D01*
X391696Y380437D01*
X390878Y380776D01*
X390500Y380825D01*
D02*
G37*
G36*
X378000D02*
Y378000D01*
X380825D01*
X380776Y378378D01*
X380437Y379196D01*
X379898Y379898D01*
X379196Y380437D01*
X378378Y380776D01*
X378000Y380825D01*
D02*
G37*
G36*
X270000Y386669D02*
X268921Y386527D01*
X267915Y386111D01*
X267052Y385448D01*
X266389Y384585D01*
X265973Y383579D01*
X265830Y382500D01*
X265973Y381421D01*
X266389Y380415D01*
X267052Y379552D01*
X267915Y378889D01*
X268921Y378473D01*
X270000Y378330D01*
X271079Y378473D01*
X272085Y378889D01*
X272948Y379552D01*
X273611Y380415D01*
X274027Y381421D01*
X274169Y382500D01*
X274027Y383579D01*
X273611Y384585D01*
X272948Y385448D01*
X272085Y386111D01*
X271079Y386527D01*
X270000Y386669D01*
D02*
G37*
G36*
X457500Y419170D02*
X456421Y419028D01*
X455415Y418611D01*
X454552Y417948D01*
X453889Y417085D01*
X453473Y416079D01*
X453331Y415000D01*
X453473Y413921D01*
X453889Y412915D01*
X454552Y412052D01*
X455415Y411389D01*
X456421Y410972D01*
X457500Y410830D01*
X458579Y410972D01*
X459585Y411389D01*
X460448Y412052D01*
X461111Y412915D01*
X461527Y413921D01*
X461669Y415000D01*
X461527Y416079D01*
X461111Y417085D01*
X460448Y417948D01*
X459585Y418611D01*
X458579Y419028D01*
X457500Y419170D01*
D02*
G37*
G36*
X467000Y414500D02*
X463579D01*
X463649Y413968D01*
X464047Y413007D01*
X464681Y412181D01*
X465507Y411547D01*
X466468Y411149D01*
X467000Y411079D01*
Y414500D01*
D02*
G37*
G36*
X227000D02*
X224175D01*
X224224Y414122D01*
X224563Y413304D01*
X225102Y412602D01*
X225804Y412063D01*
X226622Y411724D01*
X227000Y411675D01*
Y414500D01*
D02*
G37*
G36*
X435000Y405907D02*
X384000D01*
X383270Y405762D01*
X382652Y405348D01*
X382652Y405348D01*
X380775Y403472D01*
X380000Y403574D01*
X379075Y403452D01*
X378213Y403095D01*
X377473Y402527D01*
X376905Y401787D01*
X376548Y400925D01*
X376426Y400000D01*
X376548Y399075D01*
X376905Y398213D01*
X377473Y397473D01*
X378213Y396905D01*
X379075Y396548D01*
X380000Y396426D01*
X380925Y396548D01*
X381787Y396905D01*
X382527Y397473D01*
X383095Y398213D01*
X383452Y399075D01*
X383574Y400000D01*
X383472Y400775D01*
X384790Y402093D01*
X434210D01*
X442652Y393652D01*
X443270Y393238D01*
X443799Y393133D01*
X443889Y392915D01*
X444552Y392052D01*
X445415Y391389D01*
X446421Y390973D01*
X447500Y390830D01*
X448579Y390973D01*
X449585Y391389D01*
X450448Y392052D01*
X451111Y392915D01*
X451528Y393921D01*
X451670Y395000D01*
X451528Y396079D01*
X451111Y397085D01*
X450448Y397948D01*
X449585Y398611D01*
X448579Y399027D01*
X447500Y399169D01*
X446421Y399027D01*
X445415Y398611D01*
X444552Y397948D01*
X444434Y397795D01*
X443935Y397762D01*
X436348Y405348D01*
X435730Y405762D01*
X435000Y405907D01*
D02*
G37*
G36*
X467000Y408921D02*
X466468Y408851D01*
X465507Y408453D01*
X464681Y407819D01*
X464047Y406993D01*
X463649Y406032D01*
X463579Y405500D01*
X467000D01*
Y408921D01*
D02*
G37*
G36*
X300000Y416670D02*
X298921Y416528D01*
X297915Y416111D01*
X297052Y415448D01*
X296389Y414585D01*
X295973Y413579D01*
X295830Y412500D01*
X295973Y411421D01*
X296389Y410415D01*
X297052Y409552D01*
X297915Y408889D01*
X298921Y408473D01*
X300000Y408330D01*
X301079Y408473D01*
X302085Y408889D01*
X302948Y409552D01*
X303611Y410415D01*
X304027Y411421D01*
X304170Y412500D01*
X304027Y413579D01*
X303611Y414585D01*
X302948Y415448D01*
X302085Y416111D01*
X301079Y416528D01*
X300000Y416670D01*
D02*
G37*
G36*
X228000Y418325D02*
Y415500D01*
X230825D01*
X230776Y415878D01*
X230437Y416696D01*
X229898Y417398D01*
X229196Y417937D01*
X228378Y418276D01*
X228000Y418325D01*
D02*
G37*
G36*
X437500Y423574D02*
X436575Y423452D01*
X435713Y423095D01*
X434973Y422527D01*
X434405Y421787D01*
X434048Y420925D01*
X433926Y420000D01*
X434048Y419075D01*
X434405Y418213D01*
X434973Y417473D01*
X435094Y417380D01*
X434933Y416907D01*
X420067D01*
X419906Y417380D01*
X420027Y417473D01*
X420595Y418213D01*
X420952Y419075D01*
X421074Y420000D01*
X420952Y420925D01*
X420595Y421787D01*
X420027Y422527D01*
X419287Y423095D01*
X418425Y423452D01*
X417500Y423574D01*
X416575Y423452D01*
X415713Y423095D01*
X414973Y422527D01*
X414405Y421787D01*
X414048Y420925D01*
X413926Y420000D01*
X414048Y419075D01*
X414405Y418213D01*
X414973Y417473D01*
X415094Y417380D01*
X414933Y416907D01*
X390790D01*
X386348Y421348D01*
X385730Y421762D01*
X385000Y421907D01*
X383003D01*
X382527Y422527D01*
X381787Y423095D01*
X380925Y423452D01*
X380000Y423574D01*
X379075Y423452D01*
X378213Y423095D01*
X377473Y422527D01*
X376905Y421787D01*
X376548Y420925D01*
X376426Y420000D01*
X376548Y419075D01*
X376905Y418213D01*
X377473Y417473D01*
X378213Y416905D01*
X379075Y416548D01*
X380000Y416426D01*
X380925Y416548D01*
X381787Y416905D01*
X382527Y417473D01*
X383003Y418093D01*
X384210D01*
X388652Y413652D01*
X389270Y413238D01*
X390000Y413093D01*
X443815D01*
X443889Y412915D01*
X444552Y412052D01*
X445415Y411389D01*
X446421Y410972D01*
X447500Y410830D01*
X448579Y410972D01*
X449585Y411389D01*
X450448Y412052D01*
X451111Y412915D01*
X451528Y413921D01*
X451670Y415000D01*
X451528Y416079D01*
X451111Y417085D01*
X450448Y417948D01*
X449585Y418611D01*
X448579Y419028D01*
X447500Y419170D01*
X446421Y419028D01*
X445415Y418611D01*
X444552Y417948D01*
X443889Y417085D01*
X443815Y416907D01*
X440067D01*
X439906Y417380D01*
X440027Y417473D01*
X440595Y418213D01*
X440952Y419075D01*
X441074Y420000D01*
X440952Y420925D01*
X440595Y421787D01*
X440027Y422527D01*
X439287Y423095D01*
X438425Y423452D01*
X437500Y423574D01*
D02*
G37*
G36*
X299500Y422000D02*
X296079D01*
X296149Y421468D01*
X296547Y420507D01*
X297181Y419681D01*
X298007Y419047D01*
X298968Y418649D01*
X299500Y418579D01*
Y422000D01*
D02*
G37*
G36*
X230825Y414500D02*
X228000D01*
Y411675D01*
X228378Y411724D01*
X229196Y412063D01*
X229898Y412602D01*
X230437Y413304D01*
X230776Y414122D01*
X230825Y414500D01*
D02*
G37*
G36*
X467000Y418921D02*
X466468Y418851D01*
X465507Y418453D01*
X464681Y417819D01*
X464047Y416993D01*
X463649Y416032D01*
X463579Y415500D01*
X467000D01*
Y418921D01*
D02*
G37*
G36*
X227000Y418325D02*
X226622Y418276D01*
X225804Y417937D01*
X225102Y417398D01*
X224563Y416696D01*
X224224Y415878D01*
X224175Y415500D01*
X227000D01*
Y418325D01*
D02*
G37*
G36*
X389500Y400825D02*
X389122Y400776D01*
X388304Y400437D01*
X387602Y399898D01*
X387063Y399196D01*
X386724Y398378D01*
X386675Y398000D01*
X389500D01*
Y400825D01*
D02*
G37*
G36*
X390500D02*
Y398000D01*
X393325D01*
X393276Y398378D01*
X392937Y399196D01*
X392398Y399898D01*
X391696Y400437D01*
X390878Y400776D01*
X390500Y400825D01*
D02*
G37*
G36*
X300000Y406670D02*
X298921Y406527D01*
X297915Y406111D01*
X297052Y405448D01*
X296389Y404585D01*
X295973Y403579D01*
X295830Y402500D01*
X295973Y401421D01*
X296389Y400415D01*
X297052Y399552D01*
X297915Y398889D01*
X298921Y398473D01*
X300000Y398330D01*
X301079Y398473D01*
X302085Y398889D01*
X302948Y399552D01*
X303611Y400415D01*
X304027Y401421D01*
X304170Y402500D01*
X304027Y403579D01*
X303611Y404585D01*
X302948Y405448D01*
X302085Y406111D01*
X301079Y406527D01*
X300000Y406670D01*
D02*
G37*
G36*
X244500Y403169D02*
X243421Y403027D01*
X242415Y402611D01*
X241552Y401948D01*
X240889Y401085D01*
X240473Y400079D01*
X240331Y399000D01*
X240473Y397921D01*
X240889Y396915D01*
X241552Y396052D01*
X242415Y395389D01*
X243421Y394973D01*
X244500Y394830D01*
X245579Y394973D01*
X246585Y395389D01*
X247448Y396052D01*
X248111Y396915D01*
X248527Y397921D01*
X248670Y399000D01*
X248527Y400079D01*
X248111Y401085D01*
X247448Y401948D01*
X246585Y402611D01*
X245579Y403027D01*
X244500Y403169D01*
D02*
G37*
G36*
X467000Y398953D02*
X463547D01*
Y395500D01*
X467000D01*
Y398953D01*
D02*
G37*
G36*
X308000Y405780D02*
X307281Y405685D01*
X306610Y405407D01*
X306034Y404965D01*
X305593Y404390D01*
X305315Y403719D01*
X305220Y403000D01*
X305315Y402281D01*
X305593Y401610D01*
X306034Y401034D01*
X306610Y400593D01*
X306782Y400522D01*
X314652Y392652D01*
X315270Y392238D01*
X316000Y392093D01*
X321033D01*
X321279Y391593D01*
X320889Y391085D01*
X320473Y390079D01*
X320331Y389000D01*
X320473Y387921D01*
X320889Y386915D01*
X321552Y386052D01*
X322415Y385389D01*
X323421Y384973D01*
X324500Y384830D01*
X325425Y384952D01*
X327939Y382439D01*
X328655Y381960D01*
X329500Y381792D01*
X344924D01*
X344973Y381421D01*
X345389Y380415D01*
X346052Y379552D01*
X346915Y378889D01*
X347921Y378473D01*
X349000Y378330D01*
X350079Y378473D01*
X351085Y378889D01*
X351948Y379552D01*
X352611Y380415D01*
X353027Y381421D01*
X353169Y382500D01*
X353027Y383579D01*
X352611Y384585D01*
X351948Y385448D01*
X351085Y386111D01*
X350079Y386527D01*
X349000Y386669D01*
X347921Y386527D01*
X347149Y386208D01*
X330415D01*
X328548Y388075D01*
X328670Y389000D01*
X328527Y390079D01*
X328111Y391085D01*
X327721Y391593D01*
X327967Y392093D01*
X330210D01*
X333414Y388890D01*
X333460Y388655D01*
X333939Y387939D01*
X334655Y387460D01*
X335500Y387292D01*
X365585D01*
X368292Y384585D01*
Y373500D01*
X368460Y372655D01*
X368939Y371939D01*
X374841Y366037D01*
X364210Y355407D01*
X348290D01*
X338348Y365348D01*
X337730Y365762D01*
X337000Y365907D01*
X327967D01*
X327721Y366407D01*
X328016Y366792D01*
X341585D01*
X344952Y363425D01*
X344830Y362500D01*
X344973Y361421D01*
X345389Y360415D01*
X346052Y359552D01*
X346915Y358889D01*
X347921Y358473D01*
X349000Y358330D01*
X350079Y358473D01*
X351085Y358889D01*
X351948Y359552D01*
X352611Y360415D01*
X353027Y361421D01*
X353169Y362500D01*
X353027Y363579D01*
X352611Y364585D01*
X351948Y365448D01*
X351085Y366111D01*
X350079Y366527D01*
X349000Y366670D01*
X348075Y366548D01*
X344061Y370561D01*
X343345Y371040D01*
X342500Y371208D01*
X338709D01*
X338540Y371708D01*
X338966Y372035D01*
X339407Y372610D01*
X339685Y373281D01*
X339780Y374000D01*
X339685Y374719D01*
X339407Y375390D01*
X338966Y375965D01*
X338540Y376292D01*
X338709Y376792D01*
X341585D01*
X344952Y373425D01*
X344830Y372500D01*
X344973Y371421D01*
X345389Y370415D01*
X346052Y369552D01*
X346915Y368889D01*
X347921Y368473D01*
X349000Y368331D01*
X350079Y368473D01*
X351085Y368889D01*
X351948Y369552D01*
X352611Y370415D01*
X353027Y371421D01*
X353169Y372500D01*
X353027Y373579D01*
X352611Y374585D01*
X351948Y375448D01*
X351085Y376111D01*
X350079Y376527D01*
X349000Y376670D01*
X348075Y376548D01*
X344061Y380561D01*
X343345Y381040D01*
X342500Y381208D01*
X328016D01*
X327448Y381948D01*
X326585Y382611D01*
X325579Y383027D01*
X324500Y383170D01*
X323421Y383027D01*
X322415Y382611D01*
X321552Y381948D01*
X320889Y381085D01*
X320473Y380079D01*
X320331Y379000D01*
X320473Y377921D01*
X320889Y376915D01*
X321279Y376407D01*
X321033Y375907D01*
X308261D01*
X307730Y376262D01*
X307000Y376407D01*
X304511D01*
X304466Y376466D01*
X303890Y376907D01*
X303219Y377185D01*
X302500Y377280D01*
X301781Y377185D01*
X301110Y376907D01*
X300535Y376466D01*
X300093Y375890D01*
X299815Y375219D01*
X299720Y374500D01*
X299815Y373781D01*
X300093Y373110D01*
X300535Y372534D01*
X301110Y372093D01*
X301781Y371815D01*
X302500Y371720D01*
X303219Y371815D01*
X303890Y372093D01*
X304466Y372534D01*
X304511Y372593D01*
X306239D01*
X306770Y372238D01*
X307500Y372093D01*
X307500Y372093D01*
X321033D01*
X321279Y371593D01*
X320889Y371085D01*
X320473Y370079D01*
X320331Y369000D01*
X320473Y367921D01*
X320889Y366915D01*
X321279Y366407D01*
X321033Y365907D01*
X304511D01*
X304466Y365966D01*
X303890Y366407D01*
X303219Y366685D01*
X302500Y366780D01*
X301781Y366685D01*
X301110Y366407D01*
X300535Y365966D01*
X300093Y365390D01*
X299815Y364719D01*
X299720Y364000D01*
X299815Y363281D01*
X300093Y362610D01*
X300535Y362035D01*
X301110Y361593D01*
X301781Y361315D01*
X302500Y361220D01*
X303219Y361315D01*
X303890Y361593D01*
X304466Y362035D01*
X304511Y362093D01*
X321261D01*
X321508Y361593D01*
X321047Y360993D01*
X320649Y360032D01*
X320579Y359500D01*
X324500D01*
X328421D01*
X328351Y360032D01*
X327953Y360993D01*
X327492Y361593D01*
X327739Y362093D01*
X336210D01*
X346152Y352152D01*
X346770Y351738D01*
X347500Y351593D01*
X365000D01*
X365730Y351738D01*
X366348Y352152D01*
X377132Y362936D01*
X396996D01*
X397225Y362707D01*
X397225Y362707D01*
X397843Y362294D01*
X398573Y362148D01*
X398573Y362148D01*
X401427D01*
X402157Y362294D01*
X402368Y362435D01*
X406528Y358275D01*
X406426Y357500D01*
X406548Y356575D01*
X406905Y355713D01*
X407473Y354973D01*
X408213Y354405D01*
X409075Y354048D01*
X410000Y353926D01*
X410925Y354048D01*
X411787Y354405D01*
X412527Y354973D01*
X413095Y355713D01*
X413452Y356575D01*
X413574Y357500D01*
X413521Y357899D01*
X415325Y359703D01*
X415713Y359405D01*
X416575Y359048D01*
X417500Y358926D01*
X418425Y359048D01*
X419287Y359405D01*
X420027Y359973D01*
X420272Y360292D01*
X426585D01*
X433979Y352899D01*
X433926Y352500D01*
X434048Y351575D01*
X434405Y350713D01*
X434973Y349973D01*
X435713Y349405D01*
X436575Y349048D01*
X437500Y348926D01*
X438425Y349048D01*
X439287Y349405D01*
X440027Y349973D01*
X440595Y350713D01*
X440952Y351575D01*
X441074Y352500D01*
X440952Y353425D01*
X440595Y354287D01*
X440027Y355027D01*
X439287Y355595D01*
X438425Y355952D01*
X437500Y356074D01*
X437101Y356021D01*
X429061Y364061D01*
X428345Y364540D01*
X427500Y364708D01*
X420272D01*
X420027Y365027D01*
X419287Y365595D01*
X418425Y365952D01*
X417500Y366074D01*
X416575Y365952D01*
X415713Y365595D01*
X414973Y365027D01*
X414679Y364644D01*
X414155Y364540D01*
X413439Y364061D01*
X410399Y361021D01*
X410000Y361074D01*
X409225Y360972D01*
X403784Y366412D01*
X403166Y366826D01*
X402703Y366918D01*
X402780Y367500D01*
X402685Y368219D01*
X402407Y368890D01*
X401966Y369465D01*
X401390Y369907D01*
X400719Y370185D01*
X400000Y370280D01*
X399281Y370185D01*
X398610Y369907D01*
X398350Y369708D01*
X377414D01*
X372708Y374414D01*
Y385500D01*
X372540Y386345D01*
X372113Y386983D01*
X372502Y387302D01*
X377152Y382652D01*
X377152Y382652D01*
X377770Y382238D01*
X378500Y382093D01*
X378500Y382093D01*
X402710D01*
X406528Y378275D01*
X406426Y377500D01*
X406548Y376575D01*
X406905Y375713D01*
X407473Y374973D01*
X408213Y374405D01*
X409075Y374048D01*
X410000Y373926D01*
X410925Y374048D01*
X411787Y374405D01*
X412527Y374973D01*
X413095Y375713D01*
X413452Y376575D01*
X413574Y377500D01*
X413521Y377899D01*
X415325Y379703D01*
X415713Y379405D01*
X416575Y379048D01*
X417500Y378926D01*
X418425Y379048D01*
X419287Y379405D01*
X420027Y379973D01*
X420272Y380292D01*
X426585D01*
X433979Y372899D01*
X433926Y372500D01*
X434048Y371575D01*
X434405Y370713D01*
X434973Y369973D01*
X435713Y369405D01*
X436575Y369048D01*
X437500Y368926D01*
X438425Y369048D01*
X439287Y369405D01*
X440027Y369973D01*
X440595Y370713D01*
X440952Y371575D01*
X441074Y372500D01*
X440952Y373425D01*
X440595Y374287D01*
X440027Y375027D01*
X439287Y375595D01*
X438425Y375952D01*
X437500Y376074D01*
X437101Y376021D01*
X429061Y384061D01*
X428345Y384540D01*
X427500Y384708D01*
X420272D01*
X420027Y385027D01*
X419287Y385595D01*
X418425Y385952D01*
X417500Y386074D01*
X416575Y385952D01*
X415713Y385595D01*
X414973Y385027D01*
X414679Y384644D01*
X414155Y384540D01*
X413439Y384061D01*
X410399Y381021D01*
X410000Y381074D01*
X409225Y380972D01*
X404848Y385348D01*
X404230Y385762D01*
X403500Y385907D01*
X379290D01*
X369848Y395348D01*
X369230Y395762D01*
X368500Y395907D01*
X363485D01*
X363485Y395907D01*
X362756Y395762D01*
X362625Y395674D01*
X339189D01*
X338966Y395966D01*
X338390Y396407D01*
X337941Y396593D01*
X338040Y397093D01*
X357968D01*
X358213Y396905D01*
X359075Y396548D01*
X360000Y396426D01*
X360925Y396548D01*
X361787Y396905D01*
X362527Y397473D01*
X363095Y398213D01*
X363452Y399075D01*
X363574Y400000D01*
X363452Y400925D01*
X363095Y401787D01*
X362527Y402527D01*
X361787Y403095D01*
X360925Y403452D01*
X360000Y403574D01*
X359075Y403452D01*
X358213Y403095D01*
X357473Y402527D01*
X356905Y401787D01*
X356548Y400925D01*
X356545Y400907D01*
X328185D01*
X328111Y401085D01*
X327448Y401948D01*
X326585Y402611D01*
X325579Y403027D01*
X324500Y403169D01*
X323421Y403027D01*
X322415Y402611D01*
X321552Y401948D01*
X320889Y401085D01*
X320473Y400079D01*
X320331Y399000D01*
X320473Y397921D01*
X320889Y396915D01*
X321279Y396407D01*
X321033Y395907D01*
X316790D01*
X310606Y402090D01*
X310685Y402281D01*
X310780Y403000D01*
X310685Y403719D01*
X310407Y404390D01*
X309965Y404965D01*
X309390Y405407D01*
X308719Y405685D01*
X308000Y405780D01*
D02*
G37*
G36*
X380000Y413574D02*
X379075Y413452D01*
X378213Y413095D01*
X377473Y412527D01*
X376905Y411787D01*
X376548Y410925D01*
X376426Y410000D01*
X376548Y409075D01*
X376905Y408213D01*
X377473Y407473D01*
X378213Y406905D01*
X379075Y406548D01*
X380000Y406426D01*
X380925Y406548D01*
X381787Y406905D01*
X382527Y407473D01*
X383003Y408093D01*
X436210D01*
X440652Y403652D01*
X441270Y403238D01*
X442000Y403093D01*
X443815D01*
X443889Y402915D01*
X444552Y402052D01*
X445415Y401389D01*
X446421Y400973D01*
X447500Y400831D01*
X448579Y400973D01*
X449585Y401389D01*
X450448Y402052D01*
X451111Y402915D01*
X451528Y403921D01*
X451670Y405000D01*
X451528Y406079D01*
X451111Y407085D01*
X450448Y407948D01*
X449585Y408611D01*
X448579Y409027D01*
X447500Y409169D01*
X446421Y409027D01*
X445415Y408611D01*
X444552Y407948D01*
X443889Y407085D01*
X443815Y406907D01*
X442790D01*
X438348Y411348D01*
X437730Y411762D01*
X437000Y411907D01*
X383003D01*
X382527Y412527D01*
X381787Y413095D01*
X380925Y413452D01*
X380000Y413574D01*
D02*
G37*
G36*
X457500Y409169D02*
X456421Y409027D01*
X455415Y408611D01*
X454552Y407948D01*
X453889Y407085D01*
X453473Y406079D01*
X453331Y405000D01*
X453473Y403921D01*
X453889Y402915D01*
X454552Y402052D01*
X455415Y401389D01*
X456421Y400973D01*
X457500Y400831D01*
X458579Y400973D01*
X459585Y401389D01*
X460448Y402052D01*
X461111Y402915D01*
X461527Y403921D01*
X461669Y405000D01*
X461527Y406079D01*
X461111Y407085D01*
X460448Y407948D01*
X459585Y408611D01*
X458579Y409027D01*
X457500Y409169D01*
D02*
G37*
G36*
X467000Y404500D02*
X463579D01*
X463649Y403968D01*
X464047Y403007D01*
X464681Y402181D01*
X465507Y401547D01*
X466468Y401149D01*
X467000Y401079D01*
Y404500D01*
D02*
G37*
G36*
X214134Y407134D02*
X205866D01*
Y398866D01*
X214134D01*
Y407134D01*
D02*
G37*
G36*
X221000Y406574D02*
X220075Y406452D01*
X219213Y406095D01*
X218473Y405527D01*
X217905Y404787D01*
X217548Y403925D01*
X217426Y403000D01*
X217548Y402075D01*
X217905Y401213D01*
X218473Y400473D01*
X219213Y399905D01*
X220075Y399548D01*
X221000Y399426D01*
X221925Y399548D01*
X222787Y399905D01*
X223527Y400473D01*
X224095Y401213D01*
X224452Y402075D01*
X224574Y403000D01*
X224452Y403925D01*
X224095Y404787D01*
X223527Y405527D01*
X222787Y406095D01*
X221925Y406452D01*
X221000Y406574D01*
D02*
G37*
G36*
X231500D02*
X230575Y406452D01*
X229713Y406095D01*
X228973Y405527D01*
X228405Y404787D01*
X228048Y403925D01*
X227926Y403000D01*
X227979Y402601D01*
X220585Y395208D01*
X213516D01*
X212948Y395948D01*
X212085Y396611D01*
X211079Y397027D01*
X210000Y397169D01*
X208921Y397027D01*
X207915Y396611D01*
X207052Y395948D01*
X206389Y395085D01*
X205973Y394079D01*
X205831Y393000D01*
X205973Y391921D01*
X206389Y390915D01*
X207052Y390052D01*
X207915Y389389D01*
X208921Y388973D01*
X210000Y388830D01*
X211079Y388973D01*
X212085Y389389D01*
X212948Y390052D01*
X213516Y390792D01*
X221500D01*
X222345Y390960D01*
X223061Y391439D01*
X231101Y399479D01*
X231500Y399426D01*
X232425Y399548D01*
X233287Y399905D01*
X234027Y400473D01*
X234595Y401213D01*
X234952Y402075D01*
X235074Y403000D01*
X234952Y403925D01*
X234595Y404787D01*
X234027Y405527D01*
X233287Y406095D01*
X232425Y406452D01*
X231500Y406574D01*
D02*
G37*
%LPD*%
D10*
X398500Y481500D02*
X410000D01*
X379000Y472500D02*
X381500Y470000D01*
Y459003D02*
Y470000D01*
X366500Y451500D02*
X367500Y452500D01*
X366500Y442500D02*
Y451500D01*
X367500Y472500D02*
X379000D01*
X345500Y452500D02*
X367500D01*
X342500Y437500D02*
X366500D01*
X299500Y359000D02*
X317000D01*
X292500Y366000D02*
X299500Y359000D01*
X292500Y366000D02*
Y420000D01*
X335000Y463000D02*
X345500Y452500D01*
X366500Y432500D02*
X380000D01*
X387500Y492500D02*
X398500Y481500D01*
X418000Y488500D02*
Y495500D01*
X442099Y425000D02*
X447500D01*
X439579Y427520D02*
X442099Y425000D01*
X439480Y427520D02*
X439579D01*
X367500Y492500D02*
Y494500D01*
X454000Y432500D02*
X457500Y429000D01*
X443500Y432500D02*
X454000D01*
X457500Y425000D02*
Y429000D01*
X467500Y450000D02*
Y460000D01*
Y440000D02*
Y450000D01*
Y425000D02*
Y440000D01*
Y415000D02*
Y425000D01*
Y405000D02*
Y415000D01*
Y395000D02*
Y405000D01*
Y370000D02*
Y380000D01*
Y360000D02*
Y370000D01*
Y350000D02*
Y360000D01*
X378000Y377500D02*
X390000D01*
X413500Y308500D02*
X417500Y312500D01*
X399000Y308500D02*
X413500D01*
X390000Y317500D02*
X399000Y308500D01*
X365000Y308000D02*
X380500D01*
X348000D02*
X365000D01*
X364906Y308095D02*
X365000Y308000D01*
X364906Y308095D02*
Y315000D01*
X380500Y308000D02*
X390000Y317500D01*
X347189Y308811D02*
X348000Y308000D01*
X347189Y308811D02*
Y315000D01*
X390000Y337500D02*
Y341000D01*
X317000Y359000D02*
X324500D01*
X317000Y329500D02*
Y359000D01*
X324500Y339000D02*
X331500Y332000D01*
Y324000D02*
Y332000D01*
X245000Y346000D02*
Y352500D01*
X295000Y422500D02*
X300000D01*
X292500Y420000D02*
X295000Y422500D01*
X224000Y362500D02*
X230000D01*
X213500Y373000D02*
X224000Y362500D01*
X210000Y373000D02*
X213500D01*
X220500Y415000D02*
X227500D01*
X210500Y425000D02*
X220500Y415000D01*
X240000Y352500D02*
X245000D01*
X230000Y362500D02*
X240000Y352500D01*
X206500Y369500D02*
X210000Y373000D01*
X206500Y348500D02*
Y369500D01*
Y348500D02*
X212500Y342500D01*
X225500Y349500D02*
X233500D01*
X212500Y362500D02*
X225500Y349500D01*
X409000Y435000D02*
X413000Y439000D01*
X382500Y435000D02*
X409000D01*
X381500Y459003D02*
X407503D01*
X413000Y464500D01*
X410000Y481500D02*
X413000Y478500D01*
Y464500D02*
Y464591D01*
Y478500D01*
X380000Y432500D02*
X382500Y435000D01*
X426500Y440500D02*
X439480Y427520D01*
X426500Y440500D02*
Y480000D01*
X418000Y488500D02*
X426500Y480000D01*
X433500Y442500D02*
X443500Y432500D01*
X433500Y442500D02*
Y486500D01*
X427500Y492500D02*
X433500Y486500D01*
X367500Y494500D02*
X373000Y500000D01*
X413500D01*
X418000Y495500D01*
X335000Y463000D02*
Y469000D01*
X357625Y472500D02*
X367500D01*
X355000Y469875D02*
X357625Y472500D01*
X311500Y324000D02*
X317000Y329500D01*
X256500Y324000D02*
X311500D01*
X239500Y326500D02*
X249000Y317000D01*
X324500D01*
X331500Y324000D01*
X233500Y349500D02*
X239500Y343500D01*
Y326500D02*
Y343500D01*
X251000Y329500D02*
X256500Y324000D01*
X251000Y329500D02*
Y340000D01*
X245000Y346000D02*
X251000Y340000D01*
X386000Y345000D02*
X390000Y341000D01*
X340000Y345000D02*
X359000D01*
X377500D01*
X386000D01*
X324500Y359000D02*
X329500D01*
X340000Y348500D01*
Y345000D02*
Y348500D01*
X377500Y378000D02*
X378000Y377500D01*
D11*
X308000Y402000D02*
Y403000D01*
X378500Y384000D02*
X403500D01*
X368500Y394000D02*
X378500Y384000D01*
X264323Y427677D02*
X278677D01*
X293500Y442500D01*
X300000D01*
X262000Y419000D02*
X263500Y417500D01*
X244500Y419000D02*
X262000D01*
X403500Y384000D02*
X410000Y377500D01*
X316000Y394000D02*
X331000D01*
X308000Y402000D02*
X316000Y394000D01*
X339000Y414000D02*
X342500Y417500D01*
X318500Y414000D02*
X339000D01*
X305000Y427500D02*
X318500Y414000D01*
X244500Y409000D02*
X246000Y407500D01*
X417500Y352500D02*
X424000D01*
X429000Y347500D01*
X440000D01*
X442000Y349500D01*
Y353500D01*
X443500Y355000D01*
X462500D01*
X467500Y360000D01*
X264000Y422500D02*
X270000D01*
X238500Y424000D02*
X262500D01*
X264000Y422500D01*
X227500Y435000D02*
X238500Y424000D01*
X244500Y429000D02*
X263000D01*
X264323Y427677D01*
X231500Y383000D02*
X240323Y374177D01*
X260000D01*
X262500Y454000D02*
X309500D01*
X324500Y469000D01*
X363253Y393768D02*
X363485Y394000D01*
X368500D01*
X337000D02*
X337232Y393768D01*
X363253D01*
X324500Y419000D02*
X332500D01*
X337000Y423500D01*
X356500D01*
X360000Y420000D01*
X324500Y409000D02*
X359000D01*
X360000Y410000D01*
X324500Y399000D02*
X359000D01*
X360000Y400000D01*
X380000Y410000D02*
X437000D01*
X442000Y405000D01*
X447500D01*
X435000Y404000D02*
X444000Y395000D01*
X447500D01*
X380000Y400000D02*
X384000Y404000D01*
X435000D01*
X380000Y420000D02*
X385000D01*
X390000Y415000D01*
X447500D01*
X246000Y407500D02*
X273000D01*
X293000Y427500D01*
X305000D01*
X263500Y417500D02*
X276000D01*
X291000Y432500D01*
X300000D01*
X302500Y364000D02*
X337000D01*
X302500Y374500D02*
X307000D01*
X307500Y374000D01*
X337000D01*
X397786Y364843D02*
X398573Y364055D01*
X401427D01*
X402436Y365064D01*
X402436D01*
X410000Y357500D01*
X331000Y394000D02*
X335500Y389500D01*
X337000Y364000D02*
X347500Y353500D01*
X365000D01*
X376343Y364843D01*
X397786D01*
D12*
X271500Y360500D02*
X285500Y374500D01*
X241000Y360500D02*
X271500D01*
X221000Y380500D02*
X241000Y360500D01*
X221000Y380500D02*
Y383000D01*
X381500Y357500D02*
X391500Y347500D01*
X377500Y357500D02*
X381500D01*
X453500Y388000D02*
X457500Y384000D01*
X442000Y388000D02*
X453500D01*
X437500Y392500D02*
X442000Y388000D01*
X292500Y480000D02*
X305000D01*
X329500Y495000D02*
X333500Y491000D01*
X410000Y397500D02*
X432500D01*
X437500Y392500D01*
X457500Y380000D02*
Y384000D01*
Y370000D02*
Y380000D01*
Y360000D02*
Y370000D01*
X420500Y347500D02*
X430500Y337500D01*
X391500Y347500D02*
X420500D01*
X427500Y332500D02*
X437500D01*
X417500Y342500D02*
X427500Y332500D01*
X410000Y377500D02*
X415000Y382500D01*
X417500D01*
X427500D01*
X437500Y372500D01*
X427500Y362500D02*
X437500Y352500D01*
X417500Y362500D02*
X427500D01*
X410000Y357500D02*
X415000Y362500D01*
X417500D01*
X415000Y322500D02*
X417500D01*
X410000Y317500D02*
X415000Y322500D01*
X427500D02*
X437500Y312500D01*
X417500Y322500D02*
X427500D01*
X410000Y337500D02*
X415000Y342500D01*
X417500D01*
X244500Y449000D02*
X251000Y442500D01*
X276500Y439000D02*
Y446000D01*
X270000Y432500D02*
X276500Y439000D01*
X251000Y442500D02*
X270000D01*
X244500Y439000D02*
X246000Y437500D01*
X257500D01*
X244500Y459000D02*
X254000Y449500D01*
X273000D01*
X276500Y446000D01*
X448612Y341112D02*
X457500Y350000D01*
X430500Y337500D02*
X443250D01*
X446862Y341112D02*
X448612D01*
X443250Y337500D02*
X446862Y341112D01*
X439000Y448500D02*
X447500Y440000D01*
X439000Y448500D02*
Y495000D01*
X430059Y503941D02*
X439000Y495000D01*
X210000Y393000D02*
X221500D01*
X231500Y403000D01*
X210500Y455000D02*
Y459500D01*
X216000Y465000D01*
X221500D01*
X211500Y445000D02*
X231500Y465000D01*
X210500Y445000D02*
X211500D01*
X231500Y465000D02*
Y466000D01*
X244500Y479000D01*
X231500Y458000D02*
X233500D01*
X244500Y469000D01*
X457500Y460000D02*
Y464000D01*
X462000Y468500D01*
X471000D01*
X457500Y345500D02*
Y350000D01*
Y345500D02*
X462000Y341000D01*
X472000D01*
X333500Y491000D02*
X345000D01*
X472000Y341000D02*
X474000Y343000D01*
Y465500D01*
X471000Y468500D02*
X474000Y465500D01*
X310000Y495000D02*
X329500D01*
X255000Y500500D02*
X258441Y503941D01*
X430059D01*
X324500Y379000D02*
X342500D01*
X335500Y389500D02*
X366500D01*
X370500Y385500D01*
X342500Y379000D02*
X349000Y372500D01*
X324500Y389000D02*
X329500Y384000D01*
X347500D01*
X349000Y382500D01*
X324500Y369000D02*
X342500D01*
X349000Y362500D01*
X370500Y373500D02*
Y385500D01*
Y373500D02*
X376500Y367500D01*
X400000D01*
D14*
X345000Y496000D02*
D03*
X366500Y432500D02*
D03*
D15*
X345000Y491000D02*
D03*
Y486000D02*
D03*
X366500Y437500D02*
D03*
Y442500D02*
D03*
D16*
X231500Y445000D02*
D03*
Y465000D02*
D03*
X221500Y445000D02*
D03*
Y465000D02*
D03*
X227500Y415000D02*
D03*
Y435000D02*
D03*
X231500Y403000D02*
D03*
Y383000D02*
D03*
X221000Y403000D02*
D03*
Y383000D02*
D03*
X212500Y342500D02*
D03*
Y362500D02*
D03*
X230000D02*
D03*
Y342500D02*
D03*
X245000Y332500D02*
D03*
Y352500D02*
D03*
X257500D02*
D03*
Y332500D02*
D03*
X270000Y352500D02*
D03*
Y332500D02*
D03*
X282500D02*
D03*
Y352500D02*
D03*
X295000Y332500D02*
D03*
Y352500D02*
D03*
X307500D02*
D03*
Y332500D02*
D03*
X305000Y480000D02*
D03*
Y460000D02*
D03*
X292500D02*
D03*
Y480000D02*
D03*
X275000D02*
D03*
Y460000D02*
D03*
X262500D02*
D03*
Y480000D02*
D03*
X290000Y495000D02*
D03*
X310000D02*
D03*
X342500Y437500D02*
D03*
Y417500D02*
D03*
X335000Y469000D02*
D03*
X355000D02*
D03*
X367500Y452500D02*
D03*
Y472500D02*
D03*
X417500Y420000D02*
D03*
X437500D02*
D03*
X377500Y345000D02*
D03*
Y325000D02*
D03*
X359000Y345000D02*
D03*
Y325000D02*
D03*
X340000Y345000D02*
D03*
Y325000D02*
D03*
X377500Y377500D02*
D03*
Y357500D02*
D03*
X390000Y397500D02*
D03*
X410000D02*
D03*
X390000Y377500D02*
D03*
X410000D02*
D03*
X390000Y357500D02*
D03*
X410000D02*
D03*
X390000Y337500D02*
D03*
X410000D02*
D03*
X390000Y317500D02*
D03*
X410000D02*
D03*
X417500Y392500D02*
D03*
X437500D02*
D03*
X417500Y382500D02*
D03*
X437500D02*
D03*
Y372500D02*
D03*
X417500D02*
D03*
Y362500D02*
D03*
X437500D02*
D03*
Y352500D02*
D03*
X417500D02*
D03*
Y342500D02*
D03*
X437500D02*
D03*
Y332500D02*
D03*
X417500D02*
D03*
Y322500D02*
D03*
X437500D02*
D03*
Y312500D02*
D03*
X417500D02*
D03*
X360000Y400000D02*
D03*
X380000D02*
D03*
X360000Y410000D02*
D03*
X380000D02*
D03*
X360000Y420000D02*
D03*
X380000D02*
D03*
D17*
X347189Y315000D02*
D03*
X353095D02*
D03*
X359000D02*
D03*
X364906D02*
D03*
D18*
X370811D02*
D03*
D19*
X367500Y492500D02*
D03*
D20*
X387500D02*
D03*
X407500D02*
D03*
X427500D02*
D03*
D21*
X210500Y425000D02*
D03*
Y435000D02*
D03*
Y445000D02*
D03*
X324500Y469000D02*
D03*
Y459000D02*
D03*
Y449000D02*
D03*
Y439000D02*
D03*
Y429000D02*
D03*
Y419000D02*
D03*
Y409000D02*
D03*
Y399000D02*
D03*
Y389000D02*
D03*
Y379000D02*
D03*
Y369000D02*
D03*
Y359000D02*
D03*
Y349000D02*
D03*
Y339000D02*
D03*
Y329000D02*
D03*
X210000Y373000D02*
D03*
Y383000D02*
D03*
Y393000D02*
D03*
X300000Y382500D02*
D03*
Y392500D02*
D03*
Y402500D02*
D03*
Y412500D02*
D03*
Y422500D02*
D03*
Y432500D02*
D03*
Y442500D02*
D03*
X270000Y382500D02*
D03*
Y392500D02*
D03*
Y402500D02*
D03*
Y412500D02*
D03*
Y422500D02*
D03*
Y432500D02*
D03*
X457500Y350000D02*
D03*
X447500D02*
D03*
X467500Y360000D02*
D03*
X457500D02*
D03*
X447500D02*
D03*
X467500Y370000D02*
D03*
X457500D02*
D03*
X447500D02*
D03*
X467500Y380000D02*
D03*
X457500D02*
D03*
X447500D02*
D03*
X457500Y395000D02*
D03*
X447500D02*
D03*
X467500Y405000D02*
D03*
X457500D02*
D03*
X447500D02*
D03*
X467500Y415000D02*
D03*
X457500D02*
D03*
X447500D02*
D03*
X467500Y425000D02*
D03*
X457500D02*
D03*
X447500D02*
D03*
Y460000D02*
D03*
X457500D02*
D03*
X467500D02*
D03*
X447500Y450000D02*
D03*
X457500D02*
D03*
X467500D02*
D03*
X447500Y440000D02*
D03*
X457500D02*
D03*
X413000Y439000D02*
D03*
Y464591D02*
D03*
X244500Y479000D02*
D03*
Y469000D02*
D03*
Y459000D02*
D03*
Y449000D02*
D03*
Y439000D02*
D03*
Y429000D02*
D03*
Y419000D02*
D03*
Y409000D02*
D03*
Y399000D02*
D03*
Y389000D02*
D03*
Y379000D02*
D03*
X349000Y382500D02*
D03*
X359000D02*
D03*
X349000Y372500D02*
D03*
X359000D02*
D03*
X349000Y362500D02*
D03*
D22*
X210500Y455000D02*
D03*
X324500Y479000D02*
D03*
X210000Y403000D02*
D03*
X244500Y369000D02*
D03*
X359000Y362500D02*
D03*
D23*
X270000Y442500D02*
D03*
X467500Y350000D02*
D03*
Y395000D02*
D03*
Y440000D02*
D03*
D24*
X381500Y459003D02*
D03*
Y434997D02*
D03*
D25*
X337000Y394000D02*
D03*
X308000Y403000D02*
D03*
X285500Y374500D02*
D03*
X400000Y367500D02*
D03*
X257500Y437500D02*
D03*
X260000Y374177D02*
D03*
X262500Y454000D02*
D03*
X302500Y364000D02*
D03*
X231500Y458000D02*
D03*
X255000Y500500D02*
D03*
X302500Y374500D02*
D03*
X337000Y374000D02*
D03*
M02*
