G04 Layer_Color=16711935*
%FSLAX25Y25*%
%MOIN*%
G70*
G01*
G75*
%ADD33R,0.04646X0.04646*%
%ADD34C,0.04646*%
%ADD35C,0.05524*%
%ADD36O,0.05131X0.06706*%
G04:AMPARAMS|DCode=37|XSize=67.06mil|YSize=51.31mil|CornerRadius=14.83mil|HoleSize=0mil|Usage=FLASHONLY|Rotation=270.000|XOffset=0mil|YOffset=0mil|HoleType=Round|Shape=RoundedRectangle|*
%AMROUNDEDRECTD37*
21,1,0.06706,0.02165,0,0,270.0*
21,1,0.03740,0.05131,0,0,270.0*
1,1,0.02965,-0.01083,-0.01870*
1,1,0.02965,-0.01083,0.01870*
1,1,0.02965,0.01083,0.01870*
1,1,0.02965,0.01083,-0.01870*
%
%ADD37ROUNDEDRECTD37*%
G04:AMPARAMS|DCode=38|XSize=86.74mil|YSize=86.74mil|CornerRadius=23.68mil|HoleSize=0mil|Usage=FLASHONLY|Rotation=90.000|XOffset=0mil|YOffset=0mil|HoleType=Round|Shape=RoundedRectangle|*
%AMROUNDEDRECTD38*
21,1,0.08674,0.03937,0,0,90.0*
21,1,0.03937,0.08674,0,0,90.0*
1,1,0.04737,0.01968,0.01968*
1,1,0.04737,0.01968,-0.01968*
1,1,0.04737,-0.01968,-0.01968*
1,1,0.04737,-0.01968,0.01968*
%
%ADD38ROUNDEDRECTD38*%
%ADD39C,0.08674*%
%ADD40C,0.00800*%
%ADD41C,0.06706*%
%ADD42R,0.06706X0.06706*%
%ADD43R,0.06706X0.06706*%
%ADD44C,0.06115*%
D33*
X345000Y496000D02*
D03*
X366500Y432500D02*
D03*
D34*
X345000Y491000D02*
D03*
Y486000D02*
D03*
X366500Y437500D02*
D03*
Y442500D02*
D03*
D35*
X231500Y445000D02*
D03*
Y465000D02*
D03*
X221500Y445000D02*
D03*
Y465000D02*
D03*
X227500Y415000D02*
D03*
Y435000D02*
D03*
X231500Y403000D02*
D03*
Y383000D02*
D03*
X221000Y403000D02*
D03*
Y383000D02*
D03*
X212500Y342500D02*
D03*
Y362500D02*
D03*
X230000D02*
D03*
Y342500D02*
D03*
X245000Y332500D02*
D03*
Y352500D02*
D03*
X257500D02*
D03*
Y332500D02*
D03*
X270000Y352500D02*
D03*
Y332500D02*
D03*
X282500D02*
D03*
Y352500D02*
D03*
X295000Y332500D02*
D03*
Y352500D02*
D03*
X307500D02*
D03*
Y332500D02*
D03*
X305000Y480000D02*
D03*
Y460000D02*
D03*
X292500D02*
D03*
Y480000D02*
D03*
X275000D02*
D03*
Y460000D02*
D03*
X262500D02*
D03*
Y480000D02*
D03*
X290000Y495000D02*
D03*
X310000D02*
D03*
X342500Y437500D02*
D03*
Y417500D02*
D03*
X335000Y469000D02*
D03*
X355000D02*
D03*
X367500Y452500D02*
D03*
Y472500D02*
D03*
X417500Y420000D02*
D03*
X437500D02*
D03*
X377500Y345000D02*
D03*
Y325000D02*
D03*
X359000Y345000D02*
D03*
Y325000D02*
D03*
X340000Y345000D02*
D03*
Y325000D02*
D03*
X377500Y377500D02*
D03*
Y357500D02*
D03*
X390000Y397500D02*
D03*
X410000D02*
D03*
X390000Y377500D02*
D03*
X410000D02*
D03*
X390000Y357500D02*
D03*
X410000D02*
D03*
X390000Y337500D02*
D03*
X410000D02*
D03*
X390000Y317500D02*
D03*
X410000D02*
D03*
X417500Y392500D02*
D03*
X437500D02*
D03*
X417500Y382500D02*
D03*
X437500D02*
D03*
Y372500D02*
D03*
X417500D02*
D03*
Y362500D02*
D03*
X437500D02*
D03*
Y352500D02*
D03*
X417500D02*
D03*
Y342500D02*
D03*
X437500D02*
D03*
Y332500D02*
D03*
X417500D02*
D03*
Y322500D02*
D03*
X437500D02*
D03*
Y312500D02*
D03*
X417500D02*
D03*
X360000Y400000D02*
D03*
X380000D02*
D03*
X360000Y410000D02*
D03*
X380000D02*
D03*
X360000Y420000D02*
D03*
X380000D02*
D03*
D36*
X347189Y315000D02*
D03*
X353095D02*
D03*
X359000D02*
D03*
X364906D02*
D03*
D37*
X370811D02*
D03*
D38*
X367500Y492500D02*
D03*
D39*
X387500D02*
D03*
X407500D02*
D03*
X427500D02*
D03*
D40*
X220500Y488000D02*
D03*
Y321000D02*
D03*
X459000Y488000D02*
D03*
Y321000D02*
D03*
D41*
X210500Y425000D02*
D03*
Y435000D02*
D03*
Y445000D02*
D03*
X324500Y469000D02*
D03*
Y459000D02*
D03*
Y449000D02*
D03*
Y439000D02*
D03*
Y429000D02*
D03*
Y419000D02*
D03*
Y409000D02*
D03*
Y399000D02*
D03*
Y389000D02*
D03*
Y379000D02*
D03*
Y369000D02*
D03*
Y359000D02*
D03*
Y349000D02*
D03*
Y339000D02*
D03*
Y329000D02*
D03*
X210000Y373000D02*
D03*
Y383000D02*
D03*
Y393000D02*
D03*
X300000Y382500D02*
D03*
Y392500D02*
D03*
Y402500D02*
D03*
Y412500D02*
D03*
Y422500D02*
D03*
Y432500D02*
D03*
Y442500D02*
D03*
X270000Y382500D02*
D03*
Y392500D02*
D03*
Y402500D02*
D03*
Y412500D02*
D03*
Y422500D02*
D03*
Y432500D02*
D03*
X457500Y350000D02*
D03*
X447500D02*
D03*
X467500Y360000D02*
D03*
X457500D02*
D03*
X447500D02*
D03*
X467500Y370000D02*
D03*
X457500D02*
D03*
X447500D02*
D03*
X467500Y380000D02*
D03*
X457500D02*
D03*
X447500D02*
D03*
X457500Y395000D02*
D03*
X447500D02*
D03*
X467500Y405000D02*
D03*
X457500D02*
D03*
X447500D02*
D03*
X467500Y415000D02*
D03*
X457500D02*
D03*
X447500D02*
D03*
X467500Y425000D02*
D03*
X457500D02*
D03*
X447500D02*
D03*
Y460000D02*
D03*
X457500D02*
D03*
X467500D02*
D03*
X447500Y450000D02*
D03*
X457500D02*
D03*
X467500D02*
D03*
X447500Y440000D02*
D03*
X457500D02*
D03*
X413000Y439000D02*
D03*
Y464591D02*
D03*
X244500Y479000D02*
D03*
Y469000D02*
D03*
Y459000D02*
D03*
Y449000D02*
D03*
Y439000D02*
D03*
Y429000D02*
D03*
Y419000D02*
D03*
Y409000D02*
D03*
Y399000D02*
D03*
Y389000D02*
D03*
Y379000D02*
D03*
X349000Y382500D02*
D03*
X359000D02*
D03*
X349000Y372500D02*
D03*
X359000D02*
D03*
X349000Y362500D02*
D03*
D42*
X210500Y455000D02*
D03*
X324500Y479000D02*
D03*
X210000Y403000D02*
D03*
X244500Y369000D02*
D03*
X359000Y362500D02*
D03*
D43*
X270000Y442500D02*
D03*
X467500Y350000D02*
D03*
Y395000D02*
D03*
Y440000D02*
D03*
D44*
X381500Y459003D02*
D03*
Y434997D02*
D03*
M02*
