M48
;Layer_Color=9474304
;FILE_FORMAT=2:5
INCH,LZ
;TYPE=PLATED
T1F00S00C0.01575
T2F00S00C0.02362
T3F00S00C0.02756
T4F00S00C0.03346
T5F00S00C0.03543
;TYPE=NON_PLATED
T6F00S00C0.12598
%
T01
X026Y0374177
X02855Y03745
X03025
Y0364
X0308Y0403
X02575Y04375
X02625Y0454
X02315Y0458
X0337Y0394
Y0374
X04Y03675
X0255Y05005
T02
X0245Y03325
X02575
X027
X02825
X0295
X03075
Y03525
X0295
X02825
X027
X02575
X0245
X02315Y0383
X0221
Y0403
X02315
Y0445
X02215
Y0465
X02315
X02625Y046
X0275
X02925
X0305
X03425Y04375
Y04175
X036Y042
Y041
Y04
X038
Y041
Y042
X03665Y04325
Y04375
Y04425
X04175Y042
X04375
Y03925
Y03825
Y03725
Y03625
Y03525
Y03425
Y03325
Y03225
Y03125
X04175
Y03225
Y03325
Y03425
Y03525
Y03625
Y03725
Y03825
Y03925
X0345Y0486
Y0491
Y0496
X031Y0495
X0305Y048
X02925
X0275
X02625
X029Y0495
T03
X02125Y03425
X023
Y03625
X02125
X02275Y0415
Y0435
X03675Y04525
X0413Y0464591
Y0439
X041Y03975
X039
Y03775
X03775
Y03575
Y0345
X0359
X034
Y0325
X0347189Y0315
X0353095
X0359
X0364906
X0370811
X03775Y0325
X0359
X039Y03175
Y03375
Y03575
X041
Y03775
Y03375
Y03175
X04075Y04925
X03875
X03675
Y04725
X0355Y0469
X0335
X04275Y04925
T04
X03815Y0434997
Y0459003
T05
X021Y0373
Y0383
Y0393
Y0403
X02105Y0425
Y0435
Y0445
Y0455
X02445Y0459
Y0449
Y0439
Y0429
Y0419
Y0409
Y0399
Y0389
Y0379
Y0369
X027Y03825
Y03925
Y04025
Y04125
Y04225
Y04325
Y04425
X03
Y04325
Y04225
Y04125
Y04025
Y03925
Y03825
X03245Y0379
Y0389
Y0399
Y0409
Y0419
Y0429
Y0439
Y0449
Y0459
Y0369
Y0359
Y0349
Y0339
Y0329
X0349Y03625
Y03725
Y03825
X0359
Y03725
Y03625
X04475Y036
Y035
X04575
X04675
Y036
X04575
Y037
X04675
Y038
X04575
X04475
Y037
Y0395
X04575
X04675
Y0405
X04575
X04475
Y0415
X04575
X04675
Y0425
X04575
X04475
Y044
Y045
Y046
X04575
X04675
Y045
X04575
Y044
X04675
X03245Y0469
Y0479
X02445
Y0469
T06
X02205Y0321
X0459
Y0488
X02205
M30
